<svg xmlns="http://www.w3.org/2000/svg" width="512.001" height="459.37" viewBox="0 0 512.001 459.37">
  <g id="alert" transform="translate(0 -26.315)">
    <g id="Group_8" data-name="Group 8">
      <g id="Group_7" data-name="Group 7">
        <path id="Path_4" data-name="Path 4" d="M503.839,395.379,308.139,56.417a60.205,60.205,0,0,0-104.278,0L8.162,395.378A60.2,60.2,0,0,0,60.3,485.685H451.7a60.2,60.2,0,0,0,52.14-90.306Zm-25.978,45.207a29.9,29.9,0,0,1-26.162,15.1H60.3a30.208,30.208,0,0,1-26.162-45.312L229.84,71.416a30.208,30.208,0,0,1,52.322,0l195.7,338.962A29.9,29.9,0,0,1,477.861,440.586Z" fill="#a3501c"/>
      </g>
    </g>
    <g id="Group_10" data-name="Group 10">
      <g id="Group_9" data-name="Group 9">
        <rect id="Rectangle_1" data-name="Rectangle 1" width="29.996" height="149.982" transform="translate(241.001 176.01)" fill="#a3501c"/>
      </g>
    </g>
    <g id="Group_12" data-name="Group 12">
      <g id="Group_11" data-name="Group 11">
        <path id="Path_5" data-name="Path 5" d="M256,355.99a20,20,0,1,0,20,20A20.021,20.021,0,0,0,256,355.99Z" fill="#a3501c"/>
      </g>
    </g>
  </g>
</svg>
