<svg xmlns="http://www.w3.org/2000/svg" width="512" height="353.098" viewBox="0 0 512 353.098">
  <g id="american-express" transform="translate(0 -79.451)">
    <path id="Path_1" data-name="Path 1" d="M512,402.281a30.266,30.266,0,0,1-30.265,30.267H30.265A30.265,30.265,0,0,1,0,402.281V109.717A30.266,30.266,0,0,1,30.265,79.451h451.47A30.265,30.265,0,0,1,512,109.717V402.281Z" fill="#306fc5"/>
    <path id="Path_2" data-name="Path 2" d="M21.517,402.281V109.717A30.267,30.267,0,0,1,51.784,79.451H30.264A30.265,30.265,0,0,0,0,109.717V402.282a30.266,30.266,0,0,0,30.265,30.267h21.52A30.269,30.269,0,0,1,21.517,402.281Z" fill="#202121" opacity="0.15"/>
    <g id="Group_1" data-name="Group 1">
      <path id="Path_3" data-name="Path 3" d="M74.59,220.748h15.3l-7.647-19.47Z" fill="#fff"/>
      <path id="Path_4" data-name="Path 4" d="M155.946,286.107v9.041h25.729v9.737H155.946v10.433h28.509l13.211-14.606-12.515-14.605Z" fill="#fff"/>
      <path id="Path_5" data-name="Path 5" d="M356.9,201.278l-8.345,19.47h15.995Z" fill="#fff"/>
      <path id="Path_6" data-name="Path 6" d="M230.348,320.875V281.241l-18.08,19.471Z" fill="#fff"/>
      <path id="Path_7" data-name="Path 7" d="M264.42,292.368c-.7-4.172-3.48-6.261-7.654-6.261h-14.6v12.516h15.3C261.637,298.624,264.42,296.539,264.42,292.368Z" fill="#fff"/>
      <path id="Path_8" data-name="Path 8" d="M313.09,297.236c1.391-.7,2.089-2.785,2.089-4.867a3.868,3.868,0,0,0-2.089-4.868c-1.387-.7-3.476-.7-5.559-.7h-13.91v11.127H307.53C309.613,297.932,311.7,297.932,313.09,297.236Z" fill="#fff"/>
      <path id="Path_9" data-name="Path 9" d="M413.217,183.2v8.344l-4.169-8.344H376.37v8.344L372.2,183.2h-44.5c-7.648,0-13.909,1.392-19.469,4.173V183.2H276.936v4.173c-3.476-2.78-7.648-4.173-13.211-4.173H151.775l-7.652,17.384L136.476,183.2H101.014v8.344L97.537,183.2H66.942l-13.909,32.68L37.042,251.34l-.294.7h36.2l.252-.7,4.174-10.428h9.039l4.172,11.125h40.326v-8.344l3.479,8.343h20.163l3.475-8.343v8.344h96.654v-18.08h1.394c1.389,0,1.389,0,1.389,2.087v15.3h50.065v-4.172a41.6,41.6,0,0,0,18.771,4.172h20.863l4.172-11.123h9.732l4.172,11.123h40.328V240.913l6.261,10.428h32.68V183.2H413.217ZM177.5,241.609H166.375V203.364l-.7,1.6v-.019L149.5,241.609H139.255l-16.687-38.245v38.245H98.928l-4.867-10.43H70.417l-4.868,10.43H53.326L73.9,192.934H91.278l19.469,46.587V192.934h18.422l.328.7h.024l8.773,19.094,6.3,14.306.223-.721,13.906-33.375H177.5v48.674h0Zm47.98-38.245H198.362V212.4h26.423v9.734H198.362v9.738h27.119V242.3H186.542V192.935h38.939v10.429Zm49.595,17.93a.628.628,0,0,0,.063.042,7.962,7.962,0,0,1,.68.824,13.37,13.37,0,0,1,2.463,8.151c0,.066.007.131.011.2,0,.038.007.071.007.11,0,.022,0,.039,0,.06.016.383.026.774.026,1.2v9.735H267.9v-5.565c0-2.781,0-6.954-2.089-9.735a6.329,6.329,0,0,0-2.046-1.4c-1.042-.675-3.017-.686-6.3-.686h-12.52V241.61H233.128V192.935h26.425c6.254,0,10.428,0,13.906,2.086,3.407,2.046,5.465,5.439,5.543,10.812a13.813,13.813,0,0,1-8.326,12.829A9.31,9.31,0,0,1,275.076,221.294Zm23.415,20.315H286.669V192.934h11.822Zm135.592,0h-15.3l-22.25-36.855v30.6l-.073-.072v6.362H384.713v-.029H372.891l-4.172-10.43H344.38L340.208,242.3H327c-5.559,0-12.517-1.389-16.687-5.561s-6.256-9.735-6.256-18.773c0-6.953,1.389-13.911,6.256-19.472,3.474-4.175,9.735-5.562,17.382-5.562H338.82v10.429H327.692c-4.172,0-6.254.693-9.041,2.783-2.082,2.085-3.474,6.256-3.474,11.123,0,5.564.7,9.04,3.474,11.821,2.091,2.089,4.87,2.785,8.346,2.785h4.867l15.991-38.243H365.24l19.472,46.587V193.634h17.382l20.161,34.07v-34.07h11.826v47.977h0v0Z" fill="#fff"/>
      <path id="Path_10" data-name="Path 10" d="M265.161,213.207a3.727,3.727,0,0,0,.543-.745,7.513,7.513,0,0,0,.963-5.244,3.882,3.882,0,0,0-.105-.634c-.013-.056-.011-.1-.026-.161h-.007a3.9,3.9,0,0,0-2.11-2.367c-1.394-.693-3.48-.693-5.565-.693H244.945v11.127h13.909c2.085,0,4.172,0,5.565-.7a2.625,2.625,0,0,0,.574-.413l0,.009S265.067,213.315,265.161,213.207Z" fill="#fff"/>
      <path id="Path_11" data-name="Path 11" d="M475.105,311.144a26.64,26.64,0,0,0-3.474-13.212V266.643H471.6v-2.089H438.116c-4.336,0-9.6,4.171-9.6,4.171v-4.171H396.534c-4.87,0-11.124,1.392-13.909,4.171v-4.171H325.609v4.17c-4.169-3.474-11.824-4.171-15.3-4.171H272.762v4.17c-3.476-3.474-11.824-4.171-16-4.171H215.05l-9.737,10.431-9.04-10.431H133.7v70.233h61.19l10.054-10.057,8.715,10.057H252.6V318.793h3.479c4.863,0,11.124,0,15.991-2.089V335.48h31.291V317.4h1.387c2.089,0,2.089,0,2.089,2.086V335.48H401.4c6.263,0,12.517-1.394,15.993-4.175v4.175h29.9c6.254,0,12.517-.7,16.689-3.478,6.4-3.841,10.437-10.64,11.037-18.749.028-.24.063-.48.085-.721l-.041-.039C475.087,312.043,475.105,311.6,475.105,311.144Zm-219.029-4.171h-13.91V325.05H219.311l-13.3-15.3-.046.051-.65-.748-15.3,16h-44.5V276.377h45.2L203.06,289.9l2.6,2.832.352-.365,14.6-15.991h36.852c7.152,0,15.161,1.765,18.2,9.042a19.662,19.662,0,0,1,.577,4.863C276.237,304.189,266.5,306.973,256.076,306.973Zm69.533-.7c1.389,2.081,2.085,4.867,2.085,9.041v9.732H315.875v-6.256c0-2.786,0-7.65-2.089-9.739-1.387-2.081-4.172-2.081-8.341-2.081H292.93V325.05H281.11V275.681h26.421c5.559,0,10.426,0,13.909,2.084a12.308,12.308,0,0,1,6.254,11.128,13.846,13.846,0,0,1-8.343,13.212Q324.568,304.182,325.609,306.276Zm47.98-20.169H346.467v9.04h26.424v9.737H346.467v9.736h27.122v10.429H334.65V275.68h38.939Zm29.2,38.943H380.539V314.621h22.252c2.082,0,3.476,0,4.87-1.392a5.049,5.049,0,0,0,0-6.952,5.9,5.9,0,0,0-4.176-1.391c-11.126-.7-24.337,0-24.337-15.3,0-6.954,4.172-14.6,16.689-14.6h22.945v11.819H397.228c-2.085,0-3.478,0-4.87.7s-1.387,2.089-1.387,3.478c0,2.087,1.387,2.783,2.778,3.473a8.81,8.81,0,0,0,4.172.7h6.259c6.259,0,10.43,1.391,13.211,4.173,2.087,2.087,3.478,5.564,3.478,10.43C420.869,320.179,414.611,325.05,402.791,325.05Zm59.8-4.871c-2.778,2.785-7.648,4.871-14.6,4.871H425.74V314.621h22.245c2.087,0,3.481,0,4.87-1.392a5.039,5.039,0,0,0,0-6.952,5.879,5.879,0,0,0-4.172-1.391c-11.122-.7-24.337,0-24.337-15.3,0-6.609,3.781-12.579,13.106-14.352a25.918,25.918,0,0,1,3.583-.253h22.948v11.819H442.426c-2.087,0-3.476,0-4.865.7a5.3,5.3,0,0,0-1.4,3.478c0,2.087.7,2.783,2.785,3.473a8.8,8.8,0,0,0,4.172.7h6.256a21.718,21.718,0,0,1,7.44,1.114c1.926.7,8.3,3.549,9.728,10.994a15.617,15.617,0,0,1,.215,2.495A14.142,14.142,0,0,1,462.59,320.179Z" fill="#fff"/>
    </g>
  </g>
</svg>
