<svg xmlns="http://www.w3.org/2000/svg" xmlns:xlink="http://www.w3.org/1999/xlink" width="132" height="78" viewBox="0 0 132 78">
  <defs>
    <clipPath id="clip-Web_1920_1">
      <rect width="132" height="78"/>
    </clipPath>
  </defs>
  <g id="Web_1920_1" data-name="Web 1920 – 1" clip-path="url(#clip-Web_1920_1)">
    <rect width="132" height="78" fill="rgba(255,255,255,0)"/>
    <g id="triceratops" transform="translate(-6.913 1)">
      <g id="Layer_2" transform="translate(7.913)">
        <path id="Path_1" data-name="Path 1" d="M454.837,247.451a30.9,30.9,0,1,1-30.9-30.9A30.9,30.9,0,0,1,454.837,247.451Z" transform="translate(-359.39 -216.552)" fill="#ffc717"/>
        <ellipse id="Ellipse_1" data-name="Ellipse 1" cx="38.613" cy="4.313" rx="38.613" ry="4.313" transform="translate(28.18 64.612)" fill="#d1d3d4"/>
        <g id="Group_4" data-name="Group 4" transform="translate(50.188 49.283)">
          <g id="Group_2" data-name="Group 2" transform="translate(20.054 5.448)">
            <path id="Path_11" data-name="Path 11" d="M529.336,416.544c-1.378-.715-1.18-5.186-.591-6.259.381-.679,2.739-2.072,5.249-4.275a35.644,35.644,0,0,1-3.7.741,67.793,67.793,0,0,1-7.586.705,7.656,7.656,0,0,0-.227,3.368c.217,1.788-1.456,4.426-2.242,6.572a6.965,6.965,0,0,0-.492,3.532h12.008S530.715,417.259,529.336,416.544Z" transform="translate(-519.694 -406.009)" fill="#c2731e"/>
          </g>
          <g id="Group_3" data-name="Group 3" transform="translate(0 0)">
            <path id="Path_12" data-name="Path 12" d="M461.06,402.059c-1.7-.715-1.7-4.113-1.59-5.186a12.919,12.919,0,0,1,2.693-5.528,25.85,25.85,0,0,1-2.508-1.06,35.075,35.075,0,0,0-5.324-2.489,19.713,19.713,0,0,0-3.578-.646,9.3,9.3,0,0,1-.16,4.18,6.135,6.135,0,0,0,.78,6.08,19.146,19.146,0,0,1,1.744,6.974c.168,2.146.309,3.13.309,3.13h12.887S462.757,402.776,461.06,402.059Z" transform="translate(-450.12 -387.15)" fill="#c2731e"/>
          </g>
        </g>
        <path id="Path_13" data-name="Path 13" d="M406.458,297.591l-6.031,3.97a8.028,8.028,0,0,0-1-2.072,9.149,9.149,0,0,0-4.163-3.275l5.612-7.929c.381-.539-.435-1.315-.953-.905l-8.448,6.654c-.1-.082-.212-.162-.313-.25a31.729,31.729,0,0,1-3.313-3.24l7.624-9.033c.427-.505-.32-1.348-.873-.983l-9.418,6.2a35.112,35.112,0,0,1-3.267-12.367h-.191A19.68,19.68,0,0,0,369.5,287.217c-.366-.191-.688-.36-.953-.509-3.934-2.362-10.051-6.012-17.023-6.69-16.181-1.574-27.758,4.258-34.38,13.478a189.7,189.7,0,0,1-12.445,15.79c-3.541,3.542-6.839,5.794-11.955,5.991-3.542.191-10.972,1.054-11.61-4.428v-.191c-4.834,6.481,5.5,10,11.411,9.641,14.368-.867,21.279-9.292,25.806-10.472.2-.038.41-.069.623-.1-.191,1.216-.362,2.478-.477,3.789a62.541,62.541,0,0,1-1.5,10.262,6.968,6.968,0,0,0-.492,3.532h12.74s0-3.747-1.378-4.462-.738-3.187-.147-4.26c.539-.98,3.742-1.965,6.765-5.945a47.521,47.521,0,0,0,19.541,3.05c1.582-.069,3.412-.191,5.308-.4a63.34,63.34,0,0,0,5.225,7.445,11.436,11.436,0,0,1,1.925,4.561H379.8s-1.18-3.532-2.558-4.247a31.819,31.819,0,0,1-5.838-4.193,10.328,10.328,0,0,1-1.866-5.636c3.681-1.4,6.517-4.668,10.605-3.888,4.525.787,5.509,3.149,10.232,1.378a8.161,8.161,0,0,1,6.1-.395c1.771.591,3.345,1.967,5.509.984a8.157,8.157,0,0,0,1.563-4.609,7.805,7.805,0,0,0,1.978-.112c-.762-1.388-2.146-1.811-3.368-2.686l4.82-5.718C407.229,297.879,406.786,297.374,406.458,297.591Z" transform="translate(-278.913 -257.653)" fill="#f0871e"/>
        <path id="Path_14" data-name="Path 14" d="M401.623,300.773l1.916-2.27c.9-1.069,2.613-2.287,1.887-3.812-.78-1.632-2.918.237-3.692.747l-3.033,2c-.543-.715-1.081-1.431-1.66-2.106a9,9,0,0,0-2.668-1.971l4-5.669c.709-1,2.005-2.573.473-3.57-1.582-1.031-3.1.9-4.25,1.8l-5.3,4.18-.168.132c-.334-.271-.663-.555-.989-.859-.465-.433-.909-.886-1.334-1.353l3.364-3.986,3.267-3.871c.671-.8,1.039-1.5.452-2.478a1.651,1.651,0,0,0-2.186-.53l-4.232,2.785-4.271,2.812c-.213-.446-.415-.9-.595-1.367a44.111,44.111,0,0,1-2.1-9.793,1,1,0,0,0-.976-.742,11.89,11.89,0,0,0-5.909,2.478,18.286,18.286,0,0,0-4.5,4.636,23.626,23.626,0,0,0-2.71,5.244c-2.165-1.187-4.254-2.5-6.5-3.557a39.707,39.707,0,0,0-22.646-2.913,35.62,35.62,0,0,0-16.648,6.784c-5.5,4.176-9.021,10.264-13.234,15.62-4,5.095-8.324,11.16-15.1,12.437a29.343,29.343,0,0,1-7.624.276c-2.1-.179-4.918-1.132-4.918-3.7a1.02,1.02,0,0,0-1.883-.511,5.528,5.528,0,0,0-.553,6.408,10.865,10.865,0,0,0,6.01,3.85c6,1.929,12.761.591,18.47-1.679,4.641-1.847,8.461-4.891,12.8-7.243.029.547.07,1.1.131,1.647a28.194,28.194,0,0,1-.446,7.558c-.37,2.27-1.59,4.575-1.144,6.9a1.008,1.008,0,0,0,.976.741h12.74a1.02,1.02,0,0,0,1.01-1.01,14.133,14.133,0,0,0-.294-2.668,5.515,5.515,0,0,0-.713-1.826c-.341-.549-1.113-.789-1.189-1.462a3.431,3.431,0,0,1,1.66-3.2c1.468,2.859,1.292,6.334,1.727,9.431a1,1,0,0,0,.976.741H342.91c.7,0,1.351-.886.873-1.525a18.422,18.422,0,0,0-5.617-5.817c-1.309-.686-1.2-3.05-1.088-4.313a5.041,5.041,0,0,1,.341-1.369,49.912,49.912,0,0,0,6.458,1.214,42.18,42.18,0,0,0,4.649.267c.01.246.021.494.036.749A9.9,9.9,0,0,1,347.1,319.2a10.042,10.042,0,0,0-1.26,5.89,1.008,1.008,0,0,0,.974.742h12.008a1.02,1.02,0,0,0,.974-1.281,8.5,8.5,0,0,0-2.874-4.986c-1.05-.688-.551-3.812-.259-4.8a.842.842,0,0,1,.126-.238c2.148,3.431,5.6,6.456,6.321,10.56a1.006,1.006,0,0,0,.976.741h13.331a1.018,1.018,0,0,0,.974-1.281,11.342,11.342,0,0,0-2.411-4.4,13.279,13.279,0,0,0-2.274-1.456c-1-.648-1.984-1.334-2.92-2.08a7.5,7.5,0,0,1-2.566-5.289c2.592-1.273,4.966-3.282,7.838-3.574,3.166-.32,5.846,2.1,8.976,2.122a18.409,18.409,0,0,0,5.017-1.239,8.266,8.266,0,0,1,5.625.953,5.613,5.613,0,0,0,3.755.381,2.729,2.729,0,0,0,2.316-1.776c.381-.686.863-2.859,1.658-3.141a1.026,1.026,0,0,0,.6-1.485A14.064,14.064,0,0,0,401.623,300.773Zm-5.583-13.421.269-.211-2.594,3.663-1.159,1.637c-.6-.309-1.176-.633-1.727-.984Zm-58.9,32.885a11.654,11.654,0,0,1,3.759,3.57h-10a40.417,40.417,0,0,0-1.317-7.92,11.622,11.622,0,0,0-.585-1.367,11.886,11.886,0,0,0,1.083-.779,17.619,17.619,0,0,0,2.365-2.4l.538.179q1.262.415,2.533.779a8,8,0,0,0-.482,2.058c-.172,1.921.116,4.643,1.906,5.76a1.089,1.089,0,0,0,.208.122Zm20.315,3.57h-9.721a15.839,15.839,0,0,1,1.853-5.228,10.994,10.994,0,0,0,.938-2.934,8.5,8.5,0,0,0,.055-1.384c1.416-.042,2.83-.13,4.243-.244a3.911,3.911,0,0,0-.28.884c-.381,1.929-.528,5.173,1.353,6.406a4.677,4.677,0,0,1,1.565,2.5Zm-1.189-9.911.12-.012.029.05Zm43.809-9.74a5.89,5.89,0,0,1-1.159,3.864.857.857,0,0,0-.084.044c-.015-.214-.711.08-.97.08a4,4,0,0,1-1.281-.341c-.762-.276-1.471-.667-2.23-.953a8.5,8.5,0,0,0-5.257-.05,11.327,11.327,0,0,1-5.118.965,34.09,34.09,0,0,1-4.212-1.481,10.9,10.9,0,0,0-9.481,1.67,23.962,23.962,0,0,1-2.18,1.144,6.578,6.578,0,0,1,1.584-4.628c.953-.9-.486-2.327-1.429-1.43-3.258,3.1-2.651,9.868-.467,13.369a16.221,16.221,0,0,0,5.171,4.218,6.214,6.214,0,0,1,2.356,1.973,10.491,10.491,0,0,1,.629,1.214H364.893c-.882-3.444-3.467-5.995-5.444-8.89a18.9,18.9,0,0,1-2.708-4.891c-.179-.595-.276-1.21-.471-1.807a5.769,5.769,0,0,1-.572-2.76c.284-1.271-1.666-1.811-1.95-.538a11.123,11.123,0,0,0,.915,5.023,11.678,11.678,0,0,0,.749,2.108c-2.478.191-4.971.231-7.377.206a44.043,44.043,0,0,1-11.316-1.715c-1.018-.282-2.026-.6-3.031-.924a25.632,25.632,0,0,0,3.9-12.567c.063-1.3-1.959-1.3-2.022,0a21.047,21.047,0,0,1-8.577,16.5,13.745,13.745,0,0,0-2.257,1.632,5.543,5.543,0,0,0-1.107,3.671,3.16,3.16,0,0,0,.507,1.637c.347.551.966.705,1.222,1.334a6.668,6.668,0,0,1,.425,1.984H315.04a10.069,10.069,0,0,1,.515-2.253,19.983,19.983,0,0,0,.717-3.179,33.664,33.664,0,0,0,.572-6.831,29.657,29.657,0,0,1,.238-8.871,14.3,14.3,0,0,1,3.092-5.789c.842-.985-.581-2.423-1.429-1.43a17.785,17.785,0,0,0-4.182,11.332,13.346,13.346,0,0,0-1.715.852,114.009,114.009,0,0,1-10.815,6.305,28.148,28.148,0,0,1-16.268,2.508,12.771,12.771,0,0,1-6.027-2.638,3.1,3.1,0,0,1-1.169-2.718c2.005,2.842,7.064,2.972,10.27,2.79a19.918,19.918,0,0,0,8.739-2.064,27.6,27.6,0,0,0,7.52-6.717c2.524-2.958,4.912-6.035,7.243-9.149a71.507,71.507,0,0,1,6.78-8.509,32.886,32.886,0,0,1,16.987-8.484,37.721,37.721,0,0,1,23.182,2.627c2.23,1.052,4.294,2.383,6.452,3.561a34.431,34.431,0,0,0-1.01,4.546c-.347,2.243-.953,5.566.231,7.678,1.087,1.942,3.885,2.686,5.861,3.177a47.239,47.239,0,0,0,10.15,1.144,1.012,1.012,0,0,0,0-2.022,51.183,51.183,0,0,1-8.8-.883c-1.782-.358-4.6-.879-5.575-2.628a9.383,9.383,0,0,1-.2-2.114,25.341,25.341,0,0,1,.362-4.3,27.447,27.447,0,0,1,3.606-10.018,17.132,17.132,0,0,1,3.741-4.262A12.491,12.491,0,0,1,378.651,273a43.725,43.725,0,0,0,1.984,8.947,19.652,19.652,0,0,0,.841,1.952l-2.956,1.946c-1.085.713-.073,2.465,1.02,1.746l11.227-7.39-.953,1.132-2.543,3.012-5.083,6.021c-.835.99.587,2.427,1.43,1.43l1.854-2.2.031.034a21.992,21.992,0,0,0,4.13,3.553c1.491.953,3.17,1.569,4.67,2.51a11,11,0,0,1,2.731,2.838l-1.283.845c-1.085.713-.072,2.465,1.02,1.746l3.669-2.415.623-.41-.038.044-3.187,3.774c-.835.989.587,2.426,1.43,1.429l1.075-1.273a16.588,16.588,0,0,1,1.317,1.487,3.785,3.785,0,0,1-1.577.391Zm-8.263-5.638c-.206.532-1.144.665-2.112.294s-1.573-1.1-1.369-1.635,1.144-.665,2.112-.294,1.573,1.1,1.367,1.635Z" transform="translate(-276.531 -255.173)" fill="#754c29"/>
      </g>
    </g>
  </g>
</svg>
