<svg xmlns="http://www.w3.org/2000/svg" width="36.42" height="26.5" viewBox="0 0 36.42 26.5">
  <g id="cloud-computing" transform="translate(-8.486 -12.751)">
    <g id="cloud-computing_2_" data-name="cloud-computing (2)" transform="translate(8.486 -53.899)">
      <g id="Group_753" data-name="Group 753" transform="translate(0 66.65)">
        <path id="Path_1043" data-name="Path 1043" d="M28.457,93.15H20.644v-7.9h2.582a.808.808,0,0,0,.655-1.28l-5.023-6.951a.8.8,0,0,0-1.3,0l-5.023,6.951a.806.806,0,0,0,.655,1.28h2.582v7.9H7.018C3.111,92.934,0,89.281,0,85.321a7.414,7.414,0,0,1,3.676-6.4,4.97,4.97,0,0,1-.305-1.734,5.04,5.04,0,0,1,5.046-5.046,4.959,4.959,0,0,1,1.726.305,10.1,10.1,0,0,1,19.192,3.334,8.787,8.787,0,0,1-.878,17.369Z" transform="translate(0 -66.65)" fill="#00adee"/>
      </g>
    </g>
  </g>
</svg>
