<svg xmlns="http://www.w3.org/2000/svg" xmlns:xlink="http://www.w3.org/1999/xlink" width="14" height="18" viewBox="0 0 14 18">
  <defs>
    <clipPath id="clip-path">
      <rect id="Rectangle_639" data-name="Rectangle 639" width="14" height="18"/>
    </clipPath>
  </defs>
  <g id="csv" clip-path="url(#clip-path)">
    <rect width="14" height="18" fill="rgba(255,255,255,0)"/>
    <g id="custom_1" data-name="custom – 1" clip-path="url(#clip-path)">
      <rect id="Rectangle_638" data-name="Rectangle 638" width="14" height="18" fill="rgba(255,255,255,0)"/>
      <g id="Group_24" data-name="Group 24">
        <rect id="Rectangle_1" data-name="Rectangle 1" width="14" height="18" fill="rgba(255,255,255,0)"/>
        <path id="xls-file" d="M54,0H47.422a1.783,1.783,0,0,0-1.743,1.816V8.533h-.17a.717.717,0,0,0-.7.732V13.7a.717.717,0,0,0,.7.732h.17v.814a1.783,1.783,0,0,0,1.743,1.816H56.4a1.783,1.783,0,0,0,1.742-1.816V4.3ZM46.6,10.025l.311.666.324.588c.088.187-.969,2.145-.9,2.319l2.88-.308c.07-.2-.217-2.013-.144-2.191l.252-1.074h-.252l-.833,1.5L49.11,13.1h-.771l-.267-.557c-.109-.215-.18-.374-.263-.553H47.8c-.062.178-.136.338-.228.553l-.245.557h-.763l.855-1.558Zm9.8,5.928H47.422a.691.691,0,0,1-.675-.7v-.814h8.366a.717.717,0,0,0,.7-.732V9.265a.717.717,0,0,0-.7-.732H46.747V1.816a.691.691,0,0,1,.675-.7L53.6,1.107v2.38a1.235,1.235,0,0,0,1.209,1.26l2.237-.007.025,10.51a.69.69,0,0,1-.671.7Zm-6.483-3.544,1.4.691H49.47l2.132.19-1.461-3.265v2.494Zm4.263,0c-.491-.178.628-1.936.628-2.384,0-.526-2.747-.051-2.05-.051a1.752,1.752,0,0,1,.754.155l-.149.562a1.361,1.361,0,0,0-.618-.146c-.289,0-.43.137-.43.3,0,.2.166.283.548.434.522.2.767.484.767.918,0,.516-.381.954-1.192.954a1.867,1.867,0,0,1-.837-.187l.608.855,1.257-.831a1.648,1.648,0,0,0,.741.191c.307,0,.469-.132.469-.333s-.148-.3-.5-.436Z" transform="translate(-44.806 0.5)" fill="#f1af71"/>
        <text id="DOCX" transform="translate(2.5 13)" fill="#fff" font-size="3" font-family="Roboto-Bold, Roboto" font-weight="700"><tspan x="0" y="0" xml:space="preserve"> CSV</tspan></text>
      </g>
    </g>
  </g>
</svg>
