<svg xmlns="http://www.w3.org/2000/svg" width="512" height="353.098" viewBox="0 0 512 353.098">
  <g id="diners-club" transform="translate(0 -79.451)">
    <path id="Path_1" data-name="Path 1" d="M512,402.281a30.266,30.266,0,0,1-30.265,30.267H30.265A30.265,30.265,0,0,1,0,402.281V109.717A30.266,30.266,0,0,1,30.265,79.451h451.47A30.265,30.265,0,0,1,512,109.717V402.281Z" fill="#006ac9"/>
    <path id="Path_2" data-name="Path 2" d="M21.517,402.281V109.717A30.267,30.267,0,0,1,51.784,79.451H30.264A30.265,30.265,0,0,0,0,109.717V402.282a30.266,30.266,0,0,0,30.265,30.267h21.52A30.269,30.269,0,0,1,21.517,402.281Z" fill="#202121" opacity="0.15"/>
    <g id="diners-club-2" data-name="diners-club" transform="translate(99.58 71.443)">
      <path id="Path_29" data-name="Path 29" d="M165.6,154.512a33.964,33.964,0,0,0,22.047,32.112V122.4A33.964,33.964,0,0,0,165.6,154.512Z" transform="translate(-66.387 -18.28)" fill="#fff"/>
      <path id="Path_30" data-name="Path 30" d="M243.2,122.4v64.225a34.44,34.44,0,0,0,22.047-32.112A33.964,33.964,0,0,0,243.2,122.4Z" transform="translate(-97.496 -18.28)" fill="#fff"/>
      <g id="Group_3" data-name="Group 3" transform="translate(73.811 76.8)">
        <path id="Path_31" data-name="Path 31" d="M243.2,208.112A34.44,34.44,0,0,0,265.247,176" transform="translate(-171.306 -116.568)" fill="#c2c8ce"/>
        <path id="Path_32" data-name="Path 32" d="M210.91,76.8h-27.8c-33.071,0-59.911,24.444-59.911,59.911,0,32.592,26.84,58.953,59.911,58.953h27.8c32.592,0,62.308-26.361,62.308-58.953C272.739,101.244,243.023,76.8,210.91,76.8Zm-27.8,113.592a54.1,54.1,0,0,1-54.16-54.16c0-30.2,24.444-54.639,54.16-54.639a54.4,54.4,0,1,1,0,108.8Z" transform="translate(-123.2 -76.8)" fill="#c2c8ce"/>
      </g>
      <g id="Group_4" data-name="Group 4" transform="translate(0 196.143)">
        <path id="Path_33" data-name="Path 33" d="M12.462,318.826c0,4.793,3.355,5.272,6.71,5.272,13.42,0,18.213-10.065,18.213-19.651,0-11.982-7.669-20.13-19.651-20.13-2.4,0-3.834,0-4.793.479v34.03ZM6.231,289.11c0-5.751-2.876-5.272-5.751-5.272V282.4H18.692c16.3,0,24.923,11.024,24.923,22.047,0,6.231-3.834,22.047-25.882,22.047H0v-1.438c3.834-.479,5.751-.479,5.751-4.793V289.11Z" transform="translate(0 -278.566)" fill="#fff"/>
        <path id="Path_34" data-name="Path 34" d="M84.31,287.031a3.205,3.205,0,0,1-2.876-3.355,2.876,2.876,0,0,1,5.751,0,3.205,3.205,0,0,1-2.876,3.355M77.6,323.936h1.438c1.917,0,2.876,0,2.876-1.917V304.765c0-2.876-.959-3.355-3.355-4.314v-.959c2.876-.959,6.231-1.917,6.71-2.4a1.484,1.484,0,0,1,.959-.479c.479,0,.479.479.479.959V321.54c0,1.917,1.438,1.917,3.355,1.917h.959v1.438H77.6S77.6,323.936,77.6,323.936Z" transform="translate(-31.109 -277.924)" fill="#fff"/>
        <path id="Path_35" data-name="Path 35" d="M106.714,316.148c0-2.4-.479-2.876-3.834-4.314v-.959c2.876-.959,5.272-1.917,8.148-2.876a.469.469,0,0,1,.479.479v4.314c3.355-2.4,6.71-4.793,11.024-4.793,5.272,0,7.189,3.834,7.189,8.627v16.3c0,1.917,1.438,1.917,3.355,1.917h.959v1.438h-13.42V334.84h.959c1.917,0,2.876,0,2.876-1.917v-16.3c0-3.355-2.4-5.272-5.751-5.272-1.917,0-5.272,1.438-7.189,2.876v18.692c0,1.917,1.438,1.917,3.355,1.917h.959v1.438H102.4V334.84h1.438c1.917,0,2.876,0,2.876-1.917V316.148Z" transform="translate(-41.051 -288.828)" fill="#fff"/>
        <path id="Path_36" data-name="Path 36" d="M171.017,317.107c1.438,0,1.917-.959,1.917-1.438,0-3.355-1.917-5.751-5.272-5.751-3.834,0-6.71,2.876-7.189,7.189Zm-11.024,1.917v3.834c.479,5.752,4.314,11.024,9.107,11.024,3.355,0,6.231-1.917,8.627-4.314l.959.959c-2.876,3.834-6.71,7.189-11.5,7.189-10.065,0-11.982-9.586-11.982-13.9,0-12.462,8.148-15.817,12.462-15.817,5.272,0,10.544,3.355,10.544,10.065v.959H159.993Z" transform="translate(-62.218 -288.828)" fill="#fff"/>
        <path id="Path_37" data-name="Path 37" d="M195.359,334.84h1.917c1.917,0,2.876,0,2.876-1.917V315.189c0-1.917-2.4-2.4-3.355-2.876v-.959c4.793-1.917,7.189-3.355,7.669-3.355s.479,0,.479.959v5.751h0c1.438-2.4,4.314-6.231,8.148-6.231a3.254,3.254,0,0,1,3.355,3.355c0,1.917-.959,3.355-2.876,3.355s-1.917-1.438-4.314-1.438c-.959,0-4.793,1.438-4.793,5.272v14.858c0,1.917,1.438,1.917,2.876,1.917H210.7v1.438H194.4v-2.4Z" transform="translate(-77.932 -288.828)" fill="#fff"/>
        <path id="Path_38" data-name="Path 38" d="M236.159,327.33c.959,4.314,3.355,7.669,8.148,7.669,3.834,0,5.272-2.4,5.272-4.314,0-7.189-13.9-4.793-13.9-15.337,0-3.355,2.876-8.148,9.586-8.148a14.716,14.716,0,0,1,7.189,1.917l.479,6.231H251.5c-.479-3.834-2.876-6.231-6.71-6.231-2.4,0-4.793,1.438-4.793,4.314,0,7.189,14.379,5.272,14.379,14.858,0,4.314-3.355,8.627-11.024,8.627A22.56,22.56,0,0,1,235.679,335l-.479-7.189Z" transform="translate(-94.289 -288.508)" fill="#fff"/>
        <path id="Path_39" data-name="Path 39" d="M335.3,292.782h-1.438c-.959-7.189-6.231-10.065-13.42-10.065s-17.734,4.793-17.734,20.13c0,12.462,9.107,21.568,18.692,21.568a12.424,12.424,0,0,0,12.462-11.024l1.438.479-1.438,9.107a39.483,39.483,0,0,1-13.9,3.355c-14.858,0-23.965-9.586-23.965-23.485,0-12.941,11.5-22.047,23.965-22.047,5.272,0,10.065,1.438,14.858,3.355Z" transform="translate(-118.662 -277.924)" fill="#fff"/>
        <path id="Path_40" data-name="Path 40" d="M365.6,322.012h.959c1.917,0,2.876,0,2.876-1.917V285.107c0-4.314-.959-4.314-3.355-4.793v-.959c2.4-.959,5.272-1.917,6.71-2.876a1.761,1.761,0,0,1,1.438-.479c.479,0,.479.479.479.959v43.615c0,1.917,1.438,1.917,3.355,1.917h.959v1.438H365.6v-1.917Z" transform="translate(-146.564 -276)" fill="#fff"/>
        <path id="Path_41" data-name="Path 41" d="M414.84,333.244c0,.959.479.959,1.917.959h2.4v1.438c-2.876.479-7.669,1.438-9.107,1.917h-.479v-5.272c-3.834,2.876-6.71,5.272-11.024,5.272-3.355,0-6.71-2.4-6.71-7.669v-16.3c0-1.438-.479-3.355-3.834-3.355v-.959c2.4,0,7.189-.479,8.148-.479.479,0,.479.479.479,1.917v16.3c0,1.917,0,7.189,5.272,7.189,1.917,0,4.793-1.438,7.669-3.834V313.593c0-1.438-2.876-1.917-5.272-2.4v-.959c5.751-.479,9.107-.959,9.586-.959s.479.479.479.959v23.006Z" transform="translate(-155.544 -289.149)" fill="#fff"/>
        <path id="Path_42" data-name="Path 42" d="M448.148,316.581a6.768,6.768,0,0,0,6.71,6.231c6.71,0,9.586-6.71,9.586-11.982,0-6.71-5.272-12.462-10.065-12.462a8.355,8.355,0,0,0-5.751,2.876v15.337Zm0-16.775c2.4-1.917,5.751-4.314,9.586-4.314,7.189,0,11.5,6.231,11.5,13.42,0,8.148-6.231,16.3-14.858,16.3-4.793,0-7.189-1.438-8.627-2.4l-1.917,1.438-1.438-.479a85.566,85.566,0,0,0,.959-11.024v-26.84c0-4.314-.959-4.314-3.355-4.793v-.959c2.4-.959,5.272-1.917,6.71-2.876a1.761,1.761,0,0,1,1.438-.479c.479,0,.479.479.479.959v22.047Z" transform="translate(-176.39 -276.321)" fill="#fff"/>
      </g>
      <g id="Group_5" data-name="Group 5" transform="translate(0.479 256.055)">
        <path id="Path_43" data-name="Path 43" d="M.8,400.927h.479c1.438,0,2.4,0,2.4-1.917V381.276c0-1.917-1.438-1.917-2.4-1.917H.8V378.4H11.344v.959h-.479c-1.438,0-2.4,0-2.4,1.917v17.734c0,1.917.959,1.917,2.4,1.917h.479v.959H1.279v-.959Z" transform="translate(-0.8 -376.962)" fill="#fff"/>
        <path id="Path_44" data-name="Path 44" d="M11.344,401.885v-.959h-.479c-1.438,0-2.876,0-2.876-1.917V381.276c0-1.917,1.438-1.917,2.876-1.917h.479V378.4H1.279v.959h.479c1.438,0,2.876,0,2.876,1.917v17.734c0,1.917-1.438,1.917-2.876,1.917H1.279v.959H11.344m0,.479H1.279v-1.438h.479c1.438,0,2.4,0,2.4-1.917V381.276c0-1.917-.959-1.917-2.4-1.917H.8V378.4H11.344v.959h-.479c-1.438,0-2.4,0-2.4,1.917v17.734c0,1.917.959,1.917,2.4,1.917h.479v1.438Z" transform="translate(-0.8 -376.962)" fill="#fff"/>
        <path id="Path_45" data-name="Path 45" d="M42.527,394.854h0V381.914c0-2.876-1.917-3.355-2.876-3.355h-.959V377.6H47.8v.959H47.32c-1.438,0-2.876.479-2.876,4.314v18.692H43.006L25.272,381.914v13.9c0,2.876.479,3.834,3.355,3.834h.479v.959H20.479c2.4,0,2.876-1.438,2.876-4.314V381.914a2.763,2.763,0,0,0-2.876-2.876h0v-.959h6.71Z" transform="translate(-8.497 -376.641)" fill="#fff"/>
        <path id="Path_46" data-name="Path 46" d="M42.527,395.175Zm0,0Zm.479,7.189h.959V383.672c0-4.314,1.917-4.314,3.355-4.314H47.8V378.4H39.172v.959h.479a3.19,3.19,0,0,1,3.355,3.355v12.941h0L27.669,378.4h-6.71v.959h.479a3.6,3.6,0,0,1,3.355,3.355v14.379c0,2.876-.959,4.314-3.355,4.314h-.479v.959h8.627v-.959h-.959c-2.876,0-3.355-.959-3.355-4.314V382.714Zm1.438.479H43.006L25.751,383.672v13.9c0,2.876.479,3.834,2.876,3.834h.959v.959H20.479v-1.438h.479c2.4,0,2.876-1.438,2.876-4.314V382.234a2.763,2.763,0,0,0-2.876-2.876H20V378.4h7.189l14.858,16.775V382.714c0-2.876-1.917-2.876-2.876-2.876h-.479v-.959H47.8v.959H47.32c-1.438,0-2.876,0-2.876,4.314v18.692Z" transform="translate(-8.497 -376.962)" fill="#fff"/>
        <path id="Path_47" data-name="Path 47" d="M72.314,378.876c-2.4,0-2.876.479-3.355,2.876H68c0-.959.479-1.917.479-2.876V376h.959c.479.959.959.959,1.917.959H89.089c.959,0,1.917,0,1.917-.959h.959c0,.959-.479,1.917-.479,2.876v2.876l-.959.479c0-1.438,0-3.355-2.4-3.355H82.379v18.213c0,2.4.959,2.876,2.876,2.876h.479v.959h-11.5v-.959h.479c1.917,0,2.876,0,2.876-2.876V378.876Z" transform="translate(-27.74 -376)" fill="#fff"/>
        <path id="Path_48" data-name="Path 48" d="M85.734,402.044h-11.5v-1.438h.479c1.917,0,2.876,0,2.876-2.876V379.517h.479V397.73c0,2.876-.959,2.876-2.876,2.876H74.71v.959h5.751a19.661,19.661,0,0,1,5.272.479v-.959h-.479c-1.438,0-2.876-.479-2.876-2.876V380H88.13c2.4,0,2.4,1.917,2.876,3.355l.959-.479V380a3.592,3.592,0,0,1,.479-2.4h-.479c0,.959-.959.959-1.917.959H72.314c-.959,0-1.917,0-1.917-.959H68.959v2.876c0,.959-.479,1.917-.479,2.876h.959c.479-2.4.959-3.355,3.355-2.876h0c-2.4,0-2.4.479-2.876,2.876H68c0-.959.479-1.917.479-2.876V377.6h.959c0,.959.959.959,1.917.959H89.089c.959,0,1.438,0,1.917-.959h.959c0,.959-.479,1.917-.479,2.876v2.876H90.047c0-1.438,0-3.355-2.4-3.355H82.379V398.21c0,2.4.959,2.876,2.876,2.876h.959l-.479.959Z" transform="translate(-27.74 -376.641)" fill="#fff"/>
        <path id="Path_49" data-name="Path 49" d="M109.6,400.927h.479c1.438,0,2.4,0,2.4-1.917V381.276c0-1.917-1.438-1.917-2.4-1.917H109.6V378.4h17.254v5.272H125.9c0-2.4-.479-3.834-4.314-3.834h-4.793v9.107H121.1c1.917,0,2.4-.959,2.876-2.876h.959v7.669h-.959c0-1.917-.479-3.355-2.876-3.355h-4.314v8.148c0,2.4,1.917,2.4,4.314,2.4,4.314,0,5.751-.479,7.189-4.314h.959a24.73,24.73,0,0,0-.959,5.272H110.079v-.959Z" transform="translate(-44.416 -376.962)" fill="#fff"/>
        <path id="Path_50" data-name="Path 50" d="M127.813,401.885c.479-1.917.479-3.355.959-5.272h-.479c-.959,3.834-2.876,4.314-7.189,4.314-1.917,0-4.314,0-4.314-2.4v-8.148H121.1c2.4,0,2.4,1.438,2.876,3.355h.959v-7.669h-.959a2.542,2.542,0,0,1-2.876,2.876h-4.314v-9.107h4.793c3.355,0,4.314,1.917,4.314,3.834h.959v-4.793H110.079v.959h.479c1.438,0,2.876,0,2.876,1.917v17.734c0,1.917-1.438,1.917-2.876,1.917h-.479v.959h9.107a52.087,52.087,0,0,1,8.627-.479m0,.479H109.6v-1.438h.479c1.438,0,2.4,0,2.4-1.917V381.276c0-1.438-.959-1.917-2.4-1.917H109.6V378.4h17.254v5.272h0l-.959.479h0c0-2.4-.479-3.834-3.834-3.834h-4.793v8.627H121.1c1.917,0,2.4-.959,2.4-2.876h.959v7.669H123.5c0-1.917-.479-3.355-2.4-3.355h-3.834v7.669c0,1.917,1.917,1.917,3.834,1.917,4.314,0,5.751,0,6.71-3.834h0l.959.479h0a24.058,24.058,0,0,1-.959,5.751Z" transform="translate(-44.416 -376.962)" fill="#fff"/>
        <path id="Path_51" data-name="Path 51" d="M151.669,389.9h1.438c3.355,0,5.272-1.438,5.272-5.272a4.528,4.528,0,0,0-4.793-4.793h-1.917Zm-4.314-8.148c0-2.4-1.438-2.4-2.4-2.4h-.479V378.4h10.544c4.314,0,8.148.959,8.148,6.231,0,2.876-1.917,4.793-4.793,6.231l5.751,8.627c.959,1.438,1.438,1.917,3.355,1.917v.959h-6.71c-2.4-3.355-4.793-7.189-7.189-11.024h-2.4v7.189c0,2.4,1.438,2.876,2.876,2.876h.479v.959H144v-1.438h.479c1.438,0,2.4-.479,2.4-1.917V381.755Z" transform="translate(-58.207 -376.962)" fill="#fff"/>
        <path id="Path_52" data-name="Path 52" d="M153.907,389.9c3.355,0,5.272-.959,5.272-5.272a4.528,4.528,0,0,0-4.793-4.793h-1.917V389.9Zm-1.917,0h0V379.359h1.917a5.029,5.029,0,0,1,5.272,5.272c0,4.314-1.917,5.272-5.272,5.272Zm0,.959h2.4c2.4,3.834,4.314,7.669,7.189,11.024h6.71v-.959a3.618,3.618,0,0,1-3.355-1.917l-5.751-9.107h0c2.876-.959,4.793-2.876,4.793-5.751,0-4.793-3.834-5.751-8.148-5.751H145.279v.959h.479c.959,0,2.4,0,2.4,2.876v17.254c0,1.438-1.438,1.917-2.4,1.917H144.8v.959h10.544v-.959h-.479c-1.438,0-2.876,0-2.876-2.876v-7.669Zm16.3,11.5h-6.71c-2.4-3.355-4.793-7.189-7.189-11.024h-1.917v7.189c0,2.4.959,2.4,2.876,2.4h.959v.959H145.759v-.959h.479c1.438,0,2.4-.479,2.4-1.917V381.755c0-2.4-1.438-2.4-2.4-2.4H144.8V378.4h10.544c4.314,0,8.148,1.438,8.148,6.231,0,2.876-1.917,4.793-4.793,6.231l5.751,8.627c.959,1.438,1.438,1.917,3.355,1.917h0l.479.959Z" transform="translate(-58.528 -376.962)" fill="#fff"/>
        <path id="Path_53" data-name="Path 53" d="M207.327,394.854h0V381.914c0-2.876-1.917-3.355-2.876-3.355h-.959V377.6H212.6v.959h-.479c-1.438,0-2.876.479-2.876,4.314v18.692h-1.438l-17.734-19.651v13.9c0,2.876.479,3.834,3.355,3.834h.959v.959h-8.627c2.4,0,2.876-1.438,2.876-4.314V381.914c0-1.917-1.438-2.876-3.355-2.876H184.8v-.959h6.71Z" transform="translate(-74.563 -376.641)" fill="#fff"/>
        <path id="Path_54" data-name="Path 54" d="M207.327,395.175Zm0,0Zm.479,7.189h.959V383.672c0-4.314,1.917-4.314,3.355-4.314h.479V378.4h-8.627v.959h.479a3.19,3.19,0,0,1,3.355,3.355v12.941h0L192.469,378.4h-6.71v.959h.479a3.6,3.6,0,0,1,3.355,3.355v14.379c0,2.876-.959,4.314-3.355,4.314h-.479v.959h8.627v-.959h-.479c-2.876,0-3.355-.959-3.355-4.314V382.714Zm1.438.479h-1.438l-17.254-19.172v13.9c0,2.876.479,3.834,2.876,3.834h.959v.959h-9.107v-1.438h.479c2.4,0,2.876-1.438,2.876-4.314V382.234a2.763,2.763,0,0,0-2.876-2.876H184.8V378.4h7.189l14.858,16.775V382.714c0-2.876-1.917-2.876-2.876-2.876h-.959v-.959h9.107v.959h-.479c-1.438,0-2.876,0-2.876,4.314v15.337a7.106,7.106,0,0,1,.479,3.355Z" transform="translate(-74.563 -376.962)" fill="#fff"/>
        <path id="Path_55" data-name="Path 55" d="M241.424,381.272h0l-3.355,9.586H244.3Zm-4.793,14.858a6.812,6.812,0,0,0-.959,2.876c0,.959,1.438.959,2.4.959h.479v.959H230.4v-.959h0a3.038,3.038,0,0,0,2.876-2.4l5.272-15.817,1.438-4.314c.959-.479,2.4-.959,3.355-1.438h.479c0,.479,0,.479.479.959l6.71,18.213c.479.959.959,2.4,1.438,3.355a2.214,2.214,0,0,0,2.4,1.438h0v.959H244.779v-.959h.479c.959,0,1.917,0,1.917-.959a20.758,20.758,0,0,1-.479-2.4l-1.438-3.834h-7.669Z" transform="translate(-92.844 -376)" fill="#fff"/>
        <path id="Path_56" data-name="Path 56" d="M241.424,381.593Zm-2.876,9.586h6.231l-3.355-9.586Zm-.479,0,3.355-10.065h0l3.355,10.065Zm6.71,10.065h9.586v-.959h0a2.636,2.636,0,0,1-2.4-1.438,5.586,5.586,0,0,1-.959-3.355l-6.231-17.734c0-.479,0-.479-.479-.959h0a15.959,15.959,0,0,1-2.876,1.438c0,1.438-.959,2.876-1.438,4.314l-5.272,15.817a3.6,3.6,0,0,1-3.355,2.4h0v.959h7.189v-.959h0c-.959,0-2.876,0-2.876-1.438a18.847,18.847,0,0,1,.959-2.876h0l.959-3.834h8.148l1.438,3.834a5.211,5.211,0,0,1,.479,2.4c0,.959-1.438.959-2.4.959h0v1.438Zm10.065.479H244.779v-1.438h.479c.959,0,1.917,0,1.917-.959a20.759,20.759,0,0,1-.479-2.4l-1.438-3.834h-7.669l-.959,3.355a8.1,8.1,0,0,0-.959,2.4c0,.959,1.438.959,2.4.959h.479v.959H230.4v-.479h0a3.236,3.236,0,0,0,2.876-1.917l5.272-15.817,1.438-4.314a15.959,15.959,0,0,0,2.876-1.438h.959c0,.479,0,.479.479.959l6.71,17.734a23.362,23.362,0,0,0,1.438,3.355c.479.959.959,1.438,1.917,1.438h.479v1.438Z" transform="translate(-92.844 -376.321)" fill="#fff"/>
        <path id="Path_57" data-name="Path 57" d="M270.714,378.876c-2.4,0-2.876.479-3.355,2.876H266.4c0-.959.479-1.917.479-2.876V376h.959c.479.959.959.959,1.917.959h17.734c.959,0,1.917,0,1.917-.959h.959c0,.959-.479,1.917-.479,2.876v2.876l-.959.479c0-1.438-.479-3.355-2.4-3.355h-5.751v18.213c0,2.4.959,2.876,2.876,2.876h.479v.959h-11.5v-.959h.479c1.917,0,2.876,0,2.876-2.876V378.876Z" transform="translate(-107.276 -376)" fill="#fff"/>
        <path id="Path_58" data-name="Path 58" d="M285.1,402.044h-11.5v-1.438h.479c1.917,0,2.4,0,2.876-2.876V379.517h.479V397.73c0,2.876-.959,2.876-2.876,2.876h-.479v.959h5.751a19.661,19.661,0,0,1,5.272.479v-.959h-.479c-1.438,0-2.876-.479-2.876-2.876V380h5.751c2.4,0,2.4,1.917,2.876,3.355l.959-.479V380a3.592,3.592,0,0,1,.479-2.4h-.479c0,.959-.959.959-1.917.959H271.676c-.959,0-1.438,0-1.917-.959h-.479v2.876c0,.959-.479,1.917-.479,2.876h.959c.479-2.4.959-3.355,3.355-2.876h0c-2.4,0-2.4.479-2.876,2.876H268.8c0-.959.479-1.917.479-2.876V377.6h.959c0,.959.959.959,1.917.959h17.734c.959,0,1.438,0,1.917-.959h.959c0,.959-.479,1.917-.479,2.876v2.876h0l-1.438.479h0c0-1.438,0-3.355-2.4-3.355h-5.272v18.213c0,2.4.959,2.876,2.876,2.876h.959l-1.917.479Z" transform="translate(-108.238 -376.641)" fill="#fff"/>
        <path id="Path_59" data-name="Path 59" d="M308,400.927h0c1.917,0,2.876,0,2.876-1.917V381.276c0-1.917-1.438-1.917-2.4-1.917H308V378.4h10.544v.959h-.479c-1.438,0-2.4,0-2.4,1.917v17.734c0,1.917,1.438,1.917,2.4,1.917h.479v.959H308.479v-.959Z" transform="translate(-123.952 -376.962)" fill="#fff"/>
        <path id="Path_60" data-name="Path 60" d="M318.865,401.885v-.959h-.479c-1.438,0-2.876,0-2.876-1.917V381.276c0-1.917,1.438-1.917,2.876-1.917h.479V378.4H308.8v.959h.479c1.438,0,2.876,0,2.876,1.917v17.734c0,1.917-1.438,1.917-2.876,1.917H308.8v.959h10.065m0,.479H308.8v-1.438h.479c1.438,0,2.4,0,2.4-1.917V381.276c0-1.438-.959-1.917-2.4-1.917H308.8V378.4h10.544v.959h-.479c-1.438,0-2.4,0-2.4,1.917v17.734c0,1.438.959,1.917,2.4,1.917h.479l-.479,1.438Z" transform="translate(-124.273 -376.962)" fill="#fff"/>
        <path id="Path_61" data-name="Path 61" d="M340.62,400.606c6.71,0,7.669-5.751,7.669-11.024,0-4.793-2.876-11.024-8.148-11.024-6.231,0-7.669,5.272-7.669,10.065-.479,6.231,2.4,11.982,8.148,11.982m-.479-23.006c7.189,0,12.941,4.314,12.941,11.982a12.6,12.6,0,0,1-12.941,12.941c-7.189,0-12.941-4.793-12.941-12.462,0-7.189,5.751-12.462,12.941-12.462" transform="translate(-131.649 -376.641)" fill="#fff"/>
        <path id="Path_62" data-name="Path 62" d="M331.993,388.3c0-4.793,1.917-10.065,8.148-10.065,5.751,0,8.627,6.231,8.627,11.024s-.959,11.024-8.148,11.024h0c6.71,0,7.669-5.751,7.669-10.544s-2.876-11.024-8.148-11.024c-6.231,0-7.669,5.272-8.148,9.586.479,6.231,2.876,11.982,8.627,11.982h0c-5.751.479-8.627-5.751-8.627-11.982m-4.793,1.438A12.887,12.887,0,0,1,340.141,376.8h0A13.544,13.544,0,0,0,327.2,389.741c.479,7.189,5.751,11.982,12.941,11.982a12.6,12.6,0,0,0,12.941-12.941c0-7.189-5.752-11.5-12.941-11.5h0c7.189,0,13.42,4.793,13.42,11.982,0,8.148-5.751,13.42-12.941,13.42-7.669-.479-13.42-5.272-13.42-12.941" transform="translate(-131.649 -376.321)" fill="#fff"/>
        <path id="Path_63" data-name="Path 63" d="M393.727,394.854h0V381.914c0-2.876-1.917-3.355-2.876-3.355h-.959V377.6H399v.959h-.479c-1.438,0-2.876.479-2.876,4.314v18.692h-1.438l-17.734-19.651v13.9c0,2.876.479,3.834,3.355,3.834h.479v.959h-8.627c2.4,0,2.876-1.438,2.876-4.314V381.914a2.763,2.763,0,0,0-2.876-2.876H371.2v-.959h6.71Z" transform="translate(-149.288 -376.641)" fill="#fff"/>
        <path id="Path_64" data-name="Path 64" d="M394.047,395.175Zm0,0Zm.479,7.189h.959V383.672c0-4.314,1.917-4.314,3.355-4.314h.479V378.4h-8.627v.959h.479a3.19,3.19,0,0,1,3.355,3.355v12.941h0L379.189,378.4h-6.71v.959h.479a3.6,3.6,0,0,1,3.355,3.355v14.379c0,2.876-.959,4.314-3.355,4.314h-.479v.959h8.627v-.959h-.479c-2.876,0-3.355-.959-3.355-4.314V382.714Zm1.438.479h-1.438l-17.254-19.172v13.9c0,2.876.479,3.834,2.876,3.834h.959v.959H372v-1.438h.479c2.4,0,2.876-1.438,2.876-4.314V382.234a2.763,2.763,0,0,0-2.876-2.876H372V378.4h7.189l14.858,16.775V382.714c0-2.876-1.917-2.876-2.876-2.876h-.959v-.959h9.107v.959h-.479c-1.438,0-2.876,0-2.876,4.314v18.692Z" transform="translate(-149.609 -376.962)" fill="#fff"/>
        <path id="Path_65" data-name="Path 65" d="M427.824,381.272h0l-3.355,9.586h6.71Zm-4.793,14.858a6.813,6.813,0,0,0-.959,2.876c0,.959,1.438.959,2.4.959h.479v.959H416.8v-.959h0a3.038,3.038,0,0,0,2.876-2.4l5.272-15.817,1.438-4.314c.959-.479,2.4-.959,3.355-1.438h.479c0,.479,0,.479.479.959l6.231,17.734c.479.959.959,2.4,1.438,3.355.479,1.917,1.438,1.917,2.4,1.917h0v.959H430.7v-.959h.479c.959,0,1.917,0,1.917-.959a20.758,20.758,0,0,1-.479-2.4l-1.438-3.834H423.51Z" transform="translate(-167.569 -376)" fill="#fff"/>
        <path id="Path_66" data-name="Path 66" d="M427.824,381.593Zm-2.876,9.586H430.7l-2.876-9.107Zm-.479,0,3.355-10.065h0l3.355,10.065Zm6.71,10.065h9.586v-.959h0a2.636,2.636,0,0,1-2.4-1.438c-.479-.959-.959-2.4-1.438-3.355L430.7,377.759c0-.479,0-.479-.479-.959h0a15.959,15.959,0,0,1-2.876,1.438c0,1.438-.959,2.876-1.438,4.314l-5.272,15.817a3.54,3.54,0,0,1-2.876,2.4h0v.959h7.189v-.959h0c-.959,0-2.876,0-2.876-1.438a18.846,18.846,0,0,1,.959-2.876h0l.959-3.834h8.148l1.438,3.834a5.211,5.211,0,0,1,.479,2.4c0,.959-1.438.959-2.4.959h0v1.438Zm10.065.479H431.179v-1.438h.479c.959,0,1.917,0,1.917-.959a20.758,20.758,0,0,1-.479-2.4l-1.438-3.834h-7.669l-.959,3.355a8.1,8.1,0,0,0-.959,2.4c0,.959,1.438.959,2.4.959h.479v.959H416.8v-.479h0a3.236,3.236,0,0,0,2.876-1.917l5.272-15.817,1.438-4.314c.959-.479,2.4-.959,3.355-1.438h.959c0,.479,0,.479.479.959l6.231,17.734a23.359,23.359,0,0,0,1.438,3.355c.479.959.959,1.438,1.917,1.438h.479v1.438Z" transform="translate(-167.569 -376.321)" fill="#fff"/>
        <path id="Path_67" data-name="Path 67" d="M466.548,398.689a1.756,1.756,0,0,0,1.917,1.917h4.314a4.035,4.035,0,0,0,3.355-1.917,8.1,8.1,0,0,0,.959-2.4h.959l-1.438,5.752H458.4v-1.438h.479c1.438,0,2.4,0,2.4-2.4V380.476c0-1.917-1.438-1.917-2.4-1.917H458.4V377.6h10.544v.959h-.959c-1.438,0-2.4,0-2.4,1.917v18.213Z" transform="translate(-184.246 -376.641)" fill="#fff"/>
        <path id="Path_68" data-name="Path 68" d="M476.934,401.885c.479-1.917.959-3.834,1.438-5.272h-.479c0,.959-.479,1.438-.959,2.4a4.035,4.035,0,0,1-3.355,1.917h-4.314c-.959,0-2.4-.479-2.4-1.917V381.276c0-1.917.959-1.917,2.4-1.917h.479V378.4H459.2v.959h.479c1.438,0,2.876,0,2.876,1.917v17.734c0,2.4-1.438,2.4-2.876,2.4H459.2v.959h9.107a52.09,52.09,0,0,1,8.627-.479m.479.479H459.2v-1.438h.479c1.438,0,2.4,0,2.4-1.917V381.276c0-1.438-.959-1.917-2.4-1.917H459.2V378.4h10.544v.959h-.959c-1.438,0-2.4,0-2.4,1.917v17.734c0,1.438.959,1.438,1.917,1.917h4.314c1.438,0,2.4-.959,3.355-1.917.479-.959.959-1.438.959-2.4h.959a11.8,11.8,0,0,1-.479,5.751Z" transform="translate(-184.567 -376.962)" fill="#fff"/>
        <path id="Path_69" data-name="Path 69" d="M487.355,380.155h0c.959,0,.959-.479.959-.959a1.673,1.673,0,0,0-.479-.959h-.479v1.917Zm-.959,1.917h0c.479,0,.479,0,.479-.479v-2.876c0-.479,0-.479-.479-.479h1.917c.479,0,1.438.479,1.438.959a1.031,1.031,0,0,1-.959.959l.479.959c.479.479.479.959.959.959h-.479c-.479,0-.479-.479-1.438-1.438h-.479v.959c0,.479,0,0,.479.479H486.4Zm1.438.959a2.876,2.876,0,1,0-2.876-2.876c.479,1.438,1.438,2.876,2.876,2.876m0-6.231a3.78,3.78,0,0,1,3.834,3.834c0,2.4-1.438,3.355-3.834,3.355S484,382.551,484,380.634a4.123,4.123,0,0,1,3.834-3.834" transform="translate(-194.508 -376.321)" fill="#fff"/>
      </g>
      <path id="Path_70" data-name="Path 70" d="M262.194,127.126c0-15.337-6.231-29.237-16.775-40.26A65.985,65.985,0,0,0,210.91,76.8h-27.8c-33.071,0-59.911,24.444-59.911,59.911a59.2,59.2,0,0,0,14.858,38.823,79.883,79.883,0,0,0,33.55,13.42,54.086,54.086,0,0,1-42.657-53.2c0-30.2,24.444-54.639,54.16-54.639a54.615,54.615,0,0,1,54.639,54.639,53.9,53.9,0,0,1-53.2,54.16h2.4C228.165,190.392,262.194,162.114,262.194,127.126Z" transform="translate(-49.389)" fill="#fff"/>
      <path id="Path_71" data-name="Path 71" d="M182.311,76.8c-33.071,0-59.911,24.444-59.911,59.911a56.31,56.31,0,0,0,14.379,37.864l1.438,1.438c9.586,6.71,20.609,11.024,33.071,13.42a54.086,54.086,0,0,1-42.657-53.2c0-30.2,24.444-54.639,54.16-54.639a54.615,54.615,0,0,1,54.639,54.639,53.9,53.9,0,0,1-53.2,54.16h2.4a36.277,36.277,0,0,0,7.189-.479c31.633-7.669,51.763-39.781,46.012-73.811-2.876-15.817-10.544-29.237-21.568-38.823a36.276,36.276,0,0,0-7.189-.479Z" transform="translate(-49.069)" fill="#fff"/>
    </g>
  </g>
</svg>
