<svg xmlns="http://www.w3.org/2000/svg" width="513" height="354.097" viewBox="0 0 513 354.097">
  <g id="discover" transform="translate(80.343 1.343)">
    <path id="Path_27" data-name="Path 27" d="M512,402.281a30.266,30.266,0,0,1-30.265,30.267H30.265A30.265,30.265,0,0,1,0,402.281V109.717A30.266,30.266,0,0,1,30.265,79.451h451.47A30.265,30.265,0,0,1,512,109.717V402.281Z" transform="translate(-79.843 -80.294)" fill="#f3f2f2" stroke="#f26e21" stroke-width="1"/>
    <path id="Path_28" data-name="Path 28" d="M321.045,261.531c0,9.428-10.441,26.351-27.1,27.728l-344.969.343c-5.576,0,181.421-34.139,263.17-83.557,71.589-43.276,108.9-83.936,108.9-79.524v135.01Z" transform="translate(111.112 62.651)" fill="#f26e21"/>
    <circle id="Ellipse_2" data-name="Ellipse 2" cx="23.174" cy="23.174" r="23.174" transform="translate(164.376 142.019)" fill="#f26e21"/>
    <g id="Group_2" data-name="Group 2" transform="translate(39.906 142.253)">
      <path id="Path_12" data-name="Path 12" d="M76.521,225.776c-2.731,2.445-6.254,3.5-11.85,3.5H62.348v-29.1H64.67c5.6,0,8.98.99,11.85,3.559A14.717,14.717,0,0,1,81.3,214.691a15.005,15.005,0,0,1-4.778,11.085ZM66.406,192.734H53.691v43.99H66.342c6.714,0,11.566-1.574,15.824-5.078a22.05,22.05,0,0,0,8.049-16.9c0-12.987-9.784-22.015-23.809-22.015" transform="translate(-53.691 -191.739)" fill="#0b161f"/>
      <path id="Path_13" data-name="Path 13" d="M108.2,236.724h8.644v-43.99H108.2v43.99" transform="translate(-67.686 -191.739)" fill="#0b161f"/>
      <path id="Path_14" data-name="Path 14" d="M142.12,209.356c-5.2-1.911-6.725-3.168-6.725-5.531,0-2.773,2.723-4.884,6.452-4.884,2.595,0,4.72,1.054,6.992,3.554l4.514-5.863a19.473,19.473,0,0,0-13.037-4.884c-7.843,0-13.833,5.409-13.833,12.59,0,6.077,2.789,9.175,10.91,12.084a33.709,33.709,0,0,1,5.985,2.505,5.263,5.263,0,0,1,2.6,4.547c0,3.568-2.861,6.2-6.725,6.2a10.242,10.242,0,0,1-9.444-5.868l-5.579,5.348c3.982,5.8,8.772,8.379,15.362,8.379,8.977,0,15.293-5.946,15.293-14.45,0-7-2.916-10.164-12.762-13.729" transform="translate(-71.801 -191.486)" fill="#0b161f"/>
      <path id="Path_15" data-name="Path 15" d="M169.143,214.405c0,12.943,10.246,22.969,23.417,22.969a24.077,24.077,0,0,0,10.843-2.567V224.7c-3.462,3.435-6.524,4.817-10.449,4.817-8.713,0-14.9-6.269-14.9-15.176,0-8.44,6.385-15.106,14.506-15.106,4.116,0,7.247,1.449,10.843,4.948v-10.1a22.238,22.238,0,0,0-10.648-2.7c-13.1,0-23.611,10.229-23.611,23.01" transform="translate(-83.334 -191.395)" fill="#0b161f"/>
      <path id="Path_16" data-name="Path 16" d="M302.2,222.283,290.36,192.734h-9.444l18.831,45.117h4.65l19.162-45.117h-9.381L302.2,222.283" transform="translate(-112.032 -191.739)" fill="#0b161f"/>
      <path id="Path_17" data-name="Path 17" d="M343.576,236.724h24.54V229.28H352.222V217.394h15.285v-7.445H352.222v-9.765h15.894v-7.45h-24.54v43.99" transform="translate(-128.12 -191.739)" fill="#0b161f"/>
      <path id="Path_18" data-name="Path 18" d="M395.453,212.983h-2.52V199.651h2.656c5.4,0,8.327,2.253,8.327,6.532,0,4.416-2.928,6.8-8.463,6.8Zm17.359-7.267c0-8.24-5.715-12.982-15.7-12.982H384.279v43.99h8.652V219.046h1.135l11.964,17.679h10.643L402.7,218.192c6.529-1.318,10.113-5.742,10.113-12.475" transform="translate(-138.571 -191.739)" fill="#0b161f"/>
    </g>
    <path id="Path_19" data-name="Path 19" d="M138.61,298.384V273.635l16.9,17.679V275.208h3.5v24.584l-16.9-17.637V298.38h-3.5Z" transform="translate(-35.589 -70.257)"/>
    <path id="Path_20" data-name="Path 20" d="M186.312,279.041H177.02v5.568h9.022v3.29H177.02v7.742h9.291v3.287H173.524V275.757h12.788Z" transform="translate(-44.553 -70.802)"/>
    <path id="Path_21" data-name="Path 21" d="M202.461,279.04v19.885h-3.5V279.04h-5.325v-3.287h14.139v3.287Z" transform="translate(-49.717 -70.801)"/>
    <path id="Path_22" data-name="Path 22" d="M218.939,275.368l6.035,15.488,6.307-16.614,6.032,16.614,6.408-15.488h3.8l-10.356,24.643-5.96-16.419-6.213,16.436-9.848-24.659Z" transform="translate(-55.239 -70.413)"/>
    <path id="Path_23" data-name="Path 23" d="M259.607,287.089a11.351,11.351,0,0,1,3.588-8.4,11.809,11.809,0,0,1,8.588-3.513,12.111,12.111,0,0,1,12.047,12.053,11.409,11.409,0,0,1-3.568,8.48,12.244,12.244,0,0,1-16.72.392A11.4,11.4,0,0,1,259.607,287.089Zm3.529.036a8.379,8.379,0,0,0,2.581,6.313A8.56,8.56,0,0,0,277.8,293.4a8.978,8.978,0,0,0,.027-12.415,8.641,8.641,0,0,0-12.2,0A8.323,8.323,0,0,0,263.136,287.126Z" transform="translate(-66.655 -70.652)"/>
    <path id="Path_24" data-name="Path 24" d="M305.965,289.053l7.175,9.875h-4.277l-6.619-9.483h-.631v9.483h-3.5V275.757h4.1q4.6,0,6.636,1.727a6.334,6.334,0,0,1,2.253,5.073,6.56,6.56,0,0,1-1.413,4.23A6.287,6.287,0,0,1,305.965,289.053Zm-4.35-2.656h1.107q4.968,0,4.97-3.8,0-3.559-4.833-3.557h-1.243V286.4Z" transform="translate(-76.542 -70.802)"/>
    <path id="Path_25" data-name="Path 25" d="M326.514,285l9.019-9.244H340.2l-10.476,10.493,10.538,12.679h-4.683l-8.346-10.31-.72.723v9.586h-3.5V275.757h3.5V285Z" transform="translate(-82.936 -70.802)"/>
  </g>
</svg>
