<svg xmlns="http://www.w3.org/2000/svg" xmlns:xlink="http://www.w3.org/1999/xlink" width="50" height="20.82" viewBox="0 0 50 20.82">
  <defs>
    <clipPath id="clip-Sidebar_Component_-_Subscriber_2">
      <rect width="50" height="20.82"/>
    </clipPath>
  </defs>
  <g id="Sidebar_Component_-_Subscriber_2" data-name="Sidebar Component - Subscriber – 2" clip-path="url(#clip-Sidebar_Component_-_Subscriber_2)">
    <rect width="50" height="20.82" fill="rgba(27,28,29,0)"/>
    <g id="Sidebar_Dino" data-name="Sidebar Dino" transform="translate(0 0)">
      <g id="Group_659" data-name="Group 659">
        <path id="Path_443" data-name="Path 443" d="M3153.171,2172.822c-.667-.281-.669-1.617-.625-2.039a1.571,1.571,0,0,1,.029-.171,9.393,9.393,0,0,1-1.621-.836c-.546.686-1.129,1.334-1.4,1.631a8.707,8.707,0,0,1,.5,2.33c.066.844.121,1.23.121,1.23h5.067A10.14,10.14,0,0,0,3153.171,2172.822Z" transform="translate(-3129.516 -2154.15)" fill="#b3b3b3"/>
        <path id="Path_444" data-name="Path 444" d="M3265.982,2194.553c-.422-.219-.467-1.332-.357-2.013l-2.341.049a12.521,12.521,0,0,1-.88,2.3,2.743,2.743,0,0,0-.193,1.389h4.719S3266.524,2194.835,3265.982,2194.553Z" transform="translate(-3234.953 -2175.459)" fill="#b3b3b3"/>
        <path id="Path_445" data-name="Path 445" d="M2885.767,1934.4l-2.372,1.561a3.14,3.14,0,0,0-.394-.815,3.6,3.6,0,0,0-1.636-1.287l2.206-3.118c.15-.212-.171-.517-.375-.356l-3.32,2.616c-.041-.032-.083-.064-.123-.1a12.453,12.453,0,0,1-1.3-1.276l3-3.551c.168-.2-.126-.53-.344-.387l-3.7,2.437a13.8,13.8,0,0,1-1.284-4.862h-.077a7.774,7.774,0,0,0-4.7,4.716c-.489,1.891-.765,4.158-.365,4.607.693.78,3.974,1,5.209,1.079l.35.024a.44.44,0,0,1-.031.879h-.031l-.346-.023c-2.359-.156-4.948-.4-5.808-1.373-.224-.252-.863-1.373.14-5.292a15.605,15.605,0,0,0-6.294-2.392c-6.361-.619-10.913,1.674-13.517,5.3a74.561,74.561,0,0,1-4.893,6.208,6.613,6.613,0,0,1-4.7,2.356c-1.392.077-4.313.415-4.564-1.741v-.077c-1.9,2.545,2.16,3.931,4.487,3.79,4.978-.3,7.679-2.908,9.469-3.84,0-.007,0-.013,0-.019.011-.106.266-2.607.435-3.341a6.077,6.077,0,0,1,.622-1.483.44.44,0,0,1,.757.45,5.266,5.266,0,0,0-.521,1.232c-.12.519-.3,2.111-.377,2.849h.006c-.008.051-.014.1-.022.156-.015.138-.023.223-.024.228a.421.421,0,0,1-.024.1c-.046.329-.087.662-.117,1.005a24.574,24.574,0,0,1-.591,4.034,2.742,2.742,0,0,0-.194,1.389h5.009s0-1.473-.542-1.754-.29-1.253-.058-1.675a6.512,6.512,0,0,1,.436-.566,21.717,21.717,0,0,0,2.426-3.059,5.224,5.224,0,0,0,.829-3.021.44.44,0,0,1,.88,0,6.072,6.072,0,0,1-.931,3.433,7.021,7.021,0,0,1-.474.746,8.609,8.609,0,0,0,1.409.721,16.932,16.932,0,0,0,4.193.626.427.427,0,0,1,.056,0l2.72-.057a7.206,7.206,0,0,1-.534-2.389.44.44,0,0,1,.876.08,7.706,7.706,0,0,0,.588,2.29h0l0,0a25.314,25.314,0,0,0,2,2.838,4.5,4.5,0,0,1,.757,1.793h5.241s-.464-1.389-1.006-1.67a12.534,12.534,0,0,1-2.3-1.652,3.686,3.686,0,0,1-.681-1.755,4.06,4.06,0,0,1,.35-2.658.44.44,0,0,1,.778.411,3.6,3.6,0,0,0-.352,1.389c1.08-.6,2.052-1.376,3.34-1.131,1.779.309,2.166,1.238,4.022.541a3.208,3.208,0,0,1,2.4-.155c.7.232,1.315.774,2.166.387a3.206,3.206,0,0,0,.615-1.812,3.067,3.067,0,0,0,.777-.044c-.3-.546-.844-.712-1.324-1.056l1.9-2.246C2886.07,1934.516,2885.9,1934.32,2885.767,1934.4ZM2867.4,1936.3h-2.245v2.245h-2.772V1936.3h-2.246v-2.772h2.246v-2.246h2.772v2.246h2.245Zm13.807-.935c-.1.268-.58.334-1.063.148s-.793-.555-.689-.823.58-.334,1.064-.148S2881.313,1935.093,2881.21,1935.362Z" transform="translate(-2836 -1925.269)" fill="#b3b3b3"/>
      </g>
    </g>
  </g>
</svg>
