<svg xmlns="http://www.w3.org/2000/svg" xmlns:xlink="http://www.w3.org/1999/xlink" width="35" height="35" viewBox="0 0 35 35">
  <defs>
    <clipPath id="clip-Examiner_Appointment_-Calender_view_2">
      <rect width="35" height="35"/>
    </clipPath>
  </defs>
  <g id="Examiner_Appointment_-Calender_view_2" data-name="Examiner Appointment -Calender view – 2" clip-path="url(#clip-Examiner_Appointment_-Calender_view_2)">
    <rect width="35" height="35" fill="rgba(224,232,243,0)"/>
    <path id="Path_489" data-name="Path 489" d="M16.633,33.272q-.637,0-1.275-.049a16.633,16.633,0,1,1,14.8-6.891.65.65,0,0,1-1.055-.759A15.337,15.337,0,1,0,25.575,29.1a.65.65,0,1,1,.759,1.056A16.635,16.635,0,0,1,16.633,33.272Zm0,0" transform="translate(1.339 1.34)" fill="#f36"/>
    <path id="times" d="M8.7,86.307l3.586-3.586a1.127,1.127,0,0,0,0-1.594l-.8-.8a1.127,1.127,0,0,0-1.594,0L6.307,83.916,2.721,80.33a1.127,1.127,0,0,0-1.594,0l-.8.8a1.127,1.127,0,0,0,0,1.594l3.586,3.586L.33,89.893a1.127,1.127,0,0,0,0,1.594l.8.8a1.127,1.127,0,0,0,1.594,0L6.307,88.7l3.586,3.586a1.127,1.127,0,0,0,1.594,0l.8-.8a1.127,1.127,0,0,0,0-1.594Z" transform="translate(12.268 -68.241)" fill="#f36"/>
  </g>
</svg>
