<svg xmlns="http://www.w3.org/2000/svg" xmlns:xlink="http://www.w3.org/1999/xlink" width="35" height="35" viewBox="0 0 35 35">
  <defs>
    <clipPath id="clip-Examiner_Appointment_-Calender_view_2">
      <rect width="35" height="35"/>
    </clipPath>
  </defs>
  <g id="Examiner_Appointment_-Calender_view_2" data-name="Examiner Appointment -Calender view – 2" clip-path="url(#clip-Examiner_Appointment_-Calender_view_2)">
    <rect width="35" height="35" fill="rgba(224,232,243,0)"/>
    <path id="Path_1035" data-name="Path 1035" d="M16.776,33.559q-.642,0-1.286-.049a16.776,16.776,0,1,1,14.928-6.95.655.655,0,0,1-1.064-.765A15.469,15.469,0,1,0,25.8,29.353a.655.655,0,0,1,.765,1.065A16.778,16.778,0,0,1,16.776,33.559Zm0,0" transform="translate(1 1)" fill="#ce9e00"/>
    <path id="microphone-alt-slash" d="M16.37,11.832,12.3,8.687a4.5,4.5,0,0,0,.51-2.075V5.373A.413.413,0,0,0,12.4,4.96h-.413a.413.413,0,0,0-.413.413v1.24a3.212,3.212,0,0,1-.277,1.3l-.686-.53a2.431,2.431,0,0,0,.136-.766H9.617L8.548,5.786h2.2V4.96h-2.2c-.152,0-.276-.092-.276-.207V4.34c0-.114.123-.207.276-.207h2.2V3.307h-2.2c-.152,0-.276-.092-.276-.207V2.687c0-.114.123-.207.276-.207h2.2a2.479,2.479,0,0,0-4.959,0V3.652L1.175.088A.413.413,0,0,0,.6.16L.088.813a.413.413,0,0,0,.073.58l15.2,11.744a.413.413,0,0,0,.58-.073l.507-.653A.413.413,0,0,0,16.37,11.832Zm-6.039.152H8.885v-.872a4.538,4.538,0,0,0,.877-.209L8.461,9.9a3.33,3.33,0,0,1-.526.005,3.345,3.345,0,0,1-2.871-2.63L3.72,6.233V6.41A4.688,4.688,0,0,0,7.646,11.1v.882H6.2a.413.413,0,0,0-.413.413v.413a.413.413,0,0,0,.413.413h4.132a.413.413,0,0,0,.413-.413V12.4A.413.413,0,0,0,10.331,11.984Z" transform="translate(9.582 11.297)" fill="#da0"/>
  </g>
</svg>
