<svg xmlns="http://www.w3.org/2000/svg" xmlns:xlink="http://www.w3.org/1999/xlink" width="62" height="41" viewBox="0 0 62 41">
  <defs>
    <clipPath id="clip-Web_1920_1">
      <rect width="62" height="41"/>
    </clipPath>
  </defs>
  <g id="Web_1920_1" data-name="Web 1920 – 1" clip-path="url(#clip-Web_1920_1)">
    <rect width="62" height="41" fill="rgba(255,255,255,0)"/>
    <g id="triceratops" transform="translate(-7.913 3)">
      <g id="Layer_2" transform="translate(7.913)">
        <path id="Path_1" data-name="Path 1" d="M422.573,231.319a14.767,14.767,0,1,1-14.767-14.767A14.767,14.767,0,0,1,422.573,231.319Z" transform="translate(-376.957 -216.552)" fill="#ffc717"/>
        <ellipse id="Ellipse_1" data-name="Ellipse 1" cx="18.454" cy="2.061" rx="18.454" ry="2.061" transform="translate(13.468 30.879)" fill="#d1d3d4"/>
        <g id="Group_4" data-name="Group 4" transform="translate(23.986 23.553)">
          <g id="Group_2" data-name="Group 2" transform="translate(9.584 2.604)">
            <path id="Path_11" data-name="Path 11" d="M524.3,411.044c-.659-.342-.564-2.479-.282-2.992.182-.324,1.309-.99,2.509-2.043a17.026,17.026,0,0,1-1.77.354,32.392,32.392,0,0,1-3.626.337,3.66,3.66,0,0,0-.108,1.61c.1.855-.7,2.115-1.071,3.141a3.328,3.328,0,0,0-.235,1.688h5.739S524.961,411.385,524.3,411.044Z" transform="translate(-519.694 -406.009)" fill="#c2731e"/>
          </g>
          <g id="Group_3" data-name="Group 3" transform="translate(0 0)">
            <path id="Path_12" data-name="Path 12" d="M455.349,394.275c-.811-.342-.814-1.966-.76-2.479a6.174,6.174,0,0,1,1.287-2.642,12.359,12.359,0,0,1-1.2-.506,16.755,16.755,0,0,0-2.544-1.19,9.422,9.422,0,0,0-1.71-.309,4.441,4.441,0,0,1-.076,2,2.932,2.932,0,0,0,.373,2.906,9.148,9.148,0,0,1,.833,3.333c.08,1.026.148,1.5.148,1.5h6.159S456.16,394.618,455.349,394.275Z" transform="translate(-450.12 -387.15)" fill="#c2731e"/>
          </g>
        </g>
        <path id="Path_13" data-name="Path 13" d="M340.374,285.464l-2.882,1.9a3.837,3.837,0,0,0-.479-.99,4.372,4.372,0,0,0-1.989-1.565l2.682-3.79c.182-.258-.208-.629-.456-.433l-4.037,3.18c-.05-.039-.1-.077-.149-.119a15.157,15.157,0,0,1-1.583-1.549l3.644-4.317c.2-.241-.153-.644-.417-.47l-4.5,2.963a16.779,16.779,0,0,1-1.561-5.91h-.091a9.4,9.4,0,0,0-5.844,6.143c-.175-.091-.329-.172-.456-.243-1.88-1.129-4.8-2.873-8.136-3.2-7.733-.752-13.266,2.035-16.431,6.441a90.666,90.666,0,0,1-5.948,7.546c-1.693,1.693-3.268,2.769-5.713,2.863-1.693.091-5.243.5-5.549-2.116v-.091c-2.31,3.1,2.626,4.779,5.454,4.608,6.867-.414,10.17-4.441,12.333-5,.1-.018.2-.033.3-.046-.091.581-.173,1.184-.228,1.811a29.892,29.892,0,0,1-.719,4.9,3.329,3.329,0,0,0-.235,1.688h6.089s0-1.791-.659-2.133-.353-1.523-.07-2.036c.258-.468,1.788-.939,3.233-2.841a22.71,22.71,0,0,0,9.339,1.457c.756-.033,1.631-.091,2.537-.19a30.261,30.261,0,0,0,2.5,3.558,5.466,5.466,0,0,1,.92,2.18h6.365s-.564-1.688-1.223-2.03a15.209,15.209,0,0,1-2.79-2,4.935,4.935,0,0,1-.892-2.694c1.759-.67,3.115-2.231,5.069-1.858,2.163.376,2.633,1.5,4.89.659a3.9,3.9,0,0,1,2.915-.189c.846.282,1.6.94,2.633.47a3.9,3.9,0,0,0,.747-2.2,3.728,3.728,0,0,0,.945-.054c-.364-.663-1.026-.865-1.61-1.284l2.3-2.733C340.742,285.6,340.531,285.36,340.374,285.464Z" transform="translate(-279.418 -266.377)" fill="#f0871e"/>
        <path id="Path_14" data-name="Path 14" d="M336.314,285.151l.915-1.085c.432-.511,1.249-1.093.9-1.822-.373-.78-1.395.113-1.764.357l-1.449.954c-.26-.342-.516-.684-.793-1.007a4.3,4.3,0,0,0-1.275-.942l1.913-2.709c.339-.479.958-1.23.226-1.706-.756-.493-1.48.428-2.031.862l-2.535,2-.08.063c-.159-.129-.317-.265-.473-.411-.222-.207-.435-.424-.638-.647l1.608-1.9,1.561-1.85c.321-.381.5-.718.216-1.184a.789.789,0,0,0-1.045-.253l-2.022,1.331-2.041,1.344c-.1-.213-.2-.43-.284-.653a21.079,21.079,0,0,1-1-4.68.479.479,0,0,0-.466-.354,5.682,5.682,0,0,0-2.824,1.184,8.74,8.74,0,0,0-2.151,2.215,11.289,11.289,0,0,0-1.3,2.506c-1.035-.567-2.033-1.193-3.105-1.7a18.977,18.977,0,0,0-10.823-1.392,17.023,17.023,0,0,0-7.956,3.242c-2.627,2-4.311,4.905-6.325,7.465-1.913,2.435-3.978,5.334-7.217,5.944a14.028,14.028,0,0,1-3.644.132c-1-.086-2.35-.541-2.35-1.767a.487.487,0,0,0-.9-.244,2.642,2.642,0,0,0-.264,3.063,5.193,5.193,0,0,0,2.872,1.84c2.866.922,6.1.282,8.827-.8,2.218-.883,4.044-2.337,6.12-3.462.014.261.034.524.063.787a13.474,13.474,0,0,1-.213,3.612c-.177,1.085-.76,2.186-.547,3.3a.482.482,0,0,0,.466.354h6.089a.487.487,0,0,0,.483-.483,6.749,6.749,0,0,0-.14-1.275,2.633,2.633,0,0,0-.341-.873c-.163-.262-.532-.377-.568-.7a1.64,1.64,0,0,1,.793-1.529c.7,1.366.618,3.027.825,4.507a.479.479,0,0,0,.466.354h6.159c.334,0,.646-.424.417-.729a8.8,8.8,0,0,0-2.685-2.78c-.626-.328-.575-1.458-.52-2.062a2.408,2.408,0,0,1,.163-.654,23.848,23.848,0,0,0,3.086.58,20.161,20.161,0,0,0,2.222.128c0,.118.01.236.017.358a4.73,4.73,0,0,1-.7,1.988,4.8,4.8,0,0,0-.6,2.815.482.482,0,0,0,.465.354h5.739a.487.487,0,0,0,.465-.612,4.062,4.062,0,0,0-1.374-2.383c-.5-.329-.263-1.822-.124-2.293a.4.4,0,0,1,.06-.114c1.027,1.64,2.675,3.085,3.021,5.047a.481.481,0,0,0,.466.354h6.371a.486.486,0,0,0,.466-.612,5.419,5.419,0,0,0-1.152-2.1,6.343,6.343,0,0,0-1.087-.7c-.479-.31-.948-.638-1.4-.994a3.586,3.586,0,0,1-1.226-2.528c1.239-.609,2.373-1.569,3.746-1.708,1.513-.153,2.794,1,4.29,1.014a8.8,8.8,0,0,0,2.4-.592,3.95,3.95,0,0,1,2.688.456,2.683,2.683,0,0,0,1.795.182,1.3,1.3,0,0,0,1.107-.849c.182-.328.413-1.366.792-1.5a.49.49,0,0,0,.289-.71A6.717,6.717,0,0,0,336.314,285.151Zm-2.668-6.414.128-.1-1.24,1.751-.554.782c-.288-.148-.562-.3-.825-.47ZM305.5,294.454a5.568,5.568,0,0,1,1.8,1.706h-4.78a19.318,19.318,0,0,0-.629-3.785,5.563,5.563,0,0,0-.28-.653,5.675,5.675,0,0,0,.517-.372,8.424,8.424,0,0,0,1.13-1.149l.257.086q.6.2,1.211.373a3.827,3.827,0,0,0-.231.984c-.082.918.056,2.219.911,2.753a.521.521,0,0,0,.1.058Zm9.709,1.706h-4.646a7.569,7.569,0,0,1,.885-2.5,5.255,5.255,0,0,0,.448-1.4,4.065,4.065,0,0,0,.026-.661c.677-.02,1.353-.062,2.028-.117a1.868,1.868,0,0,0-.134.423c-.182.922-.252,2.472.647,3.062a2.235,2.235,0,0,1,.748,1.194Zm-.568-4.737.057-.005.014.024Zm20.937-4.655a2.815,2.815,0,0,1-.554,1.846l-.04.021c-.007-.1-.34.038-.464.038a1.909,1.909,0,0,1-.612-.163c-.364-.132-.7-.319-1.066-.455a4.061,4.061,0,0,0-2.512-.024,5.413,5.413,0,0,1-2.446.461,16.288,16.288,0,0,1-2.013-.708,5.211,5.211,0,0,0-4.531.8,11.447,11.447,0,0,1-1.042.547,3.144,3.144,0,0,1,.757-2.212c.456-.43-.232-1.112-.683-.683-1.557,1.48-1.267,4.716-.223,6.389a7.751,7.751,0,0,0,2.471,2.016,2.97,2.97,0,0,1,1.126.943,5.023,5.023,0,0,1,.3.58H318.76c-.422-1.646-1.657-2.865-2.6-4.249a9.035,9.035,0,0,1-1.294-2.337c-.086-.284-.132-.578-.225-.864a2.758,2.758,0,0,1-.273-1.319c.136-.608-.8-.865-.932-.257a5.316,5.316,0,0,0,.437,2.4,5.583,5.583,0,0,0,.358,1.008c-1.184.091-2.376.11-3.525.1a21.052,21.052,0,0,1-5.408-.82c-.486-.135-.968-.286-1.448-.442a12.249,12.249,0,0,0,1.862-6.006c.03-.623-.936-.62-.966,0a10.059,10.059,0,0,1-4.1,7.885,6.569,6.569,0,0,0-1.078.78,2.649,2.649,0,0,0-.529,1.754,1.51,1.51,0,0,0,.242.782c.166.263.462.337.584.638a3.187,3.187,0,0,1,.2.948h-5.13a4.813,4.813,0,0,1,.246-1.077,9.547,9.547,0,0,0,.342-1.519,16.085,16.085,0,0,0,.273-3.265,14.174,14.174,0,0,1,.114-4.24,6.832,6.832,0,0,1,1.478-2.767c.4-.471-.278-1.158-.683-.683a8.5,8.5,0,0,0-2,5.416,6.388,6.388,0,0,0-.82.407,54.482,54.482,0,0,1-5.169,3.013,13.452,13.452,0,0,1-7.775,1.2,6.1,6.1,0,0,1-2.88-1.261,1.482,1.482,0,0,1-.558-1.3c.958,1.358,3.376,1.42,4.908,1.334a9.519,9.519,0,0,0,4.177-.987,13.189,13.189,0,0,0,3.594-3.21c1.206-1.414,2.347-2.884,3.462-4.373a34.175,34.175,0,0,1,3.24-4.066A15.717,15.717,0,0,1,305,274.732a18.027,18.027,0,0,1,11.079,1.255c1.066.5,2.052,1.139,3.083,1.7a16.472,16.472,0,0,0-.483,2.173c-.166,1.072-.455,2.66.11,3.669.519.928,1.857,1.284,2.8,1.519a22.576,22.576,0,0,0,4.851.547.484.484,0,0,0,0-.966,24.47,24.47,0,0,1-4.2-.422c-.852-.171-2.2-.42-2.664-1.256a4.487,4.487,0,0,1-.1-1.01,12.116,12.116,0,0,1,.173-2.055,13.119,13.119,0,0,1,1.724-4.788,8.189,8.189,0,0,1,1.788-2.037,5.971,5.971,0,0,1,2.173-1.184,20.9,20.9,0,0,0,.948,4.276,9.392,9.392,0,0,0,.4.933l-1.413.93c-.518.341-.035,1.178.487.834l5.365-3.532-.456.541-1.215,1.439-2.43,2.878c-.4.473.281,1.16.683.683l.886-1.049.015.016a10.508,10.508,0,0,0,1.974,1.7c.712.455,1.515.75,2.232,1.2a5.256,5.256,0,0,1,1.305,1.356l-.613.4c-.518.341-.035,1.178.487.834l1.754-1.154.3-.2-.018.021-1.523,1.8c-.4.473.281,1.16.683.683l.514-.608a7.932,7.932,0,0,1,.629.711,1.81,1.81,0,0,1-.753.187Zm-3.949-2.695c-.1.254-.547.318-1.009.14s-.752-.527-.654-.782.547-.318,1.009-.14.752.527.653.782Z" transform="translate(-276.531 -263.357)" fill="#754c29"/>
      </g>
    </g>
  </g>
</svg>
