<svg xmlns="http://www.w3.org/2000/svg" xmlns:xlink="http://www.w3.org/1999/xlink" width="66" height="66" viewBox="0 0 66 66">
  <defs>
    <linearGradient id="linear-gradient" x1="0.153" y1="-0.084" x2="0.601" y2="0.388" gradientUnits="objectBoundingBox">
      <stop offset="0" stop-color="#3c3cfa"/>
      <stop offset="1" stop-color="#6464fa"/>
    </linearGradient>
    <clipPath id="clip-custom_1">
      <rect width="66" height="66"/>
    </clipPath>
  </defs>
  <g id="custom_1" data-name="custom – 1" clip-path="url(#clip-custom_1)">
    <rect width="66" height="66" fill="rgba(255,255,255,0)"/>
    <g id="Group_1" data-name="Group 1" transform="translate(2 5)">
      <path id="svg_2" d="M63.147,15.8,53.381,8.332l-.575-.575L45.912,2.587A1.055,1.055,0,0,0,45.05,2.3H19.772a1.055,1.055,0,0,0-.862.287L1.675,15.8A1.492,1.492,0,0,0,1.1,16.95,1.727,1.727,0,0,0,1.387,18.1L31.262,57.453a1.747,1.747,0,0,0,2.3,0L63.434,17.812c.287-.287.287-.575.287-1.149C63.722,16.376,63.434,16.088,63.147,15.8ZM16.612,8.045l3.16-2.3a1.055,1.055,0,0,1,.862-.287H44.188a1.055,1.055,0,0,1,.862.287l3.16,2.585a1.436,1.436,0,0,1,0,2.3L43.9,13.5a1.055,1.055,0,0,1-.862.287h0l-20.4-.287a1.055,1.055,0,0,1-.862-.287L16.9,10.343c-.575-.287-.575-.575-.862-1.149A1.492,1.492,0,0,1,16.612,8.045Zm-4.6,18.1h0a1.492,1.492,0,0,1-1.149-.575L5.409,18.386c-.287-.287-.575-.575-.287-1.149,0-.287.287-.575.575-.862l6.32-4.883a1.831,1.831,0,0,1,1.724,0l5.171,3.16c.287.287.575.575.575.862a1.727,1.727,0,0,1-.287,1.149l-6.032,8.9a2.178,2.178,0,0,1-1.149.575Zm37.056,6.032L33.56,52.57a1.436,1.436,0,0,1-2.3,0L15.75,32.175a1.282,1.282,0,0,1,0-1.436,1.539,1.539,0,0,1,1.149-.862H48.21c.575,0,1.149.287,1.149.862C49.646,31.026,49.359,31.6,49.072,32.175Zm.287-6.032A1.539,1.539,0,0,1,48.21,27H18.335c-.575,0-1.149-.287-1.149-.862s-.287-1.149,0-1.436l5.171-7.756a1.492,1.492,0,0,1,1.149-.575h0l19.246.287a1.492,1.492,0,0,1,1.149.575l5.458,7.469A1.282,1.282,0,0,1,49.359,26.142Zm10.054-7.756-4.6,6.032a1.492,1.492,0,0,1-1.149.575h0a1.492,1.492,0,0,1-1.149-.575l-5.745-8.043a1.419,1.419,0,0,1,.287-2.011l4.022-2.873a1.831,1.831,0,0,1,1.724,0l6.32,4.883c.287.287.575.575.575.862C59.987,17.812,59.7,18.1,59.413,18.386Z" transform="translate(-1.1 -2.3)" fill="url(#linear-gradient)"/>
    </g>
  </g>
</svg>
