<svg xmlns="http://www.w3.org/2000/svg" xmlns:xlink="http://www.w3.org/1999/xlink" width="40" height="40" viewBox="0 0 40 40">
  <defs>
    <clipPath id="clip-custom_1">
      <rect width="40" height="40"/>
    </clipPath>
  </defs>
  <g id="custom_1" data-name="custom – 1" clip-path="url(#clip-custom_1)">
    <rect width="40" height="40" fill="rgba(255,255,255,0)"/>
    <g id="white-diamond" transform="translate(12.919 14.772)">
      <g id="Group_17" data-name="Group 17" transform="translate(2.211 0.985)">
        <rect id="canvas_background" width="18" height="16" transform="translate(0.121 0.218)" fill="none"/>
      </g>
      <g id="Group_18" data-name="Group 18" transform="translate(-9.919 -9.772)">
        <path id="svg_2" d="M35.037,9.684,29.695,5.6l-.314-.314L25.61,2.457a.577.577,0,0,0-.471-.157H11.312a.577.577,0,0,0-.471.157L1.414,9.684a.816.816,0,0,0-.314.628.945.945,0,0,0,.157.628L17.6,32.466a.956.956,0,0,0,1.257,0l16.34-21.682c.157-.157.157-.314.157-.628C35.351,10,35.194,9.841,35.037,9.684ZM9.584,5.442l1.728-1.257a.577.577,0,0,1,.471-.157H24.667a.577.577,0,0,1,.471.157L26.867,5.6a.786.786,0,0,1,0,1.257L24.51,8.427a.577.577,0,0,1-.471.157h0L12.884,8.427a.577.577,0,0,1-.471-.157L9.741,6.7c-.314-.157-.314-.314-.471-.628A.816.816,0,0,1,9.584,5.442ZM7.07,15.34h0a.816.816,0,0,1-.628-.314L3.457,11.1c-.157-.157-.314-.314-.157-.628,0-.157.157-.314.314-.471L7.07,7.328a1,1,0,0,1,.943,0l2.828,1.728c.157.157.314.314.314.471a.945.945,0,0,1-.157.628L7.7,15.026a1.191,1.191,0,0,1-.628.314Zm20.268,3.3L18.854,29.8a.786.786,0,0,1-1.257,0L9.113,18.64a.7.7,0,0,1,0-.786.842.842,0,0,1,.628-.471H26.867c.314,0,.628.157.628.471C27.652,18.011,27.5,18.326,27.338,18.64Zm.157-3.3a.842.842,0,0,1-.628.471H10.527c-.314,0-.628-.157-.628-.471s-.157-.628,0-.786l2.828-4.242A.816.816,0,0,1,13.355,10h0l10.527.157a.816.816,0,0,1,.628.314L27.5,14.555A.7.7,0,0,1,27.5,15.34Zm5.5-4.242L30.48,14.4a.816.816,0,0,1-.628.314h0a.816.816,0,0,1-.628-.314L26.081,10a.776.776,0,0,1,.157-1.1l2.2-1.571a1,1,0,0,1,.943,0L32.837,10c.157.157.314.314.314.471C33.308,10.784,33.151,10.941,32.994,11.1Z" transform="translate(-1.1 -2.3)" fill="#fff" stroke="#fff" stroke-width="1"/>
      </g>
    </g>
  </g>
</svg>
