<svg xmlns="http://www.w3.org/2000/svg" width="512" height="353.097" viewBox="0 0 512 353.097">
  <g id="master-card" transform="translate(0 -79.451)">
    <path id="Path_1" data-name="Path 1" d="M512,402.281a30.266,30.266,0,0,1-30.265,30.267H30.265A30.265,30.265,0,0,1,0,402.281V109.717A30.266,30.266,0,0,1,30.265,79.451h451.47A30.265,30.265,0,0,1,512,109.717V402.281Z" fill="#1f1f1f"/>
    <g id="mastercard" transform="translate(65.989 38.445)">
      <path id="Path_86" data-name="Path 86" d="M434.413,217.206A116.313,116.313,0,0,1,318.006,333.613c-64.054,0-116.406-52.352-116.406-116.406h0c0-64.054,51.736-116.406,115.791-116.406A116.447,116.447,0,0,1,434.413,217.206Z" transform="translate(-46.391 0)" fill="#ffb600"/>
      <path id="Path_87" data-name="Path 87" d="M318.006,100.8c64.054,0,116.406,52.352,116.406,116.406h0A116.313,116.313,0,0,1,318.006,333.613c-64.054,0-116.406-52.352-116.406-116.406" transform="translate(-46.391 0)" fill="#f7981d"/>
      <path id="Path_88" data-name="Path 88" d="M352.8,100.8c64.054,0,116.406,52.352,116.406,116.406h0A116.313,116.313,0,0,1,352.8,333.613" transform="translate(-81.185 0)" fill="#ff8500"/>
      <path id="Path_89" data-name="Path 89" d="M115.175,100.8a116.41,116.41,0,0,0,1.232,232.813c30.179,0,57.279-11.7,78.22-30.179h0a110.675,110.675,0,0,0,11.7-12.318h-24.02a142.082,142.082,0,0,1-8.623-11.7h41.266a78.9,78.9,0,0,0,6.775-12.318H166.911a73.407,73.407,0,0,1-4.927-12.318h64.054a122.3,122.3,0,0,0,6.159-36.954c0-8.623-1.232-16.63-2.464-24.636H158.288a90.044,90.044,0,0,1,3.08-12.318h64.054a73.407,73.407,0,0,0-4.927-12.318h-54.2c1.848-4.311,4.311-8.007,6.775-12.318h41.266a58.571,58.571,0,0,0-9.239-12.318H182.308a104.977,104.977,0,0,1,11.7-11.7c-20.325-19.093-48.041-30.179-78.22-30.179C115.791,100.8,115.791,100.8,115.175,100.8Z" transform="translate(0 0)" fill="#ff5050"/>
      <path id="Path_90" data-name="Path 90" d="M0,217.575A116.313,116.313,0,0,0,116.406,333.981c30.179,0,57.279-11.7,78.22-30.179h0a110.675,110.675,0,0,0,11.7-12.318h-24.02a142.082,142.082,0,0,1-8.623-11.7h41.266a78.9,78.9,0,0,0,6.775-12.318H166.911a73.407,73.407,0,0,1-4.927-12.318h64.054a122.3,122.3,0,0,0,6.159-36.954c0-8.623-1.232-16.63-2.464-24.636H158.288a90.044,90.044,0,0,1,3.08-12.318h64.054a73.407,73.407,0,0,0-4.927-12.318h-54.2c1.848-4.311,4.311-8.007,6.775-12.318h41.266a58.571,58.571,0,0,0-9.239-12.318H182.308a104.977,104.977,0,0,1,11.7-11.7c-20.325-19.093-48.041-30.179-78.22-30.179h-.616" transform="translate(0 -0.368)" fill="#e52836"/>
      <path id="Path_91" data-name="Path 91" d="M150.832,333.981c30.179,0,57.279-11.7,78.22-30.179h0a110.675,110.675,0,0,0,11.7-12.318h-24.02a142.082,142.082,0,0,1-8.623-11.7h41.266a78.9,78.9,0,0,0,6.775-12.318H201.336a73.407,73.407,0,0,1-4.927-12.318h64.054a122.3,122.3,0,0,0,6.159-36.954c0-8.623-1.232-16.63-2.464-24.636H192.713a90.044,90.044,0,0,1,3.08-12.318h64.054a73.407,73.407,0,0,0-4.927-12.318h-54.2c1.848-4.311,4.311-8.007,6.775-12.318h41.266a58.571,58.571,0,0,0-9.239-12.318H216.734a104.977,104.977,0,0,1,11.7-11.7C208.111,113.486,180.4,102.4,150.216,102.4H149.6" transform="translate(-34.425 -0.368)" fill="#cb2026"/>
      <g id="Group_7" data-name="Group 7" transform="translate(11.086 187.027)">
        <path id="Path_92" data-name="Path 92" d="M199.461,274.2l1.848-10.47a26.677,26.677,0,0,1-3.08.616c-4.311,0-4.927-2.464-4.311-3.7l3.7-21.557h6.775l1.848-11.7h-6.159L201.309,220H188.991s-7.391,40.65-7.391,45.577c0,7.391,4.311,10.47,9.855,10.47A18.906,18.906,0,0,0,199.461,274.2Z" transform="translate(-52.875 -214.457)" fill="#fff"/>
        <path id="Path_93" data-name="Path 93" d="M210.4,256.492c0,17.245,11.7,21.557,21.557,21.557,9.239,0,12.934-1.848,12.934-1.848l2.464-11.7s-6.775,3.08-12.934,3.08c-13.55,0-11.086-9.854-11.086-9.854h25.252s1.848-8.007,1.848-11.086c0-8.007-4.311-17.861-17.861-17.861C219.639,227.545,210.4,241.095,210.4,256.492Zm21.557-17.861c6.775,0,5.543,8.007,5.543,8.623H223.95C223.95,246.638,225.182,238.631,231.957,238.631Z" transform="translate(-59.503 -216.459)" fill="#fff"/>
        <path id="Path_94" data-name="Path 94" d="M329.875,272.543l2.464-13.55s-6.159,3.08-10.47,3.08c-8.623,0-12.318-6.775-12.318-14.166,0-14.782,7.391-22.789,16.014-22.789a20.567,20.567,0,0,1,11.086,3.7L338.5,215.88s-7.391-3.08-14.166-3.08C310.166,212.8,296,225.118,296,248.523c0,15.4,7.391,25.868,22.173,25.868A55.276,55.276,0,0,0,329.875,272.543Z" transform="translate(-79.201 -212.8)" fill="#fff"/>
        <path id="Path_95" data-name="Path 95" d="M109.8,227.2a43.621,43.621,0,0,0-14.782,2.464l-1.848,10.47a36.406,36.406,0,0,1,13.55-2.464c4.311,0,8.007.616,8.007,4.311,0,2.464-.616,3.08-.616,3.08h-5.543c-10.47,0-22.173,4.311-22.173,18.477,0,11.086,7.391,13.55,11.7,13.55,8.623,0,12.318-5.543,12.934-5.543l-.616,4.927h11.086l4.927-33.875C126.434,227.816,114.116,227.2,109.8,227.2Zm2.464,27.716c0,1.848-1.232,11.7-8.623,11.7a4.808,4.808,0,0,1-4.927-4.927c0-3.08,1.848-7.391,11.086-7.391A9.712,9.712,0,0,0,112.268,254.916Z" transform="translate(-30.968 -216.114)" fill="#fff"/>
        <path id="Path_96" data-name="Path 96" d="M149.366,276.9c3.08,0,18.477.616,18.477-16.014,0-15.4-14.782-12.318-14.782-18.477,0-3.08,2.464-4.311,6.775-4.311,1.848,0,8.623.616,8.623.616l1.848-11.086a46.784,46.784,0,0,0-11.7-1.232c-9.239,0-18.477,3.7-18.477,16.014,0,14.166,15.4,12.934,15.4,18.477,0,3.7-4.311,4.311-7.391,4.311a40.278,40.278,0,0,1-11.086-1.848L135.2,274.441C135.816,275.673,138.9,276.9,149.366,276.9Z" transform="translate(-42.198 -215.93)" fill="#fff"/>
        <path id="Path_97" data-name="Path 97" d="M462.307,214.4l-2.464,16.629s-4.927-6.159-11.7-6.159c-11.086,0-20.941,13.55-20.941,29.564,0,9.854,4.927,20.325,15.4,20.325a16.441,16.441,0,0,0,11.7-4.927l-.616,4.311H466l9.239-59.127Zm-5.543,32.643c0,6.775-3.08,15.4-9.855,15.4-4.311,0-6.775-3.7-6.775-9.854,0-9.855,4.311-16.014,9.854-16.014C454.3,236.573,456.764,239.652,456.764,247.043Z" transform="translate(-109.392 -213.168)" fill="#fff"/>
        <path id="Path_98" data-name="Path 98" d="M26.1,273.527l7.391-44.345,1.232,44.345h8.623l16.014-44.345-6.775,44.345H65.52L75.375,214.4H55.05L42.732,250.739,42.116,214.4H24.255L14.4,273.527Z" transform="translate(-14.4 -213.168)" fill="#fff"/>
        <path id="Path_99" data-name="Path 99" d="M273.55,276.841c3.7-20.325,4.311-36.954,12.934-33.875,1.232-8.007,3.08-11.086,4.311-14.166h-2.464c-5.543,0-9.855,7.391-9.855,7.391l1.232-6.775h-11.7L260,277.457h13.55Z" transform="translate(-70.917 -216.482)" fill="#fff"/>
        <path id="Path_100" data-name="Path 100" d="M369.8,227.2a43.621,43.621,0,0,0-14.782,2.464l-1.848,10.47a36.406,36.406,0,0,1,13.55-2.464c4.311,0,8.007.616,8.007,4.311,0,2.464-.616,3.08-.616,3.08h-5.543c-10.47,0-22.173,4.311-22.173,18.477,0,11.086,7.391,13.55,11.7,13.55,8.623,0,12.318-5.543,12.934-5.543l-.616,4.927h11.086l4.927-33.875C387.05,227.816,374.116,227.2,369.8,227.2Zm3.08,27.716c0,1.848-1.232,11.7-8.623,11.7a4.808,4.808,0,0,1-4.927-4.927c0-3.08,1.848-7.391,11.086-7.391C372.268,254.916,372.268,254.916,372.884,254.916Z" transform="translate(-90.799 -216.114)" fill="#fff"/>
        <path id="Path_101" data-name="Path 101" d="M407.95,276.841c3.7-20.325,4.311-36.954,12.934-33.875,1.232-8.007,3.08-11.086,4.311-14.166h-2.464c-5.543,0-9.854,7.391-9.854,7.391l1.232-6.775h-11.7L394.4,277.457h13.55Z" transform="translate(-101.844 -216.482)" fill="#fff"/>
      </g>
      <g id="Group_8" data-name="Group 8" transform="translate(11.086 187.027)">
        <path id="Path_102" data-name="Path 102" d="M180,265.577c0,7.391,4.311,10.47,9.855,10.47a23.443,23.443,0,0,0,9.239-1.848l1.848-10.47a26.676,26.676,0,0,1-3.08.616c-4.311,0-4.927-2.464-4.311-3.7l3.7-21.557h6.775l1.848-11.7h-6.159L200.941,220" transform="translate(-52.507 -214.457)" fill="#dce5e5"/>
        <path id="Path_103" data-name="Path 103" d="M218.4,256.492c0,17.245,5.543,21.557,15.4,21.557,9.239,0,12.934-1.848,12.934-1.848l2.464-11.7s-6.775,3.08-12.934,3.08c-13.55,0-11.086-9.854-11.086-9.854h25.252s1.848-8.007,1.848-11.086c0-8.007-4.311-17.861-17.861-17.861C221.48,227.545,218.4,241.095,218.4,256.492Zm15.4-17.861c6.775,0,8.007,8.007,8.007,8.623H225.791C225.791,246.638,227.023,238.631,233.8,238.631Z" transform="translate(-61.344 -216.459)" fill="#dce5e5"/>
        <path id="Path_104" data-name="Path 104" d="M331.716,272.543l2.464-13.55s-6.159,3.08-10.47,3.08c-8.623,0-12.318-6.775-12.318-14.166,0-14.782,7.391-22.789,16.014-22.789a20.568,20.568,0,0,1,11.086,3.7l1.848-12.934s-7.391-3.08-14.166-3.08C312.007,212.8,304,225.118,304,248.523c0,15.4,1.232,25.868,16.014,25.868A55.276,55.276,0,0,0,331.716,272.543Z" transform="translate(-81.042 -212.8)" fill="#dce5e5"/>
        <path id="Path_105" data-name="Path 105" d="M93.175,241.118a36.406,36.406,0,0,1,13.55-2.464c4.311,0,8.007.616,8.007,4.311,0,2.464-.616,3.08-.616,3.08h-5.543c-10.47,0-22.173,4.311-22.173,18.477,0,11.086,7.391,13.55,11.7,13.55,8.623,0,12.318-5.543,12.934-5.543l-.616,4.927h11.086l4.927-33.875c0-14.166-12.318-14.782-17.245-14.782m9.239,26.484c0,1.848-7.391,11.7-14.782,11.7a4.808,4.808,0,0,1-4.927-4.927c0-3.08,1.848-7.391,11.086-7.391C111.652,255.284,118.427,255.284,118.427,255.284Z" transform="translate(-30.968 -216.482)" fill="#dce5e5"/>
        <path id="Path_106" data-name="Path 106" d="M136,275.673s3.7,1.232,14.166,1.232c3.08,0,18.477.616,18.477-16.014,0-15.4-14.782-12.318-14.782-18.477,0-3.08,2.464-4.311,6.775-4.311,1.848,0,8.623.616,8.623.616l1.848-11.086a46.784,46.784,0,0,0-11.7-1.232c-9.239,0-12.318,3.7-12.318,16.014,0,14.166,9.239,12.934,9.239,18.477,0,3.7-4.311,4.311-7.391,4.311" transform="translate(-42.382 -215.93)" fill="#dce5e5"/>
        <path id="Path_107" data-name="Path 107" d="M461.671,231.214s-4.927-6.159-11.7-6.159c-11.086,0-14.782,13.55-14.782,29.564,0,9.855-1.232,20.325,9.239,20.325a16.441,16.441,0,0,0,11.7-4.927l-.616,4.311H467.83l9.239-59.127m-16.014,32.027c0,6.775-5.543,15.4-12.318,15.4-4.311,0-6.775-3.7-6.775-9.855,0-9.855,4.311-16.014,9.854-16.014C456.127,236.757,461.055,239.836,461.055,247.227Z" transform="translate(-111.219 -213.352)" fill="#dce5e5"/>
        <path id="Path_108" data-name="Path 108" d="M26.1,273.527l7.391-44.345,1.232,44.345h8.623l16.014-44.345-6.775,44.345H65.52L75.375,214.4h-15.4L42.732,250.739,42.116,214.4H35.341L14.4,273.527Z" transform="translate(-14.4 -213.168)" fill="#dce5e5"/>
        <path id="Path_109" data-name="Path 109" d="M260.8,276.841h12.934c3.7-20.325,4.311-36.954,12.934-33.875,1.232-8.007,3.08-11.086,4.311-14.166h-2.464c-5.543,0-9.854,7.391-9.854,7.391l1.232-6.775" transform="translate(-71.101 -216.482)" fill="#dce5e5"/>
        <path id="Path_110" data-name="Path 110" d="M353.175,241.118a36.406,36.406,0,0,1,13.55-2.464c4.311,0,8.007.616,8.007,4.311,0,2.464-.616,3.08-.616,3.08h-5.543c-10.47,0-22.173,4.311-22.173,18.477,0,11.086,7.391,13.55,11.7,13.55,8.623,0,12.318-5.543,12.934-5.543l-.616,4.927h11.086l4.927-33.875c0-14.166-12.318-14.782-17.245-14.782m9.239,26.484c0,1.848-7.391,11.7-14.782,11.7a4.808,4.808,0,0,1-4.927-4.927c0-3.08,1.848-7.391,11.086-7.391C372.268,255.284,378.427,255.284,378.427,255.284Z" transform="translate(-90.799 -216.482)" fill="#dce5e5"/>
        <path id="Path_111" data-name="Path 111" d="M395.2,276.841h12.934c3.7-20.325,4.311-36.954,12.934-33.875,1.232-8.007,3.08-11.086,4.311-14.166h-2.464c-5.543,0-9.854,7.391-9.854,7.391l1.232-6.775" transform="translate(-102.028 -216.482)" fill="#dce5e5"/>
      </g>
    </g>
  </g>
</svg>
