<svg xmlns="http://www.w3.org/2000/svg" xmlns:xlink="http://www.w3.org/1999/xlink" width="14" height="18" viewBox="0 0 14 18">
  <defs>
    <clipPath id="clip-path">
      <rect id="Rectangle_639" data-name="Rectangle 639" width="14" height="18" fill="#2f81cd"/>
    </clipPath>
    <clipPath id="clip-path-2">
      <rect id="Rectangle_639-2" data-name="Rectangle 639" width="14" height="18"/>
    </clipPath>
  </defs>
  <g id="Group_1" data-name="Group 1" transform="translate(-470 -109)">
    <path id="Path_1" data-name="Path 1" d="M20.725,6.652a2.5,2.5,0,0,1-.93-1.289V5.191a.191.191,0,0,0-.382,0V8.712H18.7c-.742,0-1.2.375-1.2.979a1.023,1.023,0,0,0,1.091,1.091,1.2,1.2,0,0,0,1.2-1.2V7.384l.057.046a2.881,2.881,0,0,0,.291.23c.443.327,1.186.873,1,1.49a.2.2,0,0,0-.008.056.191.191,0,0,0,.374.055A2.434,2.434,0,0,0,21.166,7.1,2.253,2.253,0,0,0,20.725,6.652ZM19.412,9.578a.822.822,0,0,1-.821.821.645.645,0,0,1-.709-.709c0-.493.447-.6.821-.6h.709Zm.957-2.225a2.94,2.94,0,0,1-.262-.207l-.312-.256V6.227a3.546,3.546,0,0,0,.691.723,1.893,1.893,0,0,1,.369.373,2.071,2.071,0,0,1,.342.761A4.556,4.556,0,0,0,20.37,7.354Z" transform="translate(456.5 108.453)" fill="#2f81cd" opacity="0.995"/>
    <g id="csv" transform="translate(470 109)" clip-path="url(#clip-path)">
      <rect id="Rectangle_1" data-name="Rectangle 1" width="14" height="18" fill="rgba(255,255,255,0)"/>
      <g id="custom_1" data-name="custom – 1" clip-path="url(#clip-path-2)">
        <rect id="Rectangle_638" data-name="Rectangle 638" width="14" height="18" fill="rgba(255,255,255,0)"/>
        <g id="Group_24" data-name="Group 24">
          <rect id="Rectangle_1-2" data-name="Rectangle 1" width="14" height="18" fill="rgba(255,255,255,0)"/>
          <path id="xls-file" d="M54,0H47.422a1.783,1.783,0,0,0-1.743,1.816V8.533h-.17a.717.717,0,0,0-.7.732V13.7a.717.717,0,0,0,.7.732h.17v.814a1.783,1.783,0,0,0,1.743,1.816H56.4a1.783,1.783,0,0,0,1.742-1.816V4.3ZM46.335,13.6l2.88-.308c.07-.2-.217-2.013-.144-2.191l.252-.074h-.252l-.833.5L49.11,13.1h-.771l-.267-.557c-.109-.215-.18-.374-.263-.553H47.8c-.062.178-.136.338-.228.553l-.245.557h-.763l.855-1.558A12.672,12.672,0,0,0,46.335,13.6ZM56.4,15.953H47.422a.691.691,0,0,1-.675-.7v-.814h8.366a.717.717,0,0,0,.7-.732V11.265a.717.717,0,0,0-.7-.732H46.747V1.816a.691.691,0,0,1,.675-.7L53.6,1.107v2.38a1.235,1.235,0,0,0,1.209,1.26l2.237-.007.025,10.51a.69.69,0,0,1-.671.7Zm-6.483-3.544,1.4.691H49.47l2.132.19-1.461-2.265v1.494Zm4.263,0c-.491-.178.628-.936.628-1.384,0-.526-2.747-.051-2.05-.051a1.752,1.752,0,0,1,.754.155l-.149-.438a1.361,1.361,0,0,0-.618-.146c-.289,0-.43.137-.43.3,0,.2.166.283.548.434.522.2.767.484.767.918,0,.516-.381.954-1.192.954a1.867,1.867,0,0,1-.837-.187l.608.855,1.257-.831a1.648,1.648,0,0,0,.741.191c.307,0,.469-.132.469-.333s-.148-.3-.5-.436Z" transform="translate(-44.806 0.5)" fill="#2f81cd"/>
          <text id="DOCX" transform="translate(3.5 14)" fill="#fff" font-size="3" font-family="Helvetica-Bold, Helvetica" font-weight="700"><tspan x="0" y="0">MP3</tspan></text>
        </g>
      </g>
    </g>
  </g>
</svg>
