<svg xmlns="http://www.w3.org/2000/svg" xmlns:xlink="http://www.w3.org/1999/xlink" width="14" height="18" viewBox="0 0 14 18">
  <defs>
    <clipPath id="clip-path">
      <rect id="Rectangle_639" data-name="Rectangle 639" width="14" height="18" fill="#2f81cd"/>
    </clipPath>
  </defs>
  <g id="Group_4" data-name="Group 4" transform="translate(-470 -109)">
    <g id="Group_1" data-name="Group 1">
      <g id="csv" transform="translate(470 109)" clip-path="url(#clip-path)">
        <rect id="Rectangle_1" data-name="Rectangle 1" width="14" height="18" fill="rgba(255,255,255,0)"/>
        <g id="Group_3" data-name="Group 3">
          <g id="Group_24" data-name="Group 24">
            <path id="xls-file" d="M54,0H47.422a1.783,1.783,0,0,0-1.743,1.816v13.43a1.783,1.783,0,0,0,1.743,1.816H56.4a1.783,1.783,0,0,0,1.742-1.816V4.3Zm2.4,15.953H47.422a.691.691,0,0,1-.675-.7V1.816a.691.691,0,0,1,.675-.7L53.6,1.107v2.38a1.235,1.235,0,0,0,1.209,1.26l2.237-.007.025,10.51a.69.69,0,0,1-.671.7Z" transform="translate(-44.806 0.5)" fill="#2f81cd"/>
          </g>
        </g>
      </g>
    </g>
    <g id="voice" transform="translate(470.5 110.671)">
      <path id="Path_1" data-name="Path 1" d="M12.27,7.5c-.149,0-.27.059-.27.132v3.444c0,.073.121.132.27.132s.27-.059.27-.132V7.632C12.54,7.559,12.419,7.5,12.27,7.5Z" transform="translate(-6.446 -0.69)" fill="#2f81cd"/>
      <path id="Path_2" data-name="Path 2" d="M8.27,9.5c-.149,0-.27.035-.27.077v1.394c0,.043.121.077.27.077s.27-.035.27-.077V9.577C8.54,9.535,8.419,9.5,8.27,9.5Z" transform="translate(-3.867 -1.61)" fill="#2f81cd"/>
      <path id="Path_3" data-name="Path 3" d="M4.27,12a.27.27,0,0,0-.27.27v2.16a.27.27,0,1,0,.54,0V12.27A.27.27,0,0,0,4.27,12Z" transform="translate(-0.92 -4.686)" fill="#2f81cd"/>
      <path id="Path_4" data-name="Path 4" d="M2.27,13a.27.27,0,0,0-.27.27v1.08a.27.27,0,1,0,.54,0V13.27A.27.27,0,0,0,2.27,13Z" transform="translate(0 -5.146)" fill="#2f81cd"/>
      <path id="Path_5" data-name="Path 5" d="M16.27,11.5a.27.27,0,0,0-.27.27v2.7a.27.27,0,0,0,.54,0v-2.7A.27.27,0,0,0,16.27,11.5Z" transform="translate(-9.024 -4.456)" fill="#2f81cd"/>
      <path id="Path_6" data-name="Path 6" d="M14.27,10c-.149,0-.27.025-.27.056v.9c0,.031.121.056.27.056s.27-.025.27-.056v-.9C14.54,10.025,14.419,10,14.27,10Z" transform="translate(-7.735 -1.84)" fill="#2f81cd"/>
      <path id="Path_7" data-name="Path 7" d="M10.27,6c-.149,0-.27.07-.27.157v5.015c0,.087.121.157.27.157s.27-.07.27-.157V6.157C10.54,6.07,10.419,6,10.27,6Z" transform="translate(-5.157)" fill="#2f81cd"/>
      <path id="Path_8" data-name="Path 8" d="M6.27,11.5a.27.27,0,0,0-.27.27v2.7a.27.27,0,0,0,.54,0v-2.7A.27.27,0,0,0,6.27,11.5Z" transform="translate(-1.84 -4.456)" fill="#2f81cd"/>
      <path id="Path_9" data-name="Path 9" d="M18.27,10c-.149,0-.27.025-.27.056v.9c0,.031.121.056.27.056s.27-.025.27-.056v-.9C18.54,10.025,18.419,10,18.27,10Z" transform="translate(-10.313 -1.84)" fill="#2f81cd"/>
      <path id="Path_10" data-name="Path 10" d="M20.27,9c-.149,0-.27.043-.27.095v1.9c0,.052.121.095.27.095s.27-.043.27-.095v-1.9C20.54,9.043,20.419,9,20.27,9Z" transform="translate(-11.602 -1.38)" fill="#2f81cd"/>
      <path id="Path_11" data-name="Path 11" d="M24.27,12a.27.27,0,0,0-.27.27v2.16a.27.27,0,1,0,.54,0V12.27A.27.27,0,0,0,24.27,12Z" transform="translate(-14.55 -4.686)" fill="#2f81cd"/>
      <path id="Path_12" data-name="Path 12" d="M22.27,10.5a.27.27,0,0,0-.27.27v3.78a.27.27,0,1,0,.54,0V10.77A.27.27,0,0,0,22.27,10.5Z" transform="translate(-13.63 -3.996)" fill="#2f81cd"/>
      <path id="Path_13" data-name="Path 13" d="M26.27,13a.27.27,0,0,0-.27.27v1.08a.27.27,0,0,0,.54,0V13.27A.27.27,0,0,0,26.27,13Z" transform="translate(-15.47 -5.146)" fill="#2f81cd"/>
    </g>
  </g>
</svg>
