<svg xmlns="http://www.w3.org/2000/svg" width="178.685" height="27.568" viewBox="0 0 178.685 27.568">
  <g id="Simplexam_Nav_Bar_Logo" data-name="Simplexam Nav Bar Logo" transform="translate(2254.989 -1051)">
    <g id="Group_664" data-name="Group 664" transform="translate(-2254.989 1051)">
      <path id="Path_458" data-name="Path 458" d="M-2244.412,1062.278l-.47-.041c-3.795-.294-6.1-.616-6.1-2.6,0-2.269,3.677-3,5.458-3,1.849,0,5.072.3,5.887,2.37a1.808,1.808,0,0,0,2.383.793,1.555,1.555,0,0,0,.959-2.036c-1.146-3.11-4.348-4.753-9.261-4.753-6.025,0-9.177,3.319-9.177,6.6,0,5.28,5.266,5.7,9.5,6.037l.182.015c3.664.3,5.889.618,5.889,2.525,0,3.19-5.457,3.283-6.079,3.283-1.579,0-5.324-.258-6.1-2.645a1.538,1.538,0,0,0-1.076-1.15,2.169,2.169,0,0,0-2.077.47,1.566,1.566,0,0,0-.428,1.584c1.077,3.915,5.888,5.3,9.682,5.3,4.877,0,9.8-2.126,9.8-6.878C-2235.446,1063.049-2240.209,1062.64-2244.412,1062.278Z" transform="translate(2254.989 -1052.603)" fill="#eb008b"/>
      <path id="Path_459" data-name="Path 459" d="M-2147.506,1074.972a1.715,1.715,0,0,0-1.818,1.681v13.982a1.708,1.708,0,0,0,1.807,1.678,1.678,1.678,0,0,0,1.788-1.678v-14.013A1.661,1.661,0,0,0-2147.506,1074.972Z" transform="translate(2170.586 -1070.148)" fill="#eb008b"/>
      <path id="Path_460" data-name="Path 460" d="M-2147.649,1051.078a1.745,1.745,0,0,0-1.829,1.736v.912a1.715,1.715,0,0,0,1.819,1.724,1.744,1.744,0,0,0,1.838-1.724v-.912A1.745,1.745,0,0,0-2147.649,1051.078Z" transform="translate(2170.709 -1051.062)" fill="#eb008b"/>
      <path id="Path_461" data-name="Path 461" d="M-2093.9,1074.625a7.682,7.682,0,0,0-6.552,3.281,7.273,7.273,0,0,0-6.342-3.281,7.255,7.255,0,0,0-5.179,1.941v-.19a1.712,1.712,0,0,0-1.75-1.751,1.769,1.769,0,0,0-1.782,1.751v13.889a1.728,1.728,0,0,0,1.807,1.724,1.7,1.7,0,0,0,1.788-1.724v-6.991a5.1,5.1,0,0,1,5.147-5.147,4.3,4.3,0,0,1,2.318.613,4.4,4.4,0,0,1,1.834,3.82v7.706a1.706,1.706,0,0,0,1.813,1.751,1.706,1.706,0,0,0,1.813-1.751v-6.836a5.085,5.085,0,0,1,5.178-5.333,4.03,4.03,0,0,1,4.153,3.943v8.226a1.655,1.655,0,0,0,1.782,1.751,1.706,1.706,0,0,0,1.813-1.751v-8.327C-2086.058,1077.188-2090.1,1074.625-2093.9,1074.625Z" transform="translate(2143.572 -1069.871)" fill="#eb008b"/>
      <path id="Path_462" data-name="Path 462" d="M-1940.8,1074.464a.615.615,0,0,0-.146-.041,8.609,8.609,0,0,0-3.059-.569,6.936,6.936,0,0,0-4.459,1.572,1.576,1.576,0,0,0-1.693-1.386,1.687,1.687,0,0,0-1.813,1.751v19.3a1.729,1.729,0,0,0,1.8,1.736,1.729,1.729,0,0,0,1.8-1.736v-4.926a7.061,7.061,0,0,0,4.37,1.4,8.291,8.291,0,0,0,8.618-8.383A8.768,8.768,0,0,0-1940.8,1074.464Zm1.818,8.635a6.836,6.836,0,0,1-.415,2.068,4.987,4.987,0,0,1-4.673,2.919,4.164,4.164,0,0,1-4.306-4.122v-2.454c0-2.863,2.343-4.174,4.531-4.184a5.179,5.179,0,0,1,2.8,1.027A5.766,5.766,0,0,1-1938.977,1083.1Z" transform="translate(2012.941 -1069.256)" fill="#eb008b"/>
      <path id="Path_463" data-name="Path 463" d="M-1855.643,1051a1.729,1.729,0,0,0-1.813,1.72v18.643a1.729,1.729,0,0,0,1.813,1.72,1.754,1.754,0,0,0,1.782-1.72V1052.72A1.754,1.754,0,0,0-1855.643,1051Z" transform="translate(1937.449 -1051)" fill="#eb008b"/>
    </g>
    <path id="Path_464" data-name="Path 464" d="M-1810.709,1083.868a1.934,1.934,0,0,0,.46-1.493c-.089-4.192-2.416-7.317-6.235-8.364a.658.658,0,0,0-.1-.017,9.375,9.375,0,0,0-4.951.018,8.249,8.249,0,0,0-5.654,5.417,9.645,9.645,0,0,0,1.429,8.81,8.694,8.694,0,0,0,6.817,3.015h.176a8.431,8.431,0,0,0,5.84-2.066,1.714,1.714,0,0,0,.168-2.476,1.843,1.843,0,0,0-2.56-.02,6.113,6.113,0,0,1-3.708,1.153,4.959,4.959,0,0,1-4.845-3.334h11.433A2.229,2.229,0,0,0-1810.709,1083.868Zm-3.14-2.579h-10.2a4.811,4.811,0,0,1,3.566-3.951,5.829,5.829,0,0,1,2.875-.058.612.612,0,0,0,.1.033A4.977,4.977,0,0,1-1813.849,1081.29Z" transform="translate(-341.328 -18.109)" fill="#90278e"/>
    <g id="Group_665" data-name="Group 665" transform="translate(-2150.711 1055.544)">
      <path id="Path_465" data-name="Path 465" d="M-1726.407,1082.345l5.41-6.017c.013-.015.027-.031.039-.048a1.6,1.6,0,0,0-.388-2.308,1.756,1.756,0,0,0-2.493.281l-4.966,5.667-4.608-5.676a1.865,1.865,0,0,0-2.574-.216,1.645,1.645,0,0,0-.2,2.381l.02.024,4.953,5.909-5.025,5.893a1.8,1.8,0,0,0-.453,1.793,1.771,1.771,0,0,0,1.314,1.192,1.719,1.719,0,0,0,.362.039,1.913,1.913,0,0,0,1.424-.693l4.815-5.857,5.145,5.908a1.779,1.779,0,0,0,2.563.167,1.66,1.66,0,0,0,.133-2.421Z" transform="translate(1736.774 -1073.581)" fill="#00adee"/>
      <path id="Path_466" data-name="Path 466" d="M-1637.631,1074.114a1.689,1.689,0,0,0-1.721,1.279,6.88,6.88,0,0,0-4.29-1.4,8.132,8.132,0,0,0-3.437.571.673.673,0,0,0-.113.032,8.371,8.371,0,0,0-5.21,7.776,8.941,8.941,0,0,0,3.758,7.862,8.52,8.52,0,0,0,4.86,1.46,7.023,7.023,0,0,0,4.4-1.64,1.667,1.667,0,0,0,1.753,1.423,1.72,1.72,0,0,0,1.813-1.782v-13.8A1.739,1.739,0,0,0-1637.631,1074.114Zm-1.782,7.468v2.438a4.223,4.223,0,0,1-4.561,4.2,5.352,5.352,0,0,1-2.8-1.027,5.644,5.644,0,0,1-2.03-4.748,6.1,6.1,0,0,1,.419-2.078,4.892,4.892,0,0,1,4.592-2.909h.076C-1641.023,1077.58-1639.413,1079.121-1639.413,1081.582Z" transform="translate(1669.384 -1073.904)" fill="#00adee"/>
      <path id="Path_467" data-name="Path 467" d="M-1529.471,1074.625a7.682,7.682,0,0,0-6.553,3.281,7.273,7.273,0,0,0-6.343-3.281,7.252,7.252,0,0,0-5.178,1.941v-.19a1.713,1.713,0,0,0-1.751-1.751,1.769,1.769,0,0,0-1.782,1.751v13.889a1.728,1.728,0,0,0,1.807,1.724,1.7,1.7,0,0,0,1.788-1.724v-6.991a5.1,5.1,0,0,1,5.147-5.147,4.3,4.3,0,0,1,2.318.613,4.4,4.4,0,0,1,1.835,3.82v7.706a1.705,1.705,0,0,0,1.813,1.751,1.706,1.706,0,0,0,1.813-1.751v-6.836a5.085,5.085,0,0,1,5.178-5.333,4.03,4.03,0,0,1,4.153,3.944v8.226a1.655,1.655,0,0,0,1.782,1.751,1.706,1.706,0,0,0,1.813-1.751v-8.327C-1521.629,1077.188-1525.669,1074.625-1529.471,1074.625Z" transform="translate(1588.444 -1074.415)" fill="#00adee"/>
    </g>
    <g id="Group_666" data-name="Group 666" transform="translate(-2084.532 1053.208)">
      <path id="Path_468" data-name="Path 468" d="M-1407.893,1062.565v-.593h3.332v.593h-1.278v2.961h-.777v-2.961Zm5.114-.593,1,2.544,1.005-2.544h1.111v3.554h-.717v-2.868l-1.081,2.868h-.626l-1.091-2.868v2.868h-.717v-3.554Z" transform="translate(1407.893 -1061.972)" fill="#231f20"/>
    </g>
  </g>
</svg>
