<svg xmlns="http://www.w3.org/2000/svg" xmlns:xlink="http://www.w3.org/1999/xlink" width="167.68" height="35.57" viewBox="0 0 167.68 35.57">
  <defs>
    <clipPath id="clip-nav-logo">
      <rect width="167.68" height="35.57"/>
    </clipPath>
  </defs>
  <g id="nav-logo" clip-path="url(#clip-nav-logo)">
    <rect width="167.68" height="35.57" fill="rgba(255,255,255,0)"/>
    <g id="Group_6" data-name="Group 6" transform="translate(-40.353 -31.19)">
      <g id="Group_3" data-name="Group 3" transform="translate(40.353 31.19)">
        <g id="Group_1" data-name="Group 1" transform="translate(0 0)">
          <path id="Path_1" data-name="Path 1" d="M50.35,40.732l-.444-.038c-3.587-.278-5.766-.583-5.766-2.459,0-2.145,3.476-2.839,5.159-2.839,1.748,0,4.794.288,5.565,2.24a1.709,1.709,0,0,0,2.253.75,1.47,1.47,0,0,0,.907-1.925c-1.083-2.94-4.11-4.493-8.754-4.493-5.7,0-8.675,3.138-8.675,6.237,0,4.991,4.978,5.387,8.977,5.707l.172.014c3.463.283,5.567.585,5.567,2.386,0,3.016-5.159,3.1-5.747,3.1-1.492,0-5.032-.244-5.766-2.5a1.455,1.455,0,0,0-1.018-1.087,2.05,2.05,0,0,0-1.964.445,1.479,1.479,0,0,0-.4,1.5c1.018,3.7,5.566,5.014,9.152,5.014,4.61,0,9.262-2.01,9.262-6.5C58.826,41.461,54.323,41.074,50.35,40.732Z" transform="translate(-40.353 -31.586)" fill="#ec1283"/>
          <path id="Path_2" data-name="Path 2" d="M83.012,40.478a1.621,1.621,0,0,0-1.718,1.59V55.285A1.614,1.614,0,0,0,83,56.87a1.586,1.586,0,0,0,1.69-1.586V42.038A1.57,1.57,0,0,0,83.012,40.478Z" transform="translate(-61.195 -35.918)" fill="#ec1283"/>
          <path id="Path_3" data-name="Path 3" d="M82.963,31.22a1.649,1.649,0,0,0-1.729,1.641v.863a1.621,1.621,0,0,0,1.719,1.629,1.649,1.649,0,0,0,1.738-1.629v-.863A1.649,1.649,0,0,0,82.963,31.22Z" transform="translate(-61.164 -31.205)" fill="#ec1283"/>
          <path id="Path_4" data-name="Path 4" d="M114.821,40.344a7.262,7.262,0,0,0-6.194,3.1,7.388,7.388,0,0,0-10.89-1.266V42a1.619,1.619,0,0,0-1.655-1.655A1.672,1.672,0,0,0,94.4,42V55.129a1.634,1.634,0,0,0,1.708,1.629,1.61,1.61,0,0,0,1.69-1.629V48.52a4.818,4.818,0,0,1,4.866-4.866,4.06,4.06,0,0,1,2.191.579,4.159,4.159,0,0,1,1.734,3.611v7.284a1.715,1.715,0,0,0,3.428,0V48.667a4.807,4.807,0,0,1,4.9-5.042,3.809,3.809,0,0,1,3.925,3.728v7.776a1.565,1.565,0,0,0,1.684,1.655,1.612,1.612,0,0,0,1.714-1.655V47.257C122.233,42.767,118.415,40.344,114.821,40.344Z" transform="translate(-67.865 -35.85)" fill="#ec1283"/>
          <path id="Path_5" data-name="Path 5" d="M168.321,40.621a.594.594,0,0,0-.138-.039,8.146,8.146,0,0,0-2.892-.538,6.556,6.556,0,0,0-4.215,1.486,1.491,1.491,0,0,0-1.6-1.31,1.6,1.6,0,0,0-1.714,1.655v18.24a1.7,1.7,0,0,0,3.4,0V55.46a6.676,6.676,0,0,0,4.131,1.319,7.836,7.836,0,0,0,8.146-7.925A8.288,8.288,0,0,0,168.321,40.621Zm1.719,8.163a6.48,6.48,0,0,1-.392,1.955,4.715,4.715,0,0,1-4.417,2.759,3.936,3.936,0,0,1-4.071-3.9v-2.32c0-2.706,2.216-3.945,4.283-3.955a4.893,4.893,0,0,1,2.648.971A5.45,5.45,0,0,1,170.04,48.784Z" transform="translate(-100.123 -35.698)" fill="#ec1283"/>
          <path id="Path_6" data-name="Path 6" d="M196.094,31.19a1.634,1.634,0,0,0-1.713,1.626V50.439a1.635,1.635,0,0,0,1.713,1.626,1.658,1.658,0,0,0,1.685-1.626V32.816A1.658,1.658,0,0,0,196.094,31.19Z" transform="translate(-118.765 -31.19)" fill="#ec1283"/>
        </g>
        <path id="Path_7" data-name="Path 7" d="M221.957,49.613a1.827,1.827,0,0,0,.434-1.411A7.9,7.9,0,0,0,216.5,40.3a.6.6,0,0,0-.09-.016,8.857,8.857,0,0,0-4.68.017,7.8,7.8,0,0,0-5.345,5.12,9.118,9.118,0,0,0,1.352,8.328,8.217,8.217,0,0,0,6.443,2.85h.167a7.968,7.968,0,0,0,5.52-1.953,1.62,1.62,0,0,0,.159-2.341,1.741,1.741,0,0,0-2.419-.019,5.78,5.78,0,0,1-3.506,1.089,4.687,4.687,0,0,1-4.58-3.152h10.807A2.107,2.107,0,0,0,221.957,49.613Zm-2.968-2.437h-9.64a4.548,4.548,0,0,1,3.371-3.735,5.508,5.508,0,0,1,2.717-.055.574.574,0,0,0,.093.031A4.7,4.7,0,0,1,218.989,47.176Z" transform="translate(-124.639 -35.662)" fill="#800b7a"/>
        <g id="Group_2" data-name="Group 2" transform="translate(98.571 4.295)">
          <path id="Path_8" data-name="Path 8" d="M250.939,48.223l5.114-5.688c.013-.014.025-.029.037-.045a1.513,1.513,0,0,0-.367-2.181,1.659,1.659,0,0,0-2.356.266l-4.694,5.357-4.356-5.365a1.763,1.763,0,0,0-2.434-.2,1.555,1.555,0,0,0-.189,2.251l.019.023,4.682,5.585-4.751,5.571a1.7,1.7,0,0,0-.428,1.695,1.675,1.675,0,0,0,1.242,1.127,1.629,1.629,0,0,0,.342.037A1.808,1.808,0,0,0,244.146,56l4.552-5.537,4.863,5.584a1.682,1.682,0,0,0,2.423.158,1.569,1.569,0,0,0,.126-2.289Z" transform="translate(-241.14 -39.939)" fill="#4ca2ca"/>
          <path id="Path_9" data-name="Path 9" d="M287.8,40.218a1.6,1.6,0,0,0-1.627,1.209,6.505,6.505,0,0,0-4.055-1.326,7.687,7.687,0,0,0-3.249.54.651.651,0,0,0-.106.03,7.913,7.913,0,0,0-4.925,7.351,8.453,8.453,0,0,0,3.552,7.432,8.054,8.054,0,0,0,4.594,1.38,6.637,6.637,0,0,0,4.159-1.55,1.576,1.576,0,0,0,1.657,1.345,1.626,1.626,0,0,0,1.714-1.685V41.9A1.644,1.644,0,0,0,287.8,40.218Zm-1.684,7.06v2.3a3.991,3.991,0,0,1-4.311,3.971,5.056,5.056,0,0,1-2.649-.97,5.336,5.336,0,0,1-1.919-4.488,5.759,5.759,0,0,1,.4-1.964,4.624,4.624,0,0,1,4.341-2.75h.072C284.59,43.494,286.111,44.951,286.111,47.277Z" transform="translate(-257.781 -40.019)" fill="#4ca2ca"/>
          <path id="Path_10" data-name="Path 10" d="M333.514,40.344a7.262,7.262,0,0,0-6.194,3.1,7.388,7.388,0,0,0-10.89-1.266V42a1.619,1.619,0,0,0-1.655-1.655A1.672,1.672,0,0,0,313.09,42V55.129a1.633,1.633,0,0,0,1.708,1.629,1.61,1.61,0,0,0,1.69-1.629V48.52a4.819,4.819,0,0,1,4.866-4.866,4.06,4.06,0,0,1,2.191.579,4.16,4.16,0,0,1,1.734,3.611v7.284a1.715,1.715,0,0,0,3.428,0V48.667a4.807,4.807,0,0,1,4.9-5.042,3.809,3.809,0,0,1,3.925,3.728v7.776a1.565,1.565,0,0,0,1.685,1.655,1.612,1.612,0,0,0,1.714-1.655V47.257C340.926,42.767,337.108,40.344,333.514,40.344Z" transform="translate(-277.768 -40.145)" fill="#4ca2ca"/>
        </g>
      </g>
      <g id="Group_4" data-name="Group 4" transform="translate(56.909 59.186)">
        <path id="Path_11" data-name="Path 11" d="M74.078,88.428h1.529l1.246,2.022L78.1,88.428h1.53v5.221h-1.44v-3L76.857,92.7h-.03L75.5,90.666v2.983H74.078Z" transform="translate(-74.078 -88.324)" fill="#6c635f"/>
        <path id="Path_12" data-name="Path 12" d="M88.785,88.428h4.192V89.66H90.21v.79h2.506v1.142H90.21v.828h2.8v1.23H88.785Z" transform="translate(-81.565 -88.324)" fill="#6c635f"/>
        <path id="Path_13" data-name="Path 13" d="M100.44,88.428h2.014a3.807,3.807,0,0,1,1.249.19,2.619,2.619,0,0,1,.925.534,2.272,2.272,0,0,1,.574.816,2.673,2.673,0,0,1,.2,1.041v.014a2.681,2.681,0,0,1-.2,1.048,2.337,2.337,0,0,1-.582.832,2.668,2.668,0,0,1-.936.549,3.737,3.737,0,0,1-1.257.2H100.44Zm2.038,3.938a1.541,1.541,0,0,0,1.048-.343,1.218,1.218,0,0,0,.4-.977v-.014a1.222,1.222,0,0,0-.4-.974,1.531,1.531,0,0,0-1.048-.347h-.592v2.654Z" transform="translate(-87.498 -88.324)" fill="#6c635f"/>
        <path id="Path_14" data-name="Path 14" d="M113.644,88.428H115.1v5.221h-1.454Z" transform="translate(-94.22 -88.324)" fill="#6c635f"/>
        <path id="Path_15" data-name="Path 15" d="M122.4,93.646a2.736,2.736,0,0,1-1.052-.2,2.552,2.552,0,0,1-.854-.563,2.715,2.715,0,0,1-.787-1.935v-.016A2.729,2.729,0,0,1,120.489,89a2.621,2.621,0,0,1,.869-.578,2.855,2.855,0,0,1,1.1-.208,3.164,3.164,0,0,1,.731.078,2.51,2.51,0,0,1,.6.223,2.416,2.416,0,0,1,.492.347,2.883,2.883,0,0,1,.392.44l-1.089.843a1.87,1.87,0,0,0-.492-.447,1.218,1.218,0,0,0-.649-.164,1.158,1.158,0,0,0-.5.108,1.2,1.2,0,0,0-.392.295,1.411,1.411,0,0,0-.257.44,1.556,1.556,0,0,0-.093.537v.015a1.611,1.611,0,0,0,.093.549,1.377,1.377,0,0,0,.257.444,1.213,1.213,0,0,0,.392.295,1.158,1.158,0,0,0,.5.108,1.405,1.405,0,0,0,.37-.045,1.154,1.154,0,0,0,.306-.13,1.677,1.677,0,0,0,.261-.2,3.162,3.162,0,0,0,.243-.258l1.089.776a3.85,3.85,0,0,1-.406.47,2.391,2.391,0,0,1-.5.374,2.657,2.657,0,0,1-.626.246A3.163,3.163,0,0,1,122.4,93.646Z" transform="translate(-97.306 -88.216)" fill="#6c635f"/>
        <path id="Path_16" data-name="Path 16" d="M134.055,88.353h1.395l2.223,5.258h-1.551l-.38-.932h-2.014l-.373.932h-1.521Zm1.268,3.207-.582-1.485-.589,1.485Z" transform="translate(-103.479 -88.286)" fill="#6c635f"/>
        <path id="Path_17" data-name="Path 17" d="M146.281,88.428h1.447v3.953h2.529v1.268h-3.976Z" transform="translate(-110.835 -88.324)" fill="#6c635f"/>
        <path id="Path_18" data-name="Path 18" d="M156.826,93.047h2.447v1.246h-2.447Z" transform="translate(-116.203 -90.675)" fill="#6c635f"/>
        <path id="Path_19" data-name="Path 19" d="M164.879,88.428h1.447v3.953h2.529v1.268h-3.976Z" transform="translate(-120.302 -88.324)" fill="#6c635f"/>
        <path id="Path_20" data-name="Path 20" d="M175.759,88.428h4.192V89.66h-2.767v.79h2.506v1.142h-2.506v.828h2.8v1.23h-4.229Z" transform="translate(-125.841 -88.324)" fill="#6c635f"/>
        <path id="Path_21" data-name="Path 21" d="M189.889,93.646a3.131,3.131,0,0,1-1.13-.2,2.69,2.69,0,0,1-.9-.556,2.567,2.567,0,0,1-.6-.854,2.7,2.7,0,0,1-.216-1.092v-.016a2.674,2.674,0,0,1,.212-1.062,2.7,2.7,0,0,1,.583-.866,2.654,2.654,0,0,1,.889-.578,2.986,2.986,0,0,1,1.122-.208,3.222,3.222,0,0,1,1.2.2,3.29,3.29,0,0,1,.921.559L191.12,90a2.307,2.307,0,0,0-.578-.365,1.7,1.7,0,0,0-.682-.127,1.244,1.244,0,0,0-.526.111,1.324,1.324,0,0,0-.422.307,1.442,1.442,0,0,0-.283.454,1.487,1.487,0,0,0-.105.56v.015a1.583,1.583,0,0,0,.105.582,1.331,1.331,0,0,0,.3.459,1.4,1.4,0,0,0,.449.3,1.469,1.469,0,0,0,.573.108,1.5,1.5,0,0,0,.838-.217V91.55h-1.029V90.491h2.4v2.35a3.784,3.784,0,0,1-.985.575A3.381,3.381,0,0,1,189.889,93.646Z" transform="translate(-131.588 -88.216)" fill="#6c635f"/>
        <path id="Path_22" data-name="Path 22" d="M201.988,88.353h1.395l2.223,5.258h-1.551l-.381-.932H201.66l-.374.932h-1.521Zm1.268,3.207-.582-1.485-.589,1.485Z" transform="translate(-138.062 -88.286)" fill="#6c635f"/>
        <path id="Path_23" data-name="Path 23" d="M214.216,88.428h1.447v3.953h2.529v1.268h-3.976Z" transform="translate(-145.419 -88.324)" fill="#6c635f"/>
        <path id="Path_24" data-name="Path 24" d="M224.455,98.227q.768-.088.746-.7h-.575V96.072H226.1v1.185a1.974,1.974,0,0,1-.109.7,1.129,1.129,0,0,1-.309.459,1.312,1.312,0,0,1-.485.262,2.39,2.39,0,0,1-.634.092Z" transform="translate(-150.631 -92.215)" fill="#6c635f"/>
        <path id="Path_25" data-name="Path 25" d="M238.3,93.647a4.078,4.078,0,0,1-1.332-.218,3.235,3.235,0,0,1-1.114-.653l.806-.964a2.653,2.653,0,0,0,1.693.626.87.87,0,0,0,.444-.092.3.3,0,0,0,.154-.265v-.015a.278.278,0,0,0-.038-.144.375.375,0,0,0-.138-.123,1.379,1.379,0,0,0-.269-.116,4.479,4.479,0,0,0-.436-.115q-.418-.1-.775-.213a2.415,2.415,0,0,1-.623-.3,1.272,1.272,0,0,1-.57-1.129v-.015a1.617,1.617,0,0,1,.137-.67,1.486,1.486,0,0,1,.4-.529,1.9,1.9,0,0,1,.638-.347,2.688,2.688,0,0,1,.843-.123,3.742,3.742,0,0,1,1.2.177,3.011,3.011,0,0,1,.951.522l-.724,1.025a2.937,2.937,0,0,0-.734-.384,2.231,2.231,0,0,0-.728-.13.656.656,0,0,0-.392.1.286.286,0,0,0-.13.238V89.8a.3.3,0,0,0,.04.156.378.378,0,0,0,.142.123,1.645,1.645,0,0,0,.277.111c.116.038.264.076.444.116a6.175,6.175,0,0,1,.809.227,2.392,2.392,0,0,1,.615.316,1.27,1.27,0,0,1,.388.451,1.369,1.369,0,0,1,.134.629v.016a1.611,1.611,0,0,1-.153.714,1.54,1.54,0,0,1-.428.532,1.938,1.938,0,0,1-.665.335A3.02,3.02,0,0,1,238.3,93.647Z" transform="translate(-156.434 -88.231)" fill="#6c635f"/>
        <path id="Path_26" data-name="Path 26" d="M248.142,88.428H249.6v5.221h-1.455Z" transform="translate(-162.69 -88.324)" fill="#6c635f"/>
        <path id="Path_27" data-name="Path 27" d="M254.571,88.428h1.53l1.245,2.022,1.246-2.022h1.528v5.221h-1.439v-3L257.35,92.7h-.03L256,90.666v2.983h-1.425Z" transform="translate(-165.962 -88.324)" fill="#6c635f"/>
        <path id="Path_28" data-name="Path 28" d="M269.28,88.428h2.238a3.054,3.054,0,0,1,.894.123,1.946,1.946,0,0,1,.686.358,1.559,1.559,0,0,1,.436.578,1.889,1.889,0,0,1,.154.775v.016a1.869,1.869,0,0,1-.168.812,1.663,1.663,0,0,1-.466.589,2,2,0,0,1-.713.358,3.226,3.226,0,0,1-.9.12h-.717v1.491H269.28Zm2.133,2.6a.914.914,0,0,0,.608-.184.614.614,0,0,0,.22-.5v-.015a.618.618,0,0,0-.22-.514.953.953,0,0,0-.615-.176h-.679v1.386Z" transform="translate(-173.45 -88.324)" fill="#6c635f"/>
        <path id="Path_29" data-name="Path 29" d="M281.025,88.428h1.447v3.953H285v1.268h-3.976Z" transform="translate(-179.429 -88.324)" fill="#6c635f"/>
        <path id="Path_30" data-name="Path 30" d="M291.963,88.428h1.455v5.221h-1.455Z" transform="translate(-184.998 -88.324)" fill="#6c635f"/>
        <path id="Path_31" data-name="Path 31" d="M298.392,88.428h4.177V89.7h-2.73v.88h2.469v1.209h-2.469v1.864h-1.447Z" transform="translate(-188.271 -88.324)" fill="#6c635f"/>
        <path id="Path_32" data-name="Path 32" d="M309.816,88.428h1.455v5.221h-1.455Z" transform="translate(-194.086 -88.324)" fill="#6c635f"/>
        <path id="Path_33" data-name="Path 33" d="M316.245,88.428h4.193V89.66h-2.768v.79h2.507v1.142h-2.507v.828h2.805v1.23h-4.229Z" transform="translate(-197.359 -88.324)" fill="#6c635f"/>
        <path id="Path_34" data-name="Path 34" d="M327.9,88.428h2.014a3.809,3.809,0,0,1,1.25.19,2.615,2.615,0,0,1,.924.534,2.263,2.263,0,0,1,.575.816,2.692,2.692,0,0,1,.2,1.041v.014a2.7,2.7,0,0,1-.2,1.048,2.356,2.356,0,0,1-.582.832,2.676,2.676,0,0,1-.936.549,3.751,3.751,0,0,1-1.258.2H327.9Zm2.038,3.938a1.539,1.539,0,0,0,1.048-.343,1.219,1.219,0,0,0,.4-.977v-.014a1.222,1.222,0,0,0-.4-.974,1.528,1.528,0,0,0-1.048-.347h-.592v2.654Z" transform="translate(-203.291 -88.324)" fill="#6c635f"/>
        <path id="Path_35" data-name="Path 35" d="M340.752,96.1h1.477v1.455h-1.477Z" transform="translate(-209.835 -92.23)" fill="#6c635f"/>
      </g>
      <g id="Group_5" data-name="Group 5" transform="translate(202.126 34.387)">
        <path id="Path_36" data-name="Path 36" d="M372.353,42.661a2.431,2.431,0,0,1-.973-.2,2.467,2.467,0,0,1-.784-.531,2.5,2.5,0,0,1-.524-.784,2.416,2.416,0,0,1-.191-.955v-.014a2.42,2.42,0,0,1,.191-.956,2.493,2.493,0,0,1,1.319-1.325,2.508,2.508,0,0,1,1.949,0,2.464,2.464,0,0,1,.784.531,2.522,2.522,0,0,1,.524.784,2.42,2.42,0,0,1,.191.956v.014a2.415,2.415,0,0,1-.191.955,2.5,2.5,0,0,1-1.319,1.326A2.411,2.411,0,0,1,372.353,42.661Zm0-.274a2.164,2.164,0,0,0,.873-.175,2.211,2.211,0,0,0,.7-.473,2.169,2.169,0,0,0,.462-.7,2.209,2.209,0,0,0,.168-.856v-.014a2.183,2.183,0,0,0-.168-.853,2.206,2.206,0,0,0-.459-.7,2.117,2.117,0,0,0-.692-.469,2.186,2.186,0,0,0-.866-.171,2.163,2.163,0,0,0-.873.175,2.2,2.2,0,0,0-.7.473,2.17,2.17,0,0,0-.463.7,2.218,2.218,0,0,0-.167.856V40.2a2.227,2.227,0,0,0,.164.853,2.13,2.13,0,0,0,1.154,1.168A2.185,2.185,0,0,0,372.353,42.387Zm-1.014-3.6h1.171a1.1,1.1,0,0,1,.815.287.778.778,0,0,1,.219.575v.014a.813.813,0,0,1-.157.521.939.939,0,0,1-.411.295l.644.945h-.678l-.562-.849h-.459v.849h-.582Zm1.164,1.288a.481.481,0,0,0,.336-.107.351.351,0,0,0,.116-.27v-.014a.342.342,0,0,0-.123-.288.544.544,0,0,0-.342-.1h-.568v.774Z" transform="translate(-369.88 -37.702)" fill="#6c635f"/>
      </g>
    </g>
  </g>
</svg>
