<svg xmlns="http://www.w3.org/2000/svg" xmlns:xlink="http://www.w3.org/1999/xlink" width="94" height="60" viewBox="0 0 94 60">
  <defs>
    <clipPath id="clip-custom_1">
      <rect width="94" height="60"/>
    </clipPath>
  </defs>
  <g id="custom_1" data-name="custom – 1" clip-path="url(#clip-custom_1)">
    <rect width="94" height="60" fill="rgba(255,255,255,0)"/>
    <g id="cloud-computing" transform="translate(7.594 -79.5)" opacity="0.99">
      <path id="Path_990" data-name="Path 990" d="M76.335,150.751l.132-.265a8.539,8.539,0,0,0,.4-2.649,7.969,7.969,0,0,0-7.946-7.946,8.524,8.524,0,0,0-3.178.662v-.265a21.212,21.212,0,0,0-36.154-9.535l-.132.132a10.1,10.1,0,0,0-5.562-1.589A10.626,10.626,0,0,0,13.3,139.892a10.318,10.318,0,0,0,1.722,5.695l.132.132a10.621,10.621,0,0,0,3.443,20.659H74.216a7.959,7.959,0,0,0,2.119-15.627Z" transform="translate(-6.676 -33.378)" fill="rgba(60,60,255,0.24)"/>
      <g id="Group_25" data-name="Group 25" transform="translate(0 84)">
        <path id="Path_991" data-name="Path 991" d="M71.249,111.281a10.293,10.293,0,0,0,.265-2.119,9.213,9.213,0,0,0-9.27-9.27,11.662,11.662,0,0,0-2.251.265,22.457,22.457,0,0,0-37.478-9.535,12.057,12.057,0,0,0-5.3-1.324A11.869,11.869,0,0,0,5.3,101.216a12.369,12.369,0,0,0,1.192,5.3,11.909,11.909,0,0,0,5.43,22.514H67.541a9.258,9.258,0,0,0,3.708-17.746Zm-3.708,15.1H11.919a9.27,9.27,0,1,1,0-18.541,1.324,1.324,0,0,0,0-2.649,11.031,11.031,0,0,0-2.914.4,9.678,9.678,0,0,1-1.059-4.37,9.27,9.27,0,1,1,18.541,0,1.324,1.324,0,1,0,2.649,0,11.693,11.693,0,0,0-4.37-9.138,20.169,20.169,0,0,1,13.641-5.43,19.712,19.712,0,0,1,19.07,14.568,9.119,9.119,0,0,0-4.5,7.946,1.324,1.324,0,1,0,2.649,0,6.622,6.622,0,0,1,13.243,0c0,.53-.132.927-.132,1.457a3.667,3.667,0,0,0-1.192-.132,1.324,1.324,0,0,0,0,2.649,6.622,6.622,0,1,1,0,13.243Z" transform="translate(0 -84)" fill="rgba(0,0,0,0.59)"/>
        <path id="Path_992" data-name="Path 992" d="M97.324,148a1.324,1.324,0,0,0,0,2.649,3.9,3.9,0,0,1,3.973,3.973,1.324,1.324,0,0,0,2.649,0A6.557,6.557,0,0,0,97.324,148Z" transform="translate(-80.108 -137.405)" fill="rgba(0,0,0,0.59)"/>
        <path id="Path_993" data-name="Path 993" d="M38.622,281.3a3.9,3.9,0,0,1-3.973-3.973,1.324,1.324,0,1,0-2.649,0,6.557,6.557,0,0,0,6.622,6.622,1.324,1.324,0,0,0,0-2.649Z" transform="translate(-26.703 -244.216)" fill="rgba(0,0,0,0.59)"/>
        <path id="Path_994" data-name="Path 994" d="M204.846,212.4a1.28,1.28,0,0,0-1.854,0l-4.37,4.37-4.37-4.37a1.311,1.311,0,0,0-1.854,1.854l4.37,4.37-4.37,4.37a1.28,1.28,0,0,0,0,1.854,1.28,1.28,0,0,0,1.854,0l4.37-4.37,4.37,4.37a1.28,1.28,0,0,0,1.854,0,1.28,1.28,0,0,0,0-1.854l-4.37-4.37,4.37-4.37A1.28,1.28,0,0,0,204.846,212.4Z" transform="translate(-160.216 -190.811)" fill="rgba(0,0,0,0.59)"/>
      </g>
    </g>
  </g>
</svg>
