<svg xmlns="http://www.w3.org/2000/svg" xmlns:xlink="http://www.w3.org/1999/xlink" width="296" height="201" viewBox="0 0 296 201">
  <defs>
    <clipPath id="clip-Web_1920_1">
      <rect width="296" height="201"/>
    </clipPath>
  </defs>
  <g id="Web_1920_1" data-name="Web 1920 – 1" clip-path="url(#clip-Web_1920_1)">
    <rect width="296" height="201" fill="rgba(255,255,255,0)"/>
    <g id="_3024049" data-name="3024049" transform="translate(-69.974 0.283)">
      <g id="Background_Complete" data-name="Background Complete" transform="translate(95.729)">
        <g id="Group_38" data-name="Group 38" transform="translate(0 53.831)">
          <g id="Group_22" data-name="Group 22">
            <rect id="Rectangle_47" data-name="Rectangle 47" width="59.429" height="87.507" transform="matrix(0.831, -0.556, 0.556, 0.831, 0, 33.04)" fill="#f5f5f5"/>
          </g>
          <g id="Group_25" data-name="Group 25" transform="translate(47.411 56.911)">
            <g id="Group_23" data-name="Group 23" transform="translate(0 8.839)">
              <path id="Path_50" data-name="Path 50" d="M240.484,275.162l-.561,3.469-24.556-3.538.561-3.469Z" transform="translate(-215.368 -271.624)" fill="#e0e0e0"/>
            </g>
            <g id="Group_24" data-name="Group 24" transform="translate(8.843)">
              <path id="Path_51" data-name="Path 51" d="M239.361,251.546l3.524.508-3.907,24.177-3.524-.508Z" transform="translate(-235.454 -251.546)" fill="#e0e0e0"/>
            </g>
          </g>
          <g id="Group_27" data-name="Group 27" transform="translate(53.178 27.612)">
            <g id="Group_26" data-name="Group 26">
              <path id="Path_52" data-name="Path 52" d="M228.466,184.995" transform="translate(-228.466 -184.995)" fill="none" stroke="#fff" stroke-miterlimit="10" stroke-width="1"/>
            </g>
          </g>
          <g id="Group_29" data-name="Group 29" transform="translate(15.304 26.18)">
            <g id="Group_28" data-name="Group 28">
              <path id="Path_53" data-name="Path 53" d="M164.675,181.744c.035.053-4.915,3.426-11.055,7.533s-11.149,7.4-11.184,7.342,4.914-3.425,11.056-7.533S164.64,181.692,164.675,181.744Z" transform="translate(-142.436 -181.744)" fill="#e0e0e0"/>
            </g>
          </g>
          <g id="Group_31" data-name="Group 31" transform="translate(18.811 21.621)">
            <g id="Group_30" data-name="Group 30">
              <path id="Path_54" data-name="Path 54" d="M187.3,171.387c.035.053-8.2,5.621-18.385,12.434s-18.478,12.3-18.514,12.245,8.2-5.619,18.386-12.436S187.266,171.334,187.3,171.387Z" transform="translate(-150.403 -171.386)" fill="#e0e0e0"/>
            </g>
          </g>
          <g id="Group_33" data-name="Group 33" transform="translate(22.453 27.065)">
            <g id="Group_32" data-name="Group 32">
              <path id="Path_55" data-name="Path 55" d="M195.573,183.753c.035.053-8.2,5.621-18.384,12.435s-18.478,12.3-18.514,12.245,8.2-5.619,18.386-12.436S195.537,183.7,195.573,183.753Z" transform="translate(-158.675 -183.752)" fill="#e0e0e0"/>
            </g>
          </g>
          <g id="Group_35" data-name="Group 35" transform="translate(26.094 32.509)">
            <g id="Group_34" data-name="Group 34">
              <path id="Path_56" data-name="Path 56" d="M203.844,196.12c.035.052-8.2,5.62-18.384,12.434s-18.478,12.3-18.514,12.245,8.2-5.619,18.386-12.436S203.808,196.067,203.844,196.12Z" transform="translate(-166.946 -196.119)" fill="#e0e0e0"/>
            </g>
          </g>
          <g id="Group_37" data-name="Group 37" transform="translate(29.735 37.953)">
            <g id="Group_36" data-name="Group 36">
              <path id="Path_57" data-name="Path 57" d="M212.115,208.486c.035.053-8.2,5.621-18.385,12.434s-18.478,12.3-18.514,12.245,8.2-5.619,18.386-12.435S212.08,208.433,212.115,208.486Z" transform="translate(-175.217 -208.485)" fill="#e0e0e0"/>
            </g>
          </g>
        </g>
        <g id="Group_55" data-name="Group 55" transform="translate(173.089 102.579)">
          <g id="Group_39" data-name="Group 39" transform="translate(0)">
            <rect id="Rectangle_48" data-name="Rectangle 48" width="49.91" height="73.491" transform="translate(0 27.748) rotate(-33.777)" fill="#f5f5f5"/>
          </g>
          <g id="Group_42" data-name="Group 42" transform="translate(39.818 47.795)">
            <g id="Group_40" data-name="Group 40" transform="translate(0 7.423)">
              <path id="Path_58" data-name="Path 58" d="M612.379,361.4l-.471,2.914-20.623-2.971.471-2.914Z" transform="translate(-591.285 -358.431)" fill="#e0e0e0"/>
            </g>
            <g id="Group_41" data-name="Group 41" transform="translate(7.427)">
              <path id="Path_59" data-name="Path 59" d="M611.436,341.569,614.4,342l-3.281,20.3-2.959-.426Z" transform="translate(-608.155 -341.569)" fill="#e0e0e0"/>
            </g>
          </g>
          <g id="Group_44" data-name="Group 44" transform="translate(44.66 23.189)">
            <g id="Group_43" data-name="Group 43">
              <path id="Path_60" data-name="Path 60" d="M602.285,285.678" transform="translate(-602.285 -285.678)" fill="none" stroke="#fff" stroke-miterlimit="10" stroke-width="1"/>
            </g>
          </g>
          <g id="Group_46" data-name="Group 46" transform="translate(12.852 21.987)">
            <g id="Group_45" data-name="Group 45">
              <path id="Path_61" data-name="Path 61" d="M548.712,282.947c.035.053-4.118,2.892-9.275,6.341s-9.367,6.2-9.4,6.151,4.117-2.891,9.276-6.342S548.677,282.895,548.712,282.947Z" transform="translate(-530.034 -282.946)" fill="#e0e0e0"/>
            </g>
          </g>
          <g id="Group_48" data-name="Group 48" transform="translate(15.798 18.157)">
            <g id="Group_47" data-name="Group 47">
              <path id="Path_62" data-name="Path 62" d="M567.714,274.248c.035.053-6.874,4.736-15.429,10.458s-15.523,10.321-15.559,10.269,6.872-4.734,15.431-10.459S567.679,274.2,567.714,274.248Z" transform="translate(-536.726 -274.248)" fill="#e0e0e0"/>
            </g>
          </g>
          <g id="Group_50" data-name="Group 50" transform="translate(18.856 22.73)">
            <g id="Group_49" data-name="Group 49">
              <path id="Path_63" data-name="Path 63" d="M574.661,284.634c.035.052-6.874,4.735-15.43,10.458s-15.523,10.321-15.558,10.268,6.872-4.734,15.431-10.459S574.625,284.582,574.661,284.634Z" transform="translate(-543.673 -284.634)" fill="#e0e0e0"/>
            </g>
          </g>
          <g id="Group_52" data-name="Group 52" transform="translate(21.914 27.302)">
            <g id="Group_51" data-name="Group 51">
              <path id="Path_64" data-name="Path 64" d="M581.607,295.019c.035.053-6.874,4.736-15.429,10.458s-15.523,10.321-15.559,10.269,6.872-4.734,15.431-10.459S581.572,294.967,581.607,295.019Z" transform="translate(-550.619 -295.019)" fill="#e0e0e0"/>
            </g>
          </g>
          <g id="Group_54" data-name="Group 54" transform="translate(24.973 31.874)">
            <g id="Group_53" data-name="Group 53">
              <path id="Path_65" data-name="Path 65" d="M588.554,305.405c.035.053-6.874,4.735-15.43,10.458s-15.523,10.321-15.558,10.268S564.438,321.4,573,315.673,588.518,305.353,588.554,305.405Z" transform="translate(-557.566 -305.405)" fill="#e0e0e0"/>
            </g>
          </g>
        </g>
        <g id="Group_72" data-name="Group 72" transform="translate(68.031 32.288)">
          <g id="Group_56" data-name="Group 56">
            <rect id="Rectangle_49" data-name="Rectangle 49" width="51.332" height="75.585" transform="matrix(0.882, 0.472, -0.472, 0.882, 35.646, 0)" fill="#f5f5f5"/>
          </g>
          <g id="Group_59" data-name="Group 59" transform="translate(21.906 49.858)">
            <g id="Group_57" data-name="Group 57" transform="translate(5.449)">
              <path id="Path_66" data-name="Path 66" d="M334.5,206.746l-2.872.984-7.29-20.152,2.872-.984Z" transform="translate(-324.341 -186.594)" fill="#e0e0e0"/>
            </g>
            <g id="Group_58" data-name="Group 58" transform="translate(0 5.695)">
              <path id="Path_67" data-name="Path 67" d="M331.977,199.529l1.046,2.892-20.013,6.854-1.046-2.892Z" transform="translate(-311.964 -199.529)" fill="#e0e0e0"/>
            </g>
          </g>
          <g id="Group_61" data-name="Group 61" transform="translate(61.407 38.317)">
            <g id="Group_60" data-name="Group 60">
              <path id="Path_68" data-name="Path 68" d="M401.689,160.379" transform="translate(-401.689 -160.379)" fill="none" stroke="#fff" stroke-miterlimit="10" stroke-width="1"/>
            </g>
          </g>
          <g id="Group_63" data-name="Group 63" transform="translate(35.76 14.921)">
            <g id="Group_62" data-name="Group 62">
              <path id="Path_69" data-name="Path 69" d="M363.813,118.134c-.035.066-4.627-2.32-10.253-5.329s-10.161-5.5-10.126-5.57,4.626,2.32,10.254,5.33S363.848,118.068,363.813,118.134Z" transform="translate(-343.434 -107.234)" fill="#e0e0e0"/>
            </g>
          </g>
          <g id="Group_65" data-name="Group 65" transform="translate(33.191 19.727)">
            <g id="Group_64" data-name="Group 64">
              <path id="Path_70" data-name="Path 70" d="M371.408,136.235c-.035.066-7.633-3.928-16.969-8.921s-16.878-9.1-16.842-9.161,7.632,3.927,16.97,8.922S371.443,136.168,371.408,136.235Z" transform="translate(-337.597 -118.151)" fill="#e0e0e0"/>
            </g>
          </g>
          <g id="Group_67" data-name="Group 67" transform="translate(30.522 24.715)">
            <g id="Group_66" data-name="Group 66">
              <path id="Path_71" data-name="Path 71" d="M365.347,147.566c-.036.066-7.634-3.928-16.969-8.921s-16.877-9.1-16.842-9.162,7.632,3.927,16.971,8.922S365.382,147.5,365.347,147.566Z" transform="translate(-331.536 -129.482)" fill="#e0e0e0"/>
            </g>
          </g>
          <g id="Group_69" data-name="Group 69" transform="translate(27.855 29.704)">
            <g id="Group_68" data-name="Group 68">
              <path id="Path_72" data-name="Path 72" d="M359.287,158.9c-.035.066-7.633-3.928-16.969-8.921s-16.878-9.1-16.842-9.162,7.632,3.927,16.97,8.922S359.322,158.832,359.287,158.9Z" transform="translate(-325.476 -140.814)" fill="#e0e0e0"/>
            </g>
          </g>
          <g id="Group_71" data-name="Group 71" transform="translate(25.186 34.693)">
            <g id="Group_70" data-name="Group 70">
              <path id="Path_73" data-name="Path 73" d="M353.226,170.23c-.036.066-7.634-3.928-16.969-8.921s-16.878-9.1-16.842-9.162,7.632,3.927,16.971,8.922S353.261,170.164,353.226,170.23Z" transform="translate(-319.415 -152.146)" fill="#e0e0e0"/>
            </g>
          </g>
        </g>
        <rect id="Rectangle_50" data-name="Rectangle 50" width="1.137" height="19.363" transform="translate(126.129)" opacity="0.2"/>
      </g>
      <g id="Lamp" transform="translate(195.91)">
        <g id="Group_75" data-name="Group 75">
          <g id="Group_74" data-name="Group 74" transform="translate(0 19.351)">
            <g id="Group_73" data-name="Group 73">
              <path id="Path_75" data-name="Path 75" d="M335.233,67.391h53.032s-4.9-23.436-26.918-23.436C341.76,43.955,335.233,67.391,335.233,67.391Z" transform="translate(-335.233 -43.955)" fill="#507fe8"/>
            </g>
          </g>
          <rect id="Rectangle_51" data-name="Rectangle 51" width="1.137" height="19.363" transform="translate(25.947)" fill="#507fe8"/>
        </g>
      </g>
      <g id="Character" transform="translate(264.174 30.414)">
        <g id="Group_499" data-name="Group 499">
          <g id="Group_337" data-name="Group 337" transform="translate(28.654 15.547)">
            <g id="Group_334" data-name="Group 334">
              <path id="Path_197" data-name="Path 197" d="M561.974,104.313c-1.294.3-1.925,1.787-2.048,3.11s.046,2.719-.509,3.926c-.625,1.358-2.118,2.359-2.168,3.853-.03.911.511,1.768.485,2.679-.043,1.5-1.569,2.627-1.649,4.122-.058,1.076.659,2.11.487,3.174a14.959,14.959,0,0,1-1.051,2.274c-.544,1.582.543,3.323,1.959,4.214a6.42,6.42,0,0,0,9.354-2.989,13.112,13.112,0,0,0,.442-6.091q-.8-9.579-1.182-19.186" transform="translate(-555.378 -103.399)" fill="#263238"/>
            </g>
            <g id="Group_336" data-name="Group 336" transform="translate(2.836 1.42)">
              <g id="Group_335" data-name="Group 335">
                <path id="Path_198" data-name="Path 198" d="M561.822,128.654a1.553,1.553,0,0,0,.592-.7,2.5,2.5,0,0,0,.151-1.075,5.952,5.952,0,0,0-.321-1.426,4.068,4.068,0,0,1-.23-1.805,4.117,4.117,0,0,1,1.049-1.8,4.016,4.016,0,0,0,.594-.9,1.459,1.459,0,0,0,.069-1.056c-.228-.719-.932-1.249-1.256-2.078a2.244,2.244,0,0,1-.071-1.285,5.216,5.216,0,0,1,.425-1.153,9.863,9.863,0,0,0,.875-2.071c.309-1.4.165-2.73.375-3.824a4.246,4.246,0,0,1,1.113-2.346,2.507,2.507,0,0,1,.582-.415,1,1,0,0,1,.233-.087,3.554,3.554,0,0,0-.751.565,4.284,4.284,0,0,0-1.017,2.31,14.425,14.425,0,0,0-.122,1.779,10.879,10.879,0,0,1-.207,2.067,9.827,9.827,0,0,1-.877,2.12,2.9,2.9,0,0,0-.342,2.261c.28.749.989,1.282,1.255,2.091a1.68,1.68,0,0,1-.082,1.21,4.2,4.2,0,0,1-.631.95,2.887,2.887,0,0,0-.828,3.429,5.873,5.873,0,0,1,.293,1.464,2.512,2.512,0,0,1-.2,1.116,1.339,1.339,0,0,1-.451.556A.726.726,0,0,1,561.822,128.654Z" transform="translate(-561.821 -106.624)" fill="#455a64"/>
              </g>
            </g>
          </g>
          <path id="Path_199" data-name="Path 199" d="M524.314,180.366l-3.974,11.456-16.572.888L501,198.86l17.3,1.751a6.537,6.537,0,0,0,8.651-3.837l4.617-12.888Z" transform="translate(-496.288 -130.935)" fill="#b78876"/>
          <g id="Group_342" data-name="Group 342" transform="translate(31.508 81.537)">
            <g id="Group_340" data-name="Group 340">
              <g id="Group_338" data-name="Group 338">
                <path id="Path_200" data-name="Path 200" d="M592.657,329.193s-12.145-38.573-12.4-39.825c-.233-1.132,4.408-28.89,4.992-36.074l-16.41.612v.12l-6.975.387,6.247,78.889h7.552l-.748-26.173a254.9,254.9,0,0,0,11.329,25.241Z" transform="translate(-561.86 -253.293)" fill="#b78876"/>
              </g>
              <g id="Group_339" data-name="Group 339" transform="translate(10.438 46.555)">
                <path id="Path_201" data-name="Path 201" d="M588.49,375.7c.007-.24-.092-8.769-.092-8.769-.094.51-2.9-7.406-2.827-7.887C585.606,358.8,588.49,375.7,588.49,375.7Z" transform="translate(-585.57 -359.042)" fill="#a36957"/>
              </g>
            </g>
            <g id="Group_341" data-name="Group 341" transform="translate(10.059 42.81)">
              <path id="Path_202" data-name="Path 202" d="M584.77,350.535a1.768,1.768,0,0,0-.048.478,12.583,12.583,0,0,0,.01,1.308c.01.277.039.578.075.9s.085.669.16,1.028a17.532,17.532,0,0,0,.617,2.3c.548,1.6,1.153,2.991,1.583,4l.526,1.193a1.765,1.765,0,0,0,.224.425,1.8,1.8,0,0,0-.133-.461c-.1-.291-.255-.709-.452-1.223-.388-1.03-.966-2.436-1.51-4.018a19.924,19.924,0,0,1-.628-2.264c-.08-.352-.131-.692-.181-1.009s-.083-.615-.1-.888c-.052-.545-.075-.989-.089-1.3A1.792,1.792,0,0,0,584.77,350.535Z" transform="translate(-584.709 -350.535)" fill="#a36957"/>
            </g>
          </g>
          <g id="Group_374" data-name="Group 374" transform="translate(32.415 160.887)">
            <g id="Group_373" data-name="Group 373">
              <g id="Group_344" data-name="Group 344" transform="translate(0.001)">
                <g id="Group_343" data-name="Group 343">
                  <path id="Path_203" data-name="Path 203" d="M569.12,434.58l0-.709,7.735-.337.021,2.925-.477.032c-2.123.124-10.8.482-12.225.056C562.586,436.072,569.12,434.58,569.12,434.58Z" transform="translate(-563.923 -433.534)" fill="#455a64"/>
                </g>
              </g>
              <g id="Group_346" data-name="Group 346" transform="translate(0 2.744)">
                <g id="Group_345" data-name="Group 345">
                  <path id="Path_204" data-name="Path 204" d="M576.98,439.771a.673.673,0,0,1-.132.015l-.38.024-1.4.066c-1.181.047-2.814.089-4.618.1s-3.437-.021-4.619-.058l-1.4-.053-.38-.021a.679.679,0,0,1-.132-.014.726.726,0,0,1,.133,0l.381,0,1.4.023c1.182.019,2.814.037,4.617.03s3.435-.04,4.616-.07l1.4-.036.38-.007A.728.728,0,0,1,576.98,439.771Z" transform="translate(-563.921 -439.767)" fill="#263238"/>
                </g>
              </g>
              <g id="Group_348" data-name="Group 348" transform="translate(1.949 1.795)">
                <g id="Group_347" data-name="Group 347">
                  <path id="Path_205" data-name="Path 205" d="M569.091,438.813a2.032,2.032,0,0,0-.742-1.2,1.242,1.242,0,0,1,.742,1.2Z" transform="translate(-568.349 -437.611)" fill="#263238"/>
                </g>
              </g>
              <g id="Group_350" data-name="Group 350" transform="translate(4.546 1.197)">
                <g id="Group_349" data-name="Group 349">
                  <path id="Path_206" data-name="Path 206" d="M574.66,436.893c-.022.014-.131-.118-.244-.295s-.187-.331-.165-.344.131.118.244.294S574.682,436.88,574.66,436.893Z" transform="translate(-574.247 -436.254)" fill="#263238"/>
                </g>
              </g>
              <g id="Group_352" data-name="Group 352" transform="translate(5.097 1.073)">
                <g id="Group_351" data-name="Group 351">
                  <path id="Path_207" data-name="Path 207" d="M575.982,436.4c-.017.019-.139-.061-.272-.18s-.227-.231-.21-.25.139.061.272.18S576,436.385,575.982,436.4Z" transform="translate(-575.498 -435.971)" fill="#263238"/>
                </g>
              </g>
              <g id="Group_354" data-name="Group 354" transform="translate(5.168 0.737)">
                <g id="Group_353" data-name="Group 353">
                  <path id="Path_208" data-name="Path 208" d="M576.464,435.248a.9.9,0,0,1-.4.053.915.915,0,0,1-.4-.041.9.9,0,0,1,.4-.053A.916.916,0,0,1,576.464,435.248Z" transform="translate(-575.66 -435.207)" fill="#263238"/>
                </g>
              </g>
              <g id="Group_356" data-name="Group 356" transform="translate(5.195 0.257)">
                <g id="Group_355" data-name="Group 355">
                  <path id="Path_209" data-name="Path 209" d="M576.631,434.126a1.133,1.133,0,0,1-.91.072,2.52,2.52,0,0,1,.456-.033A2.489,2.489,0,0,1,576.631,434.126Z" transform="translate(-575.721 -434.119)" fill="#263238"/>
                </g>
              </g>
              <g id="Group_358" data-name="Group 358" transform="translate(3.243 0.479)">
                <g id="Group_357" data-name="Group 357">
                  <path id="Path_210" data-name="Path 210" d="M572.74,435.309a1.419,1.419,0,0,1-.494,0,2.905,2.905,0,0,1-.527-.114,1.449,1.449,0,0,1-.3-.123.266.266,0,0,1-.123-.153.194.194,0,0,1,.074-.2.907.907,0,0,1,1.122.261.879.879,0,0,1,.162.329.28.28,0,0,1,.014.134,1.405,1.405,0,0,0-.227-.421.89.89,0,0,0-.423-.273.769.769,0,0,0-.589.042c-.078.059-.047.151.04.2a1.5,1.5,0,0,0,.279.118,3.419,3.419,0,0,0,.51.13C572.552,435.294,572.74,435.294,572.74,435.309Z" transform="translate(-571.288 -434.621)" fill="#263238"/>
                </g>
              </g>
              <g id="Group_360" data-name="Group 360" transform="translate(4.505 0.233)">
                <g id="Group_359" data-name="Group 359">
                  <path id="Path_211" data-name="Path 211" d="M574.216,435.022a.489.489,0,0,1-.058-.343.806.806,0,0,1,.134-.362.5.5,0,0,1,.411-.254.2.2,0,0,1,.153.228.546.546,0,0,1-.083.221,1.49,1.49,0,0,1-.232.3.71.71,0,0,1-.282.2c-.009-.012.1-.089.234-.246a1.732,1.732,0,0,0,.206-.3c.067-.1.113-.293-.011-.315s-.25.112-.325.211a.824.824,0,0,0-.139.322A1.862,1.862,0,0,0,574.216,435.022Z" transform="translate(-574.154 -434.063)" fill="#263238"/>
                </g>
              </g>
              <g id="Group_362" data-name="Group 362" transform="translate(10.167 0.593)">
                <g id="Group_361" data-name="Group 361">
                  <path id="Path_212" data-name="Path 212" d="M589.742,434.931c0,.017-.221-.02-.568.022a2.41,2.41,0,0,0-2.01,1.614c-.116.33-.127.552-.144.55a.438.438,0,0,1,0-.155,2.019,2.019,0,0,1,.082-.416,2.338,2.338,0,0,1,2.066-1.659,2.023,2.023,0,0,1,.423.009A.435.435,0,0,1,589.742,434.931Z" transform="translate(-587.014 -434.881)" fill="#263238"/>
                </g>
              </g>
              <g id="Group_364" data-name="Group 364" transform="translate(6.941 2.126)">
                <g id="Group_363" data-name="Group 363">
                  <path id="Path_213" data-name="Path 213" d="M581.936,438.372a6.322,6.322,0,0,1-2.249.012c0-.027.5.006,1.125,0S581.933,438.345,581.936,438.372Z" transform="translate(-579.687 -438.362)" fill="#263238"/>
                </g>
              </g>
              <g id="Group_366" data-name="Group 366" transform="translate(10.479 2.116)">
                <g id="Group_365" data-name="Group 365">
                  <path id="Path_214" data-name="Path 214" d="M587.943,438.343c.018.019-.041.107-.092.222s-.078.218-.1.217-.04-.121.02-.254S587.926,438.325,587.943,438.343Z" transform="translate(-587.724 -438.34)" fill="#263238"/>
                </g>
              </g>
              <g id="Group_368" data-name="Group 368" transform="translate(10.972 1.406)">
                <g id="Group_367" data-name="Group 367">
                  <path id="Path_215" data-name="Path 215" d="M589.136,436.73c.018.018-.031.1-.11.179s-.159.132-.177.114.031-.1.11-.179S589.117,436.712,589.136,436.73Z" transform="translate(-588.845 -436.727)" fill="#263238"/>
                </g>
              </g>
              <g id="Group_370" data-name="Group 370" transform="translate(11.637 1.04)">
                <g id="Group_369" data-name="Group 369">
                  <path id="Path_216" data-name="Path 216" d="M590.793,435.939c-.005.026-.108.026-.221.066s-.194.1-.214.083.044-.124.184-.172S590.8,435.915,590.793,435.939Z" transform="translate(-590.354 -435.895)" fill="#263238"/>
                </g>
              </g>
              <g id="Group_372" data-name="Group 372" transform="translate(12.422 0.911)">
                <g id="Group_371" data-name="Group 371">
                  <path id="Path_217" data-name="Path 217" d="M592.37,435.621c.009.024-.035.064-.1.088s-.123.026-.133,0,.035-.064.1-.089S592.36,435.6,592.37,435.621Z" transform="translate(-592.137 -435.604)" fill="#263238"/>
                </g>
              </g>
            </g>
          </g>
          <g id="Group_406" data-name="Group 406" transform="translate(51.714 157.129)">
            <g id="Group_405" data-name="Group 405">
              <g id="Group_376" data-name="Group 376">
                <g id="Group_375" data-name="Group 375">
                  <path id="Path_218" data-name="Path 218" d="M611.78,429.12l-.294-.645L618.4,425l1.218,2.66-.422.225c-1.886.983-9.659,4.866-11.129,5.059C606.43,433.157,611.78,429.12,611.78,429.12Z" transform="translate(-607.758 -424.998)" fill="#455a64"/>
                </g>
              </g>
              <g id="Group_378" data-name="Group 378" transform="translate(0 2.454)">
                <g id="Group_377" data-name="Group 377">
                  <path id="Path_219" data-name="Path 219" d="M619.649,430.573a.771.771,0,0,1-.115.068l-.336.178-1.249.632c-1.058.527-2.531,1.234-4.173,1.981s-3.145,1.389-4.237,1.839l-1.3.525-.355.136a.7.7,0,0,1-.126.042.678.678,0,0,1,.119-.059l.349-.153,1.286-.552c1.086-.466,2.582-1.118,4.224-1.864s3.117-1.444,4.182-1.955l1.262-.606.344-.162A.741.741,0,0,1,619.649,430.573Z" transform="translate(-607.759 -430.572)" fill="#263238"/>
                </g>
              </g>
              <g id="Group_380" data-name="Group 380" transform="translate(1.366 6.127)">
                <g id="Group_379" data-name="Group 379">
                  <path id="Path_220" data-name="Path 220" d="M612.029,439.716a2.035,2.035,0,0,0-1.169-.791,1.243,1.243,0,0,1,1.169.791Z" transform="translate(-610.86 -438.914)" fill="#263238"/>
                </g>
              </g>
              <g id="Group_382" data-name="Group 382" transform="translate(3.491 4.522)">
                <g id="Group_381" data-name="Group 381">
                  <path id="Path_221" data-name="Path 221" d="M616.324,435.689c-.014.022-.168-.054-.343-.169s-.306-.225-.292-.247.168.054.343.169S616.339,435.667,616.324,435.689Z" transform="translate(-615.689 -435.27)" fill="#263238"/>
                </g>
              </g>
              <g id="Group_384" data-name="Group 384" transform="translate(3.943 4.18)">
                <g id="Group_383" data-name="Group 383">
                  <path id="Path_222" data-name="Path 222" d="M617.33,434.7c-.008.025-.152,0-.322-.053s-.3-.117-.294-.142.152,0,.322.053S617.338,434.672,617.33,434.7Z" transform="translate(-616.714 -434.492)" fill="#263238"/>
                </g>
              </g>
              <g id="Group_386" data-name="Group 386" transform="translate(3.889 3.555)">
                <g id="Group_385" data-name="Group 385">
                  <path id="Path_223" data-name="Path 223" d="M617.32,433.077c.011.023-.143.118-.345.212a.906.906,0,0,1-.384.128c-.011-.023.143-.118.344-.213A.908.908,0,0,1,617.32,433.077Z" transform="translate(-616.591 -433.072)" fill="#263238"/>
                </g>
              </g>
              <g id="Group_388" data-name="Group 388" transform="translate(3.728 3.035)">
                <g id="Group_387" data-name="Group 387">
                  <path id="Path_224" data-name="Path 224" d="M617.027,431.894c.017.018-.125.179-.354.3a.784.784,0,0,1-.447.135,2.428,2.428,0,0,1,.4-.217A2.518,2.518,0,0,1,617.027,431.894Z" transform="translate(-616.226 -431.892)" fill="#263238"/>
                </g>
              </g>
              <g id="Group_390" data-name="Group 390" transform="translate(2.094 4.133)">
                <g id="Group_389" data-name="Group 389">
                  <path id="Path_225" data-name="Path 225" d="M614.033,434.69a1.424,1.424,0,0,1-.452.2,2.883,2.883,0,0,1-.527.112,1.424,1.424,0,0,1-.326.011.268.268,0,0,1-.175-.089.194.194,0,0,1-.013-.211.906.906,0,0,1,1.131-.221.882.882,0,0,1,.283.234c.053.069.071.114.067.116a1.4,1.4,0,0,0-.379-.291.89.89,0,0,0-.5-.076.767.767,0,0,0-.52.28c-.048.085.018.157.119.168a1.483,1.483,0,0,0,.3-.007,3.364,3.364,0,0,0,.519-.09C613.855,434.754,614.027,434.676,614.033,434.69Z" transform="translate(-612.515 -434.386)" fill="#263238"/>
                </g>
              </g>
              <g id="Group_392" data-name="Group 392" transform="translate(3.274 3.436)">
                <g id="Group_391" data-name="Group 391">
                  <path id="Path_226" data-name="Path 226" d="M615.426,433.879a.488.488,0,0,1-.194-.289.817.817,0,0,1-.026-.385.5.5,0,0,1,.271-.4c.111-.034.368.188.386.272s-.13.04-.138.11a1.517,1.517,0,0,1-.089.369.707.707,0,0,1-.175.3c-.013-.008.053-.122.113-.32a1.732,1.732,0,0,0,.066-.356c.019-.123-.016-.313-.139-.283s-.182.2-.21.326a.817.817,0,0,0,.005.351A1.833,1.833,0,0,0,615.426,433.879Z" transform="translate(-615.195 -432.802)" fill="#263238"/>
                </g>
              </g>
              <g id="Group_394" data-name="Group 394" transform="translate(9.111 0.6)">
                <g id="Group_393" data-name="Group 393">
                  <path id="Path_227" data-name="Path 227" d="M630.22,426.362c.005.017-.21.072-.509.253a2.41,2.41,0,0,0-1.172,2.3c.029.349.11.556.094.561a.451.451,0,0,1-.064-.141,2.023,2.023,0,0,1-.1-.412,2.339,2.339,0,0,1,1.2-2.36,2.034,2.034,0,0,1,.39-.165A.457.457,0,0,1,630.22,426.362Z" transform="translate(-628.453 -426.361)" fill="#263238"/>
                </g>
              </g>
              <g id="Group_396" data-name="Group 396" transform="translate(6.062 3.479)">
                <g id="Group_395" data-name="Group 395">
                  <path id="Path_228" data-name="Path 228" d="M623.576,432.9a6.311,6.311,0,0,1-2.047.932c-.009-.026.463-.2,1.027-.459S623.562,432.877,623.576,432.9Z" transform="translate(-621.529 -432.899)" fill="#263238"/>
                </g>
              </g>
              <g id="Group_398" data-name="Group 398" transform="translate(9.392 2.847)">
                <g id="Group_397" data-name="Group 397">
                  <path id="Path_229" data-name="Path 229" d="M629.178,431.465c.025.009.007.114.007.24s.018.231-.007.24-.086-.094-.086-.24S629.155,431.455,629.178,431.465Z" transform="translate(-629.092 -431.464)" fill="#263238"/>
                </g>
              </g>
              <g id="Group_400" data-name="Group 400" transform="translate(9.549 1.968)">
                <g id="Group_399" data-name="Group 399">
                  <path id="Path_230" data-name="Path 230" d="M629.6,429.468c.024.009.012.1-.027.209s-.091.185-.115.177-.012-.1.027-.209S629.579,429.459,629.6,429.468Z" transform="translate(-629.449 -429.467)" fill="#263238"/>
                </g>
              </g>
              <g id="Group_402" data-name="Group 402" transform="translate(9.965 1.326)">
                <g id="Group_401" data-name="Group 401">
                  <path id="Path_231" data-name="Path 231" d="M630.739,428.022c.006.026-.088.067-.174.15s-.136.171-.161.164-.011-.131.1-.232S630.736,428,630.739,428.022Z" transform="translate(-630.393 -428.009)" fill="#263238"/>
                </g>
              </g>
              <g id="Group_404" data-name="Group 404" transform="translate(10.596 0.954)">
                <g id="Group_403" data-name="Group 403">
                  <path id="Path_232" data-name="Path 232" d="M632.005,427.172c.018.018-.006.072-.054.121s-.1.074-.12.056.005-.073.053-.122S631.987,427.154,632.005,427.172Z" transform="translate(-631.826 -427.166)" fill="#263238"/>
                </g>
              </g>
            </g>
          </g>
          <g id="Group_429" data-name="Group 429" transform="translate(23.967 37.643)">
            <g id="Group_419" data-name="Group 419" transform="translate(0.085)">
              <g id="Group_418" data-name="Group 418">
                <g id="Group_411" data-name="Group 411">
                  <g id="Group_410" data-name="Group 410">
                    <g id="Group_409" data-name="Group 409">
                      <g id="Group_408" data-name="Group 408">
                        <g id="Group_407" data-name="Group 407">
                          <path id="Path_233" data-name="Path 233" d="M574.7,184.426l-1.288-15.715,6.616.118a26.316,26.316,0,0,0-.668-7.4,8.577,8.577,0,0,0-5-6.164v-.042l-.2-.053a18.907,18.907,0,0,0-6.06-1.581l-8.121.094s-6.2-.774-9.638,3.649c-1.323,1.7-5.416,13.364-5.416,13.364l9.748,4.695-.928-6.466s.184,4.688.783,6.173c.333.828,1.3,3.4,1.3,3.4l-.126,7.754Z" transform="translate(-544.924 -153.589)" fill="#507fe8"/>
                        </g>
                      </g>
                    </g>
                  </g>
                </g>
                <g id="Group_412" data-name="Group 412" transform="translate(24.092 9.366)">
                  <path id="Path_234" data-name="Path 234" d="M600.854,178.339l-1.205,5.136h11.372l-.748-8.61Z" transform="translate(-599.649 -174.864)" fill="#507fe8"/>
                </g>
                <g id="Group_414" data-name="Group 414" transform="translate(25.164 17.732)">
                  <g id="Group_413" data-name="Group 413">
                    <path id="Path_235" data-name="Path 235" d="M612.383,194.112a8.467,8.467,0,0,0-1.505-.149c-.932-.055-2.221-.1-3.647-.094s-2.715.069-3.646.143a8.125,8.125,0,0,0-1.5.185,10.156,10.156,0,0,0,1.511-.008c.931-.029,2.217-.062,3.638-.069s2.708.012,3.64.021A9.655,9.655,0,0,0,612.383,194.112Z" transform="translate(-602.083 -193.868)" fill="#263238"/>
                  </g>
                </g>
                <g id="Group_416" data-name="Group 416" transform="translate(24.767 9.324)">
                  <g id="Group_415" data-name="Group 415">
                    <path id="Path_236" data-name="Path 236" d="M601.222,174.768a6.832,6.832,0,0,0-.038,1.307c.009.806.038,1.918.085,3.146s.1,2.34.159,3.144a6.771,6.771,0,0,0,.139,1.3,6.723,6.723,0,0,0,.038-1.306c-.008-.806-.037-1.919-.085-3.147s-.1-2.34-.159-3.144A6.74,6.74,0,0,0,601.222,174.768Z" transform="translate(-601.181 -174.768)" fill="#263238"/>
                  </g>
                </g>
                <g id="Group_417" data-name="Group 417" transform="translate(14.459 13.772)" opacity="0.3">
                  <path id="Path_237" data-name="Path 237" d="M577.768,184.872s2.528,18.74,9.633,18.244c0,0,3.2-.038,4.228-2.164v-.837Z" transform="translate(-577.768 -184.872)"/>
                </g>
              </g>
            </g>
            <g id="Group_420" data-name="Group 420" transform="translate(23.532 10.429)" opacity="0.3">
              <path id="Path_238" data-name="Path 238" d="M599.544,177.277l-1.36,9.187.881,1.612,1.45-3.152-.613-.015Z" transform="translate(-598.184 -177.277)"/>
            </g>
            <g id="Group_422" data-name="Group 422" transform="translate(8.712 13.031)">
              <g id="Group_421" data-name="Group 421">
                <path id="Path_239" data-name="Path 239" d="M566.793,195.063a1.924,1.924,0,0,1-.192-.439c-.11-.287-.257-.707-.427-1.23a37.378,37.378,0,0,1-1.088-4.159,30.059,30.059,0,0,1-.539-4.266c-.026-.55-.034-.995-.026-1.3a1.922,1.922,0,0,1,.033-.478c.036,0,.061.678.155,1.77a39.665,39.665,0,0,0,.6,4.233c.327,1.638.719,3.1,1.018,4.156l.357,1.249A1.934,1.934,0,0,1,566.793,195.063Z" transform="translate(-564.518 -183.188)" fill="#263238"/>
              </g>
            </g>
            <g id="Group_424" data-name="Group 424" transform="translate(13.273 28.418)">
              <g id="Group_423" data-name="Group 423">
                <path id="Path_240" data-name="Path 240" d="M575.466,220.012c-.061.018-.236-.386-.393-.9a2.179,2.179,0,0,1-.173-.969c.06-.018.236.386.393.9A2.184,2.184,0,0,1,575.466,220.012Z" transform="translate(-574.879 -218.139)" fill="#263238"/>
              </g>
            </g>
            <g id="Group_426" data-name="Group 426" transform="translate(14.581 27.471)">
              <g id="Group_425" data-name="Group 425">
                <path id="Path_241" data-name="Path 241" d="M578.112,218.737a4.059,4.059,0,0,1-.04-2.747,89.061,89.061,0,0,0,.04,2.747Z" transform="translate(-577.851 -215.99)" fill="#263238"/>
              </g>
            </g>
            <g id="Group_428" data-name="Group 428" transform="translate(0 17.001)">
              <g id="Group_427" data-name="Group 427">
                <path id="Path_242" data-name="Path 242" d="M554.762,197.22c-.029.057-2.3-1.02-5.066-2.4s-4.993-2.553-4.965-2.609,2.3,1.019,5.067,2.4S554.79,197.164,554.762,197.22Z" transform="translate(-544.73 -192.206)" fill="#263238"/>
              </g>
            </g>
          </g>
          <g id="Group_478" data-name="Group 478" transform="translate(34.601 14.815)">
            <g id="Group_460" data-name="Group 460" transform="translate(0 2.923)">
              <g id="Group_459" data-name="Group 459">
                <g id="Group_458" data-name="Group 458">
                  <g id="Group_457" data-name="Group 457">
                    <g id="Group_456" data-name="Group 456">
                      <g id="Group_432" data-name="Group 432">
                        <g id="Group_431" data-name="Group 431">
                          <g id="Group_430" data-name="Group 430">
                            <path id="Path_243" data-name="Path 243" d="M572.281,129.893c.051-2.227.063-4.573.063-4.573s-2.857-.55-3.354-4.309c-.475-3.584.853-12,.853-12h0a10.041,10.041,0,0,1,11.368,3.234h0l-.71,18.083a3.882,3.882,0,0,1-4.2,3.6h0A4.1,4.1,0,0,1,572.281,129.893Z" transform="translate(-568.887 -108.375)" fill="#b78876"/>
                          </g>
                        </g>
                      </g>
                      <g id="Group_440" data-name="Group 440" transform="translate(0.553 6.251)">
                        <g id="Group_435" data-name="Group 435" transform="translate(0.185 0.69)">
                          <g id="Group_434" data-name="Group 434">
                            <g id="Group_433" data-name="Group 433">
                              <path id="Path_244" data-name="Path 244" d="M570.564,124.563a.48.48,0,0,0,.45.5.459.459,0,0,0,.506-.42.481.481,0,0,0-.45-.5A.459.459,0,0,0,570.564,124.563Z" transform="translate(-570.563 -124.141)" fill="#263238"/>
                            </g>
                          </g>
                        </g>
                        <g id="Group_439" data-name="Group 439">
                          <g id="Group_438" data-name="Group 438">
                            <g id="Group_437" data-name="Group 437">
                              <g id="Group_436" data-name="Group 436">
                                <path id="Path_245" data-name="Path 245" d="M570.15,123.055c.058.064.428-.2.945-.181s.888.283.946.221c.028-.027-.03-.142-.192-.266a1.32,1.32,0,0,0-.755-.254,1.268,1.268,0,0,0-.754.222C570.178,122.915,570.121,123.027,570.15,123.055Z" transform="translate(-570.143 -122.574)" fill="#263238"/>
                              </g>
                            </g>
                          </g>
                        </g>
                      </g>
                      <g id="Group_448" data-name="Group 448" transform="translate(5.938 6.578)">
                        <g id="Group_443" data-name="Group 443" transform="translate(0.041 0.689)">
                          <g id="Group_442" data-name="Group 442">
                            <g id="Group_441" data-name="Group 441">
                              <path id="Path_246" data-name="Path 246" d="M582.47,125.3a.48.48,0,0,0,.45.5.459.459,0,0,0,.506-.42.481.481,0,0,0-.45-.5A.46.46,0,0,0,582.47,125.3Z" transform="translate(-582.469 -124.882)" fill="#263238"/>
                            </g>
                          </g>
                        </g>
                        <g id="Group_447" data-name="Group 447">
                          <g id="Group_446" data-name="Group 446">
                            <g id="Group_445" data-name="Group 445">
                              <g id="Group_444" data-name="Group 444">
                                <path id="Path_247" data-name="Path 247" d="M582.382,123.8c.058.064.429-.2.945-.181s.889.283.947.221c.028-.027-.029-.142-.192-.266a1.314,1.314,0,0,0-.755-.254,1.262,1.262,0,0,0-.754.222C582.411,123.658,582.354,123.769,582.382,123.8Z" transform="translate(-582.375 -123.317)" fill="#263238"/>
                              </g>
                            </g>
                          </g>
                        </g>
                      </g>
                      <g id="Group_452" data-name="Group 452" transform="translate(2.665 6.543)">
                        <g id="Group_451" data-name="Group 451">
                          <g id="Group_450" data-name="Group 450">
                            <g id="Group_449" data-name="Group 449">
                              <path id="Path_248" data-name="Path 248" d="M576.247,127.537a3.4,3.4,0,0,0-.835-.173c-.132-.017-.256-.047-.276-.137a.672.672,0,0,1,.1-.389l.416-.994a17.232,17.232,0,0,0,.944-2.6,17.281,17.281,0,0,0-1.151,2.523q-.209.524-.4,1a.764.764,0,0,0-.082.516.331.331,0,0,0,.212.2.9.9,0,0,0,.224.037A3.375,3.375,0,0,0,576.247,127.537Z" transform="translate(-574.94 -123.238)" fill="#263238"/>
                            </g>
                          </g>
                        </g>
                      </g>
                      <g id="Group_455" data-name="Group 455" transform="translate(3.457 15.738)">
                        <g id="Group_454" data-name="Group 454">
                          <g id="Group_453" data-name="Group 453">
                            <path id="Path_249" data-name="Path 249" d="M576.739,145.331a9.525,9.525,0,0,0,5.048-1.208s-1.283,2.54-5.02,2.093Z" transform="translate(-576.739 -144.123)" fill="#a36957"/>
                          </g>
                        </g>
                      </g>
                    </g>
                  </g>
                </g>
              </g>
            </g>
            <g id="Group_462" data-name="Group 462" transform="translate(5.787 7.798)">
              <g id="Group_461" data-name="Group 461">
                <path id="Path_250" data-name="Path 250" d="M583.844,120.143c-.106.162-.5.09-.939.011s-.83-.166-.87-.356.411-.433,1-.32S583.951,119.99,583.844,120.143Z" transform="translate(-582.032 -119.45)" fill="#263238"/>
              </g>
            </g>
            <g id="Group_464" data-name="Group 464" transform="translate(0.543 7.326)">
              <g id="Group_463" data-name="Group 463">
                <path id="Path_251" data-name="Path 251" d="M572.04,118.784c-.04.188-.461.257-.946.282s-.911-.01-.968-.194.353-.467.936-.493S572.081,118.6,572.04,118.784Z" transform="translate(-570.121 -118.376)" fill="#263238"/>
              </g>
            </g>
            <g id="Group_465" data-name="Group 465" transform="translate(3.66 14.981)">
              <path id="Path_252" data-name="Path 252" d="M577.52,135.785a.261.261,0,0,0-.286.131.294.294,0,1,0,.176-.14" transform="translate(-577.2 -135.765)" fill="#a36957"/>
            </g>
            <g id="Group_467" data-name="Group 467" transform="translate(3.495 14.942)">
              <g id="Group_466" data-name="Group 466">
                <path id="Path_253" data-name="Path 253" d="M577.431,135.787c.023-.021-.083-.147-.308-.1a.392.392,0,0,0-.283.276.443.443,0,0,0,.155.468.435.435,0,0,0,.5,0,.372.372,0,0,0,.159-.367c-.045-.232-.217-.269-.222-.237s.06.11.044.247a.2.2,0,0,1-.1.162.223.223,0,0,1-.223-.01.233.233,0,0,1-.079-.213.223.223,0,0,1,.119-.163C577.306,135.786,577.415,135.819,577.431,135.787Z" transform="translate(-576.825 -135.677)" fill="#263238"/>
              </g>
            </g>
            <g id="Group_477" data-name="Group 477" transform="translate(0.738)">
              <g id="Group_468" data-name="Group 468">
                <path id="Path_254" data-name="Path 254" d="M580.418,112.95c-.445,1.032-1.532,1.827-1.381,2.941.1.719.559,1.389.469,2.11-.113.9-1.052,1.531-1.185,2.432-.163,1.106.913,1.965,1.342,3,.626,1.5-.175,3.193-.194,4.82a5.168,5.168,0,0,0,4.576,5.027,2.791,2.791,0,0,0,2.658-1.084,11.056,11.056,0,0,0,.6-2.409c.384-1.178,1.507-2.041,1.744-3.257.431-2.218-2.248-4.052-2.072-6.3a15.621,15.621,0,0,1,.922-2.733,4,4,0,0,0-.786-3.562c-.661-.787-1.621-1.3-2.184-2.163a9.479,9.479,0,0,1-.9-3.351,8.441,8.441,0,0,0-13.406-4.944,2.741,2.741,0,0,0,2.338,3.387c2.978.485,4.359-.075,4.695,1.119a3.156,3.156,0,0,0,.892,2.726C579.777,112.034,580.934,111.755,580.418,112.95Z" transform="translate(-570.563 -101.736)" fill="#263238"/>
              </g>
              <g id="Group_470" data-name="Group 470" transform="translate(9.651 8.115)">
                <g id="Group_469" data-name="Group 469">
                  <path id="Path_255" data-name="Path 255" d="M597.442,143.392a1.222,1.222,0,0,1-.272-.028,4.025,4.025,0,0,1-.758-.2,5.344,5.344,0,0,1-2.3-1.706,6.036,6.036,0,0,1-.98-1.744,7,7,0,0,1-.4-2.26,9.2,9.2,0,0,1,.317-2.514,10.97,10.97,0,0,1,.421-1.274,12.674,12.674,0,0,0,.483-1.265,2.378,2.378,0,0,0,0-1.291,7.022,7.022,0,0,0-.5-1.205,8.037,8.037,0,0,1-.513-1.193,2.577,2.577,0,0,1-.092-1.265,8.951,8.951,0,0,1,.977-2.073,3.943,3.943,0,0,0,.4-1.875,4.432,4.432,0,0,0-.982-2.6,7.865,7.865,0,0,0-.748-.728,3.044,3.044,0,0,1,.816.67,4.415,4.415,0,0,1,1.076,2.648,4.075,4.075,0,0,1-.39,1.965,9.119,9.119,0,0,0-.94,2.03,3.71,3.71,0,0,0,.6,2.319,7.154,7.154,0,0,1,.519,1.245,2.609,2.609,0,0,1,.006,1.411,12.621,12.621,0,0,1-.493,1.29,10.837,10.837,0,0,0-.416,1.247,9.108,9.108,0,0,0-.323,2.453,6.352,6.352,0,0,0,1.3,3.907,5.431,5.431,0,0,0,2.21,1.724C597.069,143.328,597.448,143.366,597.442,143.392Z" transform="translate(-592.485 -120.169)" fill="#455a64"/>
                </g>
              </g>
              <g id="Group_472" data-name="Group 472" transform="translate(1.065 1.328)">
                <g id="Group_471" data-name="Group 471">
                  <path id="Path_256" data-name="Path 256" d="M586.087,112.547a3.122,3.122,0,0,1-.656.1,6.837,6.837,0,0,1-1.813-.048,3.447,3.447,0,0,1-2.288-1.389,7.448,7.448,0,0,1-.6-1.478,2.442,2.442,0,0,0-1-1.238,7.141,7.141,0,0,0-3.088-.806,5.363,5.363,0,0,1-2.566-.8,2.544,2.544,0,0,1-1.05-1.47,1.584,1.584,0,0,1-.034-.5.505.505,0,0,1,.036-.17,3.232,3.232,0,0,0,.085.645,2.534,2.534,0,0,0,1.057,1.359,5.347,5.347,0,0,0,2.5.722,7.151,7.151,0,0,1,3.187.824,2.649,2.649,0,0,1,1.088,1.349,7.616,7.616,0,0,0,.569,1.445,3.326,3.326,0,0,0,2.141,1.343,7.7,7.7,0,0,0,1.777.118A4.464,4.464,0,0,1,586.087,112.547Z" transform="translate(-572.981 -104.752)" fill="#455a64"/>
                </g>
              </g>
              <g id="Group_474" data-name="Group 474" transform="translate(1.872 0.756)">
                <g id="Group_473" data-name="Group 473">
                  <path id="Path_257" data-name="Path 257" d="M586.021,108.235a1.338,1.338,0,0,1-.516.076,3.157,3.157,0,0,1-2.208-.882,4.183,4.183,0,0,1-.683-.911,3.789,3.789,0,0,0-1.6-1.837,5.266,5.266,0,0,0-2.466-.217,7.539,7.539,0,0,1-2.105-.018,2.623,2.623,0,0,1-1.3-.582,1.5,1.5,0,0,1-.259-.291c-.05-.074-.072-.114-.066-.119s.123.142.381.341a2.7,2.7,0,0,0,1.269.492,7.933,7.933,0,0,0,2.06-.033,5.3,5.3,0,0,1,2.578.217,2.545,2.545,0,0,1,1.051.873,11.631,11.631,0,0,1,.641,1.067,4.131,4.131,0,0,0,.634.883,3.032,3.032,0,0,0,.757.559,3.265,3.265,0,0,0,1.319.368C585.835,108.241,586.018,108.216,586.021,108.235Z" transform="translate(-574.816 -103.454)" fill="#455a64"/>
                </g>
              </g>
              <g id="Group_476" data-name="Group 476" transform="translate(12.815 9.347)">
                <g id="Group_475" data-name="Group 475">
                  <path id="Path_258" data-name="Path 258" d="M602.778,144.009c-.022-.01.118-.294.28-.835a7.58,7.58,0,0,0,.293-2.36,7.249,7.249,0,0,0-.939-3.362c-.322-.577-.811-1.09-1.21-1.724a3.115,3.115,0,0,1-.444-1.063,2.4,2.4,0,0,1,.1-1.188,13.9,13.9,0,0,0,.784-2.1,2.893,2.893,0,0,0-.571-1.908,8.785,8.785,0,0,1-.471-.875,3.148,3.148,0,0,1-.249-.919A8.153,8.153,0,0,1,600.4,126a4.44,4.44,0,0,0-.209-2.339,2.122,2.122,0,0,0-.52-.689s.02,0,.053.025a.9.9,0,0,1,.14.1,1.628,1.628,0,0,1,.406.524,4.362,4.362,0,0,1,.29,2.392,8.263,8.263,0,0,0-.022,1.642,4.168,4.168,0,0,0,.714,1.71,5.823,5.823,0,0,1,.479.936,2.22,2.22,0,0,1,.133,1.111,13.164,13.164,0,0,1-.788,2.137,2.183,2.183,0,0,0-.092,1.078,2.909,2.909,0,0,0,.41.986c.378.608.87,1.132,1.2,1.736a7.269,7.269,0,0,1,.918,3.463,7.121,7.121,0,0,1-.37,2.391,5.2,5.2,0,0,1-.254.608A.865.865,0,0,1,602.778,144.009Z" transform="translate(-599.67 -122.968)" fill="#455a64"/>
                </g>
              </g>
            </g>
          </g>
          <g id="Group_488" data-name="Group 488" transform="translate(30.118 67.193)">
            <g id="Group_479" data-name="Group 479" transform="translate(0.071 0.113)">
              <path id="Path_259" data-name="Path 259" d="M562,280.893s-2.965-28.106-3.135-38.492,4.669-20.632,4.669-20.632l18.967-.8s3.749,10.538,3.816,14.964c.131,8.6-2.285,17.1-2.007,23.919l.634,21.043" transform="translate(-558.865 -220.967)" fill="#263238"/>
            </g>
            <g id="Group_481" data-name="Group 481" transform="translate(2.588 25.486)">
              <g id="Group_480" data-name="Group 480">
                <path id="Path_260" data-name="Path 260" d="M588.783,278.6a2.533,2.533,0,0,1-.309.234l-.173.122c-.059.05-.117.114-.184.177a2.824,2.824,0,0,0-.422.473,10.5,10.5,0,0,0-1.484,3.762,12.648,12.648,0,0,1-.96,2.674,4.819,4.819,0,0,1-.421.666c-.082.106-.157.219-.247.32l-.292.292a4.715,4.715,0,0,1-1.426.915c-1.062.465-2.26.686-3.355,1.235a5.3,5.3,0,0,0-2.434,2.775c-.534,1.193-.858,2.446-1.3,3.614a6.55,6.55,0,0,1-1.98,3,5.436,5.436,0,0,1-3.1.973c-1.021.059-1.967.03-2.815.158a4.448,4.448,0,0,0-2.123.8,2.957,2.957,0,0,0-.987,1.389,2.085,2.085,0,0,0-.073,1.079c.049.247.118.366.1.372a1.131,1.131,0,0,1-.148-.361,2.049,2.049,0,0,1,.033-1.116,3.017,3.017,0,0,1,.992-1.463,4.536,4.536,0,0,1,2.179-.861c.864-.141,1.82-.121,2.826-.188a5.268,5.268,0,0,0,2.988-.951,6.374,6.374,0,0,0,1.9-2.915c.438-1.156.759-2.41,1.3-3.629a5.514,5.514,0,0,1,2.542-2.881c1.139-.565,2.338-.779,3.373-1.229a4.539,4.539,0,0,0,1.374-.869l.28-.276c.088-.1.16-.205.24-.306a4.646,4.646,0,0,0,.411-.639,12.705,12.705,0,0,0,.971-2.627,10.224,10.224,0,0,1,1.57-3.774,2.8,2.8,0,0,1,.447-.468c.07-.062.132-.124.194-.172l.182-.115A2.45,2.45,0,0,1,588.783,278.6Z" transform="translate(-564.582 -278.602)" fill="#fafafa"/>
              </g>
            </g>
            <g id="Group_483" data-name="Group 483" transform="translate(0.776 12.48)">
              <g id="Group_482" data-name="Group 482">
                <path id="Path_261" data-name="Path 261" d="M586.6,249.059a2.287,2.287,0,0,1,.025.376,4.672,4.672,0,0,1-.132,1.076,6.956,6.956,0,0,1-2.143,3.313,12.731,12.731,0,0,1-2.221,1.622c-.85.5-1.787.985-2.748,1.527a14.368,14.368,0,0,0-2.811,1.977,10.858,10.858,0,0,0-2.13,2.993,27.629,27.629,0,0,1-1.846,3.253,7.773,7.773,0,0,1-1.2,1.331,7.594,7.594,0,0,1-1.432.954,17.731,17.731,0,0,1-2.947,1.13c-.941.291-1.819.549-2.586.87a10.089,10.089,0,0,0-1.973,1.057,6.134,6.134,0,0,0-1.238,1.142,5.909,5.909,0,0,0-.743,1.235,2.32,2.32,0,0,1,.122-.357,4.358,4.358,0,0,1,.55-.933,6.019,6.019,0,0,1,1.234-1.191,9.986,9.986,0,0,1,1.985-1.1c.774-.335,1.656-.6,2.592-.9a17.815,17.815,0,0,0,2.906-1.135,7.422,7.422,0,0,0,1.387-.932,7.582,7.582,0,0,0,1.164-1.3,27.893,27.893,0,0,0,1.827-3.23,11.024,11.024,0,0,1,2.177-3.048,14.429,14.429,0,0,1,2.862-2c.969-.541,1.908-1.013,2.756-1.507a12.782,12.782,0,0,0,2.208-1.578,7.014,7.014,0,0,0,2.166-3.216A6.806,6.806,0,0,0,586.6,249.059Z" transform="translate(-560.467 -249.059)" fill="#fafafa"/>
              </g>
            </g>
            <g id="Group_485" data-name="Group 485">
              <g id="Group_484" data-name="Group 484">
                <path id="Path_262" data-name="Path 262" d="M558.874,243.747a.283.283,0,0,1-.038-.085,1.888,1.888,0,0,1-.041-1.318,4.315,4.315,0,0,1,2.788-2.571c.781-.268,1.667-.43,2.589-.672a4.851,4.851,0,0,0,3.588-2.67,13.551,13.551,0,0,0,.658-1.582,17.221,17.221,0,0,1,1.4-3.376,5.391,5.391,0,0,1,2.872-2.233,26.278,26.278,0,0,1,3.3-.835,10.913,10.913,0,0,0,2.865-.976,6,6,0,0,0,1.939-1.747,6.55,6.55,0,0,0,1.232-3.566,10.2,10.2,0,0,0-.094-1.407,4.65,4.65,0,0,1,.183,1.409,6.5,6.5,0,0,1-1.189,3.658,6.121,6.121,0,0,1-1.978,1.819,10.991,10.991,0,0,1-2.911,1.016,26.746,26.746,0,0,0-3.264.84,5.176,5.176,0,0,0-2.755,2.144,17.263,17.263,0,0,0-1.379,3.329,13.628,13.628,0,0,1-.674,1.607,5.035,5.035,0,0,1-3.735,2.753c-.936.236-1.817.388-2.586.642a4.266,4.266,0,0,0-2.754,2.443,2.152,2.152,0,0,0-.084,1.02C558.845,243.622,558.885,243.743,558.874,243.747Z" transform="translate(-558.703 -220.711)" fill="#fafafa"/>
              </g>
            </g>
            <g id="Group_487" data-name="Group 487" transform="translate(3.193 46.801)">
              <g id="Group_486" data-name="Group 486">
                <path id="Path_263" data-name="Path 263" d="M588.039,327.019a1.246,1.246,0,0,1,.03.276,2.938,2.938,0,0,1-.081.8,4.52,4.52,0,0,1-1.664,2.378,7.419,7.419,0,0,1-1.746,1.037,23.088,23.088,0,0,1-2.192.758,18.115,18.115,0,0,0-2.381.869,6.876,6.876,0,0,0-2.167,1.58c-.642.673-1.2,1.407-1.812,2.056A8.291,8.291,0,0,1,574,338.357a8.914,8.914,0,0,1-4.187,1.089,8.3,8.3,0,0,1-2.882-.479,5.271,5.271,0,0,1-.731-.313,1.258,1.258,0,0,1-.242-.134,1.28,1.28,0,0,1,.262.092,7.073,7.073,0,0,0,.74.271,8.689,8.689,0,0,0,2.85.4,8.892,8.892,0,0,0,4.087-1.111,8.16,8.16,0,0,0,1.968-1.558c.6-.639,1.154-1.374,1.809-2.061a7.061,7.061,0,0,1,2.236-1.625,17.819,17.819,0,0,1,2.415-.868c.778-.237,1.518-.457,2.18-.731a7.386,7.386,0,0,0,1.719-.989,4.542,4.542,0,0,0,1.678-2.274A5.2,5.2,0,0,0,588.039,327.019Z" transform="translate(-565.957 -327.019)" fill="#fafafa"/>
              </g>
            </g>
          </g>
          <g id="Group_491" data-name="Group 491" transform="translate(34.343 33.522)">
            <path id="Path_264" data-name="Path 264" d="M587.189,166.392l-3.667.087a6,6,0,0,1-.829,2.081,63.315,63.315,0,0,1-6.035-15.322c.086-.287.188-.6.315-.957a4.064,4.064,0,0,0-.048-1.612c-.1-.638-.281-1.5-.335-1.894-.163-1.211-.358-1.4-.781-1.264-.575.186.236,3.4-.235,3.471-.253.037-.563-1.064-.652-1.968s-.5-3.684-.8-3.869c-.438-.272-.82.158-.709,1.058s.253,3.628-.225,3.664-.866-4.573-.866-4.573.074-1-.479-.979c-1,.044-.218,4.9-.132,5.363.059.32-.459.379-.5.032s-.288-4.61-1.3-4.575c-.78.026.6,4,.166,4.927s-.742-3.132-1.486-3.076c-.277.021-.482.075.027,2.369a51.756,51.756,0,0,0,1.779,5.378c1.179,6.361,6.356,26.712,14.471,22.987,4.541-2.085,6.383-11.324,6.383-11.324Z" transform="translate(-568.301 -144.276)" fill="#b78876"/>
            <g id="Group_490" data-name="Group 490" transform="translate(3.055)">
              <g id="Group_489" data-name="Group 489">
                <path id="Path_265" data-name="Path 265" d="M575.424,149.941a.25.25,0,0,0,.106-.015.235.235,0,0,0,.166-.254c-.01-.273-.053-.671-.117-1.186a17.114,17.114,0,0,1-.2-1.876c-.006-.368,0-.765.025-1.185a4.137,4.137,0,0,1,.064-.634c.034-.2.168-.427.322-.4l.017,0h.008c.157-.007.279.115.329.3a1.733,1.733,0,0,1,.058.589v.014a35.662,35.662,0,0,0,.471,3.676c.036.164.072.33.123.5a2.4,2.4,0,0,0,.092.252.784.784,0,0,0,.075.131.239.239,0,0,0,.184.115.329.329,0,0,0,.277-.231,1.327,1.327,0,0,0,.082-.271,4.068,4.068,0,0,0,.071-.537,16.055,16.055,0,0,0-.03-2.2,5.1,5.1,0,0,1-.046-1.1.612.612,0,0,1,.217-.411.238.238,0,0,1,.189-.024.449.449,0,0,1,.1.045.143.143,0,0,1,.048.065,5.5,5.5,0,0,1,.305,1.106c.078.39.146.787.208,1.188s.119.808.167,1.217a8.437,8.437,0,0,0,.2,1.252,4.159,4.159,0,0,0,.2.622,1.114,1.114,0,0,0,.181.311.261.261,0,0,0,.263.1.281.281,0,0,0,.18-.2,2.166,2.166,0,0,0,.046-.685c-.009-.218-.027-.434-.046-.65-.031-.371-.067-.737-.079-1.1a3.687,3.687,0,0,1,.013-.53.843.843,0,0,1,.053-.23.208.208,0,0,1,.042-.066c.007-.007.011,0,.017-.011l.057-.016c.292-.121.389.286.467.613s.11.694.179,1.042c.116.693.264,1.382.342,2.045a2.364,2.364,0,0,1-.039.947l-.309.944-.009.028.007.029a50.924,50.924,0,0,0,1.97,6.365c.7,1.879,1.394,3.5,2.009,4.83s1.163,2.353,1.543,3.051l.458.787a1.873,1.873,0,0,0,.17.265,1.842,1.842,0,0,0-.135-.284l-.424-.8c-.357-.709-.886-1.741-1.479-3.075s-1.273-2.959-1.954-4.838a52.338,52.338,0,0,1-1.926-6.344l0,.058.309-.932a2.559,2.559,0,0,0,.054-1.053c-.079-.689-.223-1.357-.338-2.054-.068-.344-.11-.7-.181-1.059a2.092,2.092,0,0,0-.18-.545.532.532,0,0,0-.243-.245.543.543,0,0,0-.347-.014l-.074.021a.377.377,0,0,0-.1.057.426.426,0,0,0-.111.156,1.083,1.083,0,0,0-.074.3,3.922,3.922,0,0,0-.015.568c.013.373.048.743.08,1.112.018.215.036.428.045.64a2.073,2.073,0,0,1-.033.592c-.011.046-.033.037-.008.06v0c0-.015,0,.022,0,.016v0a.026.026,0,0,1,0-.015s.012-.019.006-.021a.065.065,0,0,1-.026-.024.943.943,0,0,1-.135-.239,4.057,4.057,0,0,1-.187-.584,8.312,8.312,0,0,1-.2-1.221c-.049-.414-.107-.822-.17-1.227s-.132-.8-.213-1.2a5.466,5.466,0,0,0-.335-1.176.4.4,0,0,0-.138-.155.684.684,0,0,0-.164-.069.48.48,0,0,0-.372.051.824.824,0,0,0-.325.573,2.085,2.085,0,0,0-.007.6c.022.188.04.372.055.558a15.971,15.971,0,0,1,.04,2.168,3.915,3.915,0,0,1-.064.508,1.131,1.131,0,0,1-.067.228.283.283,0,0,1-.048.082c-.016.037-.03-.008-.029.051.022-.045,0-.02-.016-.058a.626.626,0,0,1-.052-.092,2.206,2.206,0,0,1-.083-.225c-.049-.156-.086-.318-.122-.479a36.573,36.573,0,0,1-.5-3.647v.014a1.885,1.885,0,0,0-.072-.655.666.666,0,0,0-.172-.293.457.457,0,0,0-.326-.119l.024,0a.38.38,0,0,0-.38.182.945.945,0,0,0-.135.342,4.1,4.1,0,0,0-.059.661c-.016.424-.019.822-.007,1.194a15.7,15.7,0,0,0,.243,1.885c.077.512.134.909.158,1.176a.208.208,0,0,1-.129.23C575.459,149.931,575.423,149.935,575.424,149.941Z" transform="translate(-575.241 -144.228)" fill="#a36957"/>
              </g>
            </g>
          </g>
          <path id="Path_266" data-name="Path 266" d="M499.2,208.227a9.457,9.457,0,0,0-2.55.292c-2.273.6-6.2,2.976-6.361,5.915h2.85s-1.6,3.4-1.127,3.083a36.68,36.68,0,0,0,3.64-3.278Z" transform="translate(-490.291 -146.528)" fill="#b78876"/>
          <g id="Group_498" data-name="Group 498" transform="translate(46.855)">
            <g id="Group_493" data-name="Group 493">
              <g id="Group_492" data-name="Group 492">
                <path id="Path_267" data-name="Path 267" d="M597.661,78.632c-.063.005-.322-2.351-.578-5.264s-.413-5.279-.349-5.284.321,2.351.578,5.264S597.724,78.627,597.661,78.632Z" transform="translate(-596.72 -68.084)" fill="#263238"/>
              </g>
            </g>
            <g id="Group_495" data-name="Group 495" transform="translate(4.656 0.144)">
              <g id="Group_494" data-name="Group 494">
                <path id="Path_268" data-name="Path 268" d="M616.088,68.411c.052.037-1.874,2.832-4.3,6.243s-4.437,6.147-4.489,6.11,1.874-2.831,4.3-6.243S616.036,68.374,616.088,68.411Z" transform="translate(-607.297 -68.41)" fill="#263238"/>
              </g>
            </g>
            <g id="Group_497" data-name="Group 497" transform="translate(8.557 12.807)">
              <g id="Group_496" data-name="Group 496">
                <path id="Path_269" data-name="Path 269" d="M626.244,97.181c.013.062-2.235.576-5.02,1.149s-5.054.986-5.066.924,2.235-.576,5.02-1.149S626.231,97.119,626.244,97.181Z" transform="translate(-616.158 -97.175)" fill="#263238"/>
              </g>
            </g>
          </g>
        </g>
      </g>
      <g id="Floor" transform="translate(86.334 193.517)">
        <g id="Group_77" data-name="Group 77">
          <g id="Group_76" data-name="Group 76">
            <path id="Path_76" data-name="Path 76" d="M340.5,439.682c0,.063-56.9.115-127.077.115-70.2,0-127.09-.052-127.09-.115s56.89-.114,127.09-.114C283.6,439.568,340.5,439.62,340.5,439.682Z" transform="translate(-86.334 -439.568)" fill="#263238"/>
          </g>
        </g>
      </g>
      <g id="Plant" transform="translate(95.729 166.061)">
        <g id="Group_87" data-name="Group 87">
          <g id="Group_78" data-name="Group 78" transform="translate(3.044)">
            <path id="Path_77" data-name="Path 77" d="M116.217,377.2a5.55,5.55,0,0,1,3.868,1.981,9.8,9.8,0,0,1,1.969,3.967,17.286,17.286,0,0,1-.507,8.84c-3.013-1.077-4.872-4.292-5.713-5.981-1.328-2.671-2.107-8.3.383-8.806" transform="translate(-114.589 -377.201)" fill="#507fe8"/>
          </g>
          <g id="Group_79" data-name="Group 79" transform="translate(13.585 10.178)">
            <path id="Path_78" data-name="Path 78" d="M139.285,408.3a4.735,4.735,0,0,1-.222-4.748,6.289,6.289,0,0,1,3.787-3.043,2.649,2.649,0,0,1,2.229.107,2.026,2.026,0,0,1,.779,1.9,4.1,4.1,0,0,1-.867,1.948c-1.465,1.984-3.248,3.635-5.706,3.839" transform="translate(-138.532 -400.32)" fill="#507fe8"/>
          </g>
          <g id="Group_81" data-name="Group 81" transform="translate(13.792 13.542)">
            <g id="Group_80" data-name="Group 80">
              <path id="Path_79" data-name="Path 79" d="M139.88,421.883a3.327,3.327,0,0,1-.135-.578l-.31-1.587a16.615,16.615,0,0,1-.33-5.329,10.171,10.171,0,0,1,1.977-4.939,6.928,6.928,0,0,1,1.143-1.156,4.246,4.246,0,0,1,.359-.258c.084-.055.13-.081.134-.076a10.859,10.859,0,0,0-1.519,1.579,10.5,10.5,0,0,0-1.887,4.877,17.892,17.892,0,0,0,.268,5.275c.108.674.2,1.219.245,1.6A3.136,3.136,0,0,1,139.88,421.883Z" transform="translate(-139.003 -407.961)" fill="#263238"/>
            </g>
          </g>
          <g id="Group_83" data-name="Group 83" transform="translate(5.643 4.237)">
            <g id="Group_82" data-name="Group 82">
              <path id="Path_80" data-name="Path 80" d="M120.493,386.826a1.213,1.213,0,0,1,.121.228l.311.671c.266.584.641,1.434,1.094,2.489.908,2.108,2.122,5.039,3.389,8.3s2.346,6.25,3.1,8.42c.376,1.084.672,1.964.869,2.575l.223.7a1.173,1.173,0,0,1,.064.25,1.231,1.231,0,0,1-.1-.237l-.26-.692-.932-2.553c-.786-2.156-1.887-5.128-3.153-8.393s-2.457-6.2-3.33-8.323l-1.033-2.514-.274-.686A1.2,1.2,0,0,1,120.493,386.826Z" transform="translate(-120.492 -386.826)" fill="#263238"/>
            </g>
          </g>
          <g id="Group_84" data-name="Group 84" transform="translate(0 15.956)">
            <path id="Path_81" data-name="Path 81" d="M118.766,418.8a11.073,11.073,0,0,0-8.594-5.34c-.891-.065-1.963.085-2.36.885a2.294,2.294,0,0,0,.741,2.408,9.462,9.462,0,0,0,10.246,2.287" transform="translate(-107.674 -413.445)" fill="#507fe8"/>
          </g>
          <g id="Group_86" data-name="Group 86" transform="translate(3.854 18.347)">
            <g id="Group_85" data-name="Group 85">
              <path id="Path_82" data-name="Path 82" d="M116.429,418.883a2.892,2.892,0,0,1,.558.021,5.4,5.4,0,0,1,.651.075c.251.047.543.074.854.161a9.81,9.81,0,0,1,1.015.282,11.006,11.006,0,0,1,1.132.43,12.333,12.333,0,0,1,2.385,1.414A12.07,12.07,0,0,1,125,423.217a10.533,10.533,0,0,1,.694.993,8.856,8.856,0,0,1,.516.919,8.188,8.188,0,0,1,.355.793,4.989,4.989,0,0,1,.221.617,2.9,2.9,0,0,1,.145.539c-.044.016-.259-.754-.852-1.881a9.678,9.678,0,0,0-.531-.894,11.153,11.153,0,0,0-.7-.966,12.522,12.522,0,0,0-1.949-1.905,12.8,12.8,0,0,0-2.336-1.4,11.489,11.489,0,0,0-1.108-.442,10.374,10.374,0,0,0-1-.3C117.221,418.971,116.424,418.929,116.429,418.883Z" transform="translate(-116.429 -418.876)" fill="#263238"/>
            </g>
          </g>
        </g>
      </g>
      <g id="Folder" transform="translate(124.301 82.869)">
        <g id="Group_258" data-name="Group 258">
          <g id="Group_254" data-name="Group 254" transform="translate(38.034 14.984)">
            <path id="Path_156" data-name="Path 156" d="M276.573,227.674l-15.568,80.036-2.038,10.477,103.925-.512c4.664-.023,8.8-4.164,10.3-10.317L391.62,231.8c1.139-4.671-1.36-9.529-4.9-9.525l-105.184.111C279.212,222.383,277.181,224.55,276.573,227.674Z" transform="translate(-258.968 -222.27)" fill="#507fe8"/>
          </g>
          <g id="Group_255" data-name="Group 255" transform="translate(38.034 14.984)" opacity="0.5">
            <path id="Path_157" data-name="Path 157" d="M276.573,227.674l-15.568,80.036-2.038,10.477,103.925-.512c4.664-.023,8.8-4.164,10.3-10.317L391.62,231.8c1.139-4.671-1.36-9.529-4.9-9.525l-105.184.111C279.212,222.383,277.181,224.55,276.573,227.674Z" transform="translate(-258.968 -222.27)"/>
          </g>
          <g id="Group_256" data-name="Group 256">
            <path id="Path_158" data-name="Path 158" d="M304.565,283.236l-11-88.669a6.979,6.979,0,0,0-6.762-6.332l-24.128.079a6.575,6.575,0,0,0-4.766,2.114l-11.457,12.179-67.1.35c-4.1.021-7.251,3.9-6.708,8.261l10.216,81.953a6.979,6.979,0,0,0,6.753,6.328l116.95-.231c13.025.27,14.269-3.577,14.269-3.577C305.9,299,304.567,283.246,304.565,283.236Z" transform="translate(-172.575 -188.235)" fill="#507fe8"/>
          </g>
          <g id="Group_257" data-name="Group 257" transform="translate(47.241 48.988)" opacity="0.5">
            <path id="Path_159" data-name="Path 159" d="M314.2,328.97l-3.944,4.236L279.88,305.878l3.944-4.236Z" transform="translate(-279.88 -300.703)" fill="#fff"/>
            <path id="Path_160" data-name="Path 160" d="M310.18,299.509l4.359,3.922-27.487,29.521-4.359-3.922Z" transform="translate(-281.455 -299.509)" fill="#fff"/>
          </g>
        </g>
      </g>
      <g id="Speech_Bubble" data-name="Speech Bubble" transform="translate(258.826 25.592)">
        <g id="Group_267" data-name="Group 267">
          <g id="Group_263" data-name="Group 263" transform="translate(10.548 8.088)">
            <g id="Group_260" data-name="Group 260">
              <g id="Group_259" data-name="Group 259">
                <path id="Path_161" data-name="Path 161" d="M505.72,88.514a.821.821,0,0,1-.5-.72l-.176-4.087a.821.821,0,0,1,1.009-.835,2.553,2.553,0,0,0,1.988-.393,2.3,2.3,0,0,0,1.027-1.505,2.353,2.353,0,0,0-.494-1.768,2.622,2.622,0,0,0-1.735-1.044,3.078,3.078,0,0,0-3.125,2.218.821.821,0,1,1-1.585-.431,4.733,4.733,0,0,1,4.9-3.419,4.238,4.238,0,0,1,2.857,1.687,4,4,0,0,1,.805,3.023,3.945,3.945,0,0,1-1.737,2.607,4.3,4.3,0,0,1-2.228.727l.136,3.15a.822.822,0,0,1-1.144.791Z" transform="translate(-502.103 -76.504)" fill="#507fe8"/>
              </g>
            </g>
            <g id="Group_262" data-name="Group 262" transform="translate(3.479 13.054)">
              <g id="Group_261" data-name="Group 261">
                <path id="Path_162" data-name="Path 162" d="M511.348,106.781a.672.672,0,1,1-.716-.624A.672.672,0,0,1,511.348,106.781Z" transform="translate(-510.006 -106.155)" fill="#507fe8"/>
              </g>
            </g>
          </g>
          <g id="Group_266" data-name="Group 266">
            <g id="Group_265" data-name="Group 265">
              <g id="Group_264" data-name="Group 264">
                <path id="Path_163" data-name="Path 163" d="M478.163,72.467a1.694,1.694,0,0,0,.04-.268c.021-.191.049-.452.086-.787a9.265,9.265,0,0,1,.213-1.265c.058-.247.088-.521.178-.8s.177-.575.273-.889a15.137,15.137,0,0,1,2.189-4.194,14.763,14.763,0,0,1,13.647-5.746c.338.032.67.122,1.009.181a6.921,6.921,0,0,1,1.013.244,13.985,13.985,0,0,1,3.937,1.785,14.727,14.727,0,0,1,5.819,7.308,14.376,14.376,0,0,1,.863,5.022,14.119,14.119,0,0,1-.921,5.169l-.2.5-.026.066.027.062,3.237,7.455.185-.21-6.593-2.533-.081-.031L503,83.6a14.741,14.741,0,0,1-6.226,3.595,14.643,14.643,0,0,1-11.887-1.845,15.084,15.084,0,0,1-3.712-3.456,14.6,14.6,0,0,1-2.816-6.751q-.079-.645-.139-1.145-.013-.494-.022-.841c-.007-.216-.013-.387-.017-.516a.9.9,0,0,0-.015-.175.979.979,0,0,0-.011.175c0,.129,0,.3-.007.517q0,.349,0,.846l.116,1.155a16.041,16.041,0,0,0,.752,3.109,16.208,16.208,0,0,0,2.018,3.742,15.2,15.2,0,0,0,3.739,3.53,14.826,14.826,0,0,0,12.067,1.927,14.983,14.983,0,0,0,6.351-3.646l-.146.03,6.59,2.544.332.128-.147-.339-3.232-7.456v.129l.2-.514a14.417,14.417,0,0,0,.94-5.285,14.682,14.682,0,0,0-.887-5.132,14.991,14.991,0,0,0-5.948-7.444,14.229,14.229,0,0,0-4.014-1.805,7.154,7.154,0,0,0-1.031-.245c-.346-.059-.684-.149-1.027-.181a14.5,14.5,0,0,0-9.156,1.79,14.811,14.811,0,0,0-4.656,4.116,15.066,15.066,0,0,0-2.168,4.262l-.262.9c-.087.28-.113.558-.166.807a8.713,8.713,0,0,0-.186,1.277c-.024.337-.043.6-.057.792A1.887,1.887,0,0,0,478.163,72.467Z" transform="translate(-478.144 -58.132)" fill="#263238"/>
              </g>
            </g>
          </g>
        </g>
      </g>
    </g>
  </g>
</svg>
