<svg xmlns="http://www.w3.org/2000/svg" xmlns:xlink="http://www.w3.org/1999/xlink" width="14" height="18" viewBox="0 0 14 18">
  <defs>
    <clipPath id="clip-custom_1">
      <rect width="14" height="18"/>
    </clipPath>
  </defs>
  <g id="custom_1" data-name="custom – 1" clip-path="url(#clip-custom_1)">
    <rect width="14" height="18" fill="rgba(255,255,255,0)"/>
    <g id="Group_24" data-name="Group 24">
      <rect id="Rectangle_1" data-name="Rectangle 1" width="14" height="18" fill="rgba(255,255,255,0)"/>
      <path id="xls-file" d="M54,0H47.422a1.783,1.783,0,0,0-1.743,1.816V8.533h-.17a.717.717,0,0,0-.7.732V13.7a.717.717,0,0,0,.7.732h.17v.814a1.783,1.783,0,0,0,1.743,1.816H56.4a1.783,1.783,0,0,0,1.742-1.816V4.3ZM46.6,10.025l.311.666.324.588c.088.187-.969,2.145-.9,2.319l2.88-.308c.07-.2-.217-2.013-.144-2.191l.252-1.074h-.252l-.833,1.5L49.11,13.1h-.771l-.267-.557c-.109-.215-.18-.374-.263-.553H47.8c-.062.178-.136.338-.228.553l-.245.557h-.763l.855-1.558Zm9.8,5.928H47.422a.691.691,0,0,1-.675-.7v-.814h8.366a.717.717,0,0,0,.7-.732V9.265a.717.717,0,0,0-.7-.732H46.747V1.816a.691.691,0,0,1,.675-.7L53.6,1.107v2.38a1.235,1.235,0,0,0,1.209,1.26l2.237-.007.025,10.51a.69.69,0,0,1-.671.7Zm-6.483-3.544,1.4.691H49.47l2.132.19-1.461-3.265v2.494Zm4.263,0c-.491-.178.628-1.936.628-2.384,0-.526-2.747-.051-2.05-.051a1.752,1.752,0,0,1,.754.155l-.149.562a1.361,1.361,0,0,0-.618-.146c-.289,0-.43.137-.43.3,0,.2.166.283.548.434.522.2.767.484.767.918,0,.516-.381.954-1.192.954a1.867,1.867,0,0,1-.837-.187l.608.855,1.257-.831a1.648,1.648,0,0,0,.741.191c.307,0,.469-.132.469-.333s-.148-.3-.5-.436Z" transform="translate(-44.806 0.5)" fill="#a80a0a"/>
      <text id="PDF" transform="translate(3 13)" fill="#fff" font-size="3" font-family="Roboto-Bold, Roboto" font-weight="700"><tspan x="0" y="0">PDF</tspan></text>
      <g id="pdf_1_" data-name="pdf (1)" transform="translate(321 72)">
        <g id="Group_26" data-name="Group 26">
          <g id="Group_25" data-name="Group 25">
            <path id="Path_523" data-name="Path 523" d="M444.875,109.792,338.208,3.125A10.659,10.659,0,0,0,330.666,0h-224A42.708,42.708,0,0,0,64,42.667V469.334A42.708,42.708,0,0,0,106.667,512H405.334A42.708,42.708,0,0,0,448,469.333v-352A10.658,10.658,0,0,0,444.875,109.792ZM341.333,36.417l70.25,70.25H362.666a21.361,21.361,0,0,1-21.333-21.333Zm85.334,432.916a21.361,21.361,0,0,1-21.333,21.333H106.667a21.361,21.361,0,0,1-21.333-21.333V42.667a21.361,21.361,0,0,1,21.333-21.333H320v64A42.708,42.708,0,0,0,362.667,128h64Z"/>
          </g>
        </g>
      </g>
      <path id="Path_524" data-name="Path 524" d="M131.37,173.3a5.716,5.716,0,0,1-.471-.407c-.15-.15-.284-.3-.4-.434a4.411,4.411,0,0,0,.261-1c0-.654-.236-.788-.591-.788-.27,0-.591.14-.591.807a1.89,1.89,0,0,0,.48,1.066c-.078.238-.17.513-.273.824-.05.149-.1.287-.161.414-.046.021-.091.042-.135.063-.157.078-.305.149-.443.214-.629.3-1.045.495-1.045.884,0,.283.307.457.591.457.366,0,.92-.489,1.324-1.314a7.842,7.842,0,0,1,1.353-.365,2.261,2.261,0,0,0,.871.5c.489,0,.591-.283.591-.519,0-.466-.532-.466-.788-.466A4.668,4.668,0,0,0,131.37,173.3Zm-2.779,1.7a.311.311,0,0,1-.2-.063c0-.14.417-.337.82-.528l.078-.037C129,174.8,128.7,175,128.591,175Zm1.38-3.529c0-.413.128-.413.2-.413.139,0,.2,0,.2.394a3.16,3.16,0,0,1-.157.616A1.211,1.211,0,0,1,129.971,171.473Zm.151,2.118q.019-.051.036-.1c.073-.219.139-.416.2-.594q.123.135.264.277c.037.037.129.12.251.224C130.628,173.447,130.369,173.513,130.122,173.591Zm2.214.1c0,.089,0,.125-.183.126a1.452,1.452,0,0,1-.331-.189c.056-.006.1-.009.12-.009C132.233,173.622,132.315,173.651,132.336,173.694Z" transform="translate(-123.365 -167.365)" fill="#d12020"/>
    </g>
  </g>
</svg>
