<svg xmlns="http://www.w3.org/2000/svg" width="134.51" height="56" viewBox="0 0 134.51 56">
  <g id="Group_660" data-name="Group 660" transform="translate(-2836 -1925.269)">
    <g id="Group_659" data-name="Group 659" transform="translate(2836 1925.269)">
      <path id="Path_443" data-name="Path 443" d="M3159.285,2177.97c-1.793-.756-1.8-4.349-1.682-5.485a4.256,4.256,0,0,1,.078-.461,25.281,25.281,0,0,1-4.361-2.249c-1.47,1.846-3.036,3.59-3.767,4.387a23.407,23.407,0,0,1,1.332,6.267c.177,2.27.328,3.31.328,3.31h13.63S3161.078,2178.727,3159.285,2177.97Z" transform="translate(-3095.647 -2127.74)" fill="#00bfa9"/>
      <path id="Path_444" data-name="Path 444" d="M3272.392,2197.956c-1.135-.589-1.258-3.582-.962-5.416l-6.3.132c-.2,1.829-1.641,4.2-2.367,6.182a7.375,7.375,0,0,0-.52,3.736h12.694S3273.849,2198.713,3272.392,2197.956Z" transform="translate(-3188.918 -2146.591)" fill="#00bfa9"/>
      <path id="Path_445" data-name="Path 445" d="M2969.884,1949.846l-6.38,4.2a8.421,8.421,0,0,0-1.061-2.192,9.684,9.684,0,0,0-4.4-3.463l5.935-8.387c.4-.57-.46-1.391-1.01-.959l-8.931,7.038c-.11-.087-.223-.172-.331-.264a33.576,33.576,0,0,1-3.5-3.433l8.063-9.553c.451-.534-.34-1.425-.925-1.041l-9.961,6.557c-1.98-3.663-2.718-7.673-3.456-13.08h-.208c-6.741,2.758-10.763,7.234-12.638,12.688-1.314,5.087-2.058,11.185-.983,12.4,1.864,2.1,10.69,2.682,14.013,2.9l.941.063a1.184,1.184,0,0,1-.083,2.365c-.028,0-.057,0-.085,0l-.93-.063c-6.346-.421-13.311-1.088-15.625-3.693-.6-.678-2.321-3.693.376-14.237-4.159-2.47-10.161-5.777-16.932-6.435-17.113-1.665-29.358,4.5-36.362,14.254a200.366,200.366,0,0,1-13.162,16.7c-3.746,3.746-7.233,6.128-12.644,6.337-3.746.208-11.6,1.115-12.278-4.682v-.208c-5.112,6.847,5.812,10.575,12.069,10.2,13.393-.809,20.659-7.823,25.472-10.331,0-.018,0-.034,0-.052.029-.285.716-7.014,1.171-8.987a16.407,16.407,0,0,1,1.675-3.991,1.184,1.184,0,0,1,2.035,1.21,14.141,14.141,0,0,0-1.4,3.313c-.322,1.4-.8,5.68-1.014,7.665l.016,0c-.022.137-.039.282-.061.42-.04.372-.062.6-.063.613a1.212,1.212,0,0,1-.064.271c-.123.884-.235,1.782-.314,2.7-.165,1.9-.758,8.583-1.591,10.853a7.371,7.371,0,0,0-.52,3.736H2888.2s0-3.963-1.456-4.719-.78-3.371-.156-4.506a17.453,17.453,0,0,1,1.173-1.523c.05-.053,5.007-5.359,6.526-8.228,1.755-3.315,2.23-4.7,2.23-8.128a1.184,1.184,0,0,1,2.367,0c0,4.1-.725,5.873-2.5,9.235a18.786,18.786,0,0,1-1.274,2.008,23.207,23.207,0,0,0,3.792,1.94,45.542,45.542,0,0,0,11.279,1.685,1.156,1.156,0,0,1,.151-.006l7.317-.154c-.665-1.849-1.587-4.781-1.437-6.427a1.184,1.184,0,1,1,2.357.215c-.109,1.2.817,4.138,1.583,6.16h.01l.013-.01a68.01,68.01,0,0,0,5.378,7.634,12.1,12.1,0,0,1,2.036,4.823h14.1s-1.248-3.736-2.7-4.492a33.733,33.733,0,0,1-6.176-4.445,9.913,9.913,0,0,1-1.831-4.721,10.922,10.922,0,0,1,.942-7.151,1.184,1.184,0,0,1,2.094,1.105,9.691,9.691,0,0,0-.947,3.736c2.9-1.618,5.52-3.7,8.984-3.042,4.786.832,5.827,3.329,10.821,1.457,2.5-.832,3.746-1.249,6.451-.417,1.873.625,3.537,2.081,5.827,1.041a8.62,8.62,0,0,0,1.654-4.875,8.265,8.265,0,0,0,2.091-.119c-.815-1.469-2.27-1.916-3.562-2.842l5.1-6.042C2970.7,1950.146,2970.229,1949.618,2969.884,1949.846Zm-49.4,5.09h-6.041v6.041h-7.457v-6.041h-6.042v-7.458h6.042v-6.041h7.457v6.041h6.041Zm37.145-2.516c-.278.721-1.559.9-2.861.4s-2.132-1.493-1.854-2.215,1.558-.9,2.861-.4S2957.9,1951.7,2957.624,1952.42Z" transform="translate(-2836 -1925.269)" fill="#00bfa9"/>
    </g>
  </g>
</svg>
