<svg xmlns="http://www.w3.org/2000/svg" xmlns:xlink="http://www.w3.org/1999/xlink" width="580" height="401" viewBox="0 0 580 401">
  <defs>
    <clipPath id="clip-Web_1920_1">
      <rect width="580" height="401"/>
    </clipPath>
  </defs>
  <g id="Web_1920_1" data-name="Web 1920 – 1" clip-path="url(#clip-Web_1920_1)">
    <rect width="580" height="401" fill="rgba(255,255,255,0)"/>
    <g id="triceratops" transform="translate(416 114)">
      <g id="Layer_2" transform="translate(-627 -319)">
        <path id="Path_1" data-name="Path 1" d="M606.96,323.514A106.961,106.961,0,1,1,500,216.552,106.955,106.955,0,0,1,606.96,323.514Z" fill="#ffc717"/>
        <g id="Group_1" data-name="Group 1">
          <path id="Path_2" data-name="Path 2" d="M231.941,545.319c2.624,8.375,13.824,10.191,21.9,10.191,8.577,0,21.9-2.623,21.9-12.814,0-8.779-10.6-9.485-21.7-10.394-13.925-1.11-28.859-2.422-28.859-17.457,0-13.319,15.338-19.273,27.648-19.273,10.6,0,23.814,2.523,28.052,14.026,1.514,4.036-5.348,5.853-6.861,2.422-3.027-7.669-13.824-8.98-21.09-8.98-6.76,0-19.878,2.725-19.878,11.906,0,8.779,10.091,9.688,21.8,10.6,13.824,1.211,28.657,1.917,28.657,17.053,0,15.438-17.255,20.182-29.667,20.182-10.292,0-26.034-3.532-29.364-15.641C223.263,542.7,231.134,541.183,231.941,545.319Z" fill="#754c29"/>
          <path id="Path_3" data-name="Path 3" d="M300.864,502.333c0,4.541-7.568,4.642-7.568,0v-4.54c0-4.642,7.568-4.642,7.568,0Zm-7.467,10.9c0-4.339,7.366-4.44,7.366-.1v45.509c0,4.44-7.366,4.34-7.366,0Z" fill="#754c29"/>
          <path id="Path_4" data-name="Path 4" d="M399.451,531.6c-.2-8.679-7.165-14.935-15.641-14.935-10.6,0-18.97,7.871-18.97,19.475v22.2a3.739,3.739,0,0,1-7.467,0V533.312c0-5.752-2.321-11.3-6.962-14.228a16.238,16.238,0,0,0-8.678-2.321,18.643,18.643,0,0,0-18.87,18.87v22.7c0,4.643-7.366,4.541-7.366,0v-45.1a3.6,3.6,0,0,1,3.632-3.532,3.39,3.39,0,0,1,3.532,3.532v6.962c4.037-7.265,11.2-10.494,18.971-10.494,8.779,0,17.457,4.339,20.484,13.32,3.633-8.981,12.412-13.32,21.392-13.32,11.6,0,23.31,7.771,23.31,21.595v27.042a3.394,3.394,0,0,1-3.734,3.532c-2.321,0-3.632-1.312-3.632-3.532V531.6Z" fill="#754c29"/>
          <path id="Path_5" data-name="Path 5" d="M446.077,562.373c-6.761,0-13.319-2.725-16.347-8.073v21.7c0,4.642-7.366,4.642-7.366,0V513.332c0-2.22,1.413-3.531,3.733-3.531s3.431,1.312,3.431,3.531v4.743c3.431-6.257,10.494-8.88,16.548-8.88a25.488,25.488,0,0,1,9.687,1.917l-.1-.1c11,4.54,16.548,14.53,16.246,26.235C471.505,551.576,461.213,562.373,446.077,562.373ZM429.73,531.9v7.971c0,8.88,6.861,15.137,16.044,15.54,7.165,0,14.329-3.834,17.255-10.8a24.518,24.518,0,0,0,1.514-7.467c.1-6.56-2.018-12.613-7.467-17.154a18.943,18.943,0,0,0-10.394-3.835C437.5,516.157,429.73,522.01,429.73,531.9Z" fill="#754c29"/>
          <path id="Path_6" data-name="Path 6" d="M491.489,558.235a3.692,3.692,0,0,1-7.366,0V497.691a3.692,3.692,0,0,1,7.366,0Z" fill="#754c29"/>
          <path id="Path_7" data-name="Path 7" d="M537.2,510.1c11.4,3.128,18.466,12.411,18.668,25.327v-.1c.2,2.22-.808,4.642-4.944,4.642H511.066c1.311,8.274,8.375,15.136,18.465,15.136a21.882,21.882,0,0,0,13.421-4.238c3.532-3.229,8.779.908,4.844,4.944-4.642,4.339-11.4,6.155-17.962,6.055-7.87,0-15.741-3.027-20.483-8.98-10.9-14.329-6.155-37.537,12.613-42.784a28.523,28.523,0,0,1,15.136,0h.1Zm-26.436,23.712H548.8c-.706-8.577-5.953-15.136-13.824-17.154h.1a21.021,21.021,0,0,0-10.9.1C516.11,518.882,511.368,525.643,510.763,533.816Z" fill="#754c29"/>
          <path id="Path_8" data-name="Path 8" d="M564.448,514.745c-3.229-4.238,2.926-7.568,5.65-4.339l16.549,20.383,17.86-20.383c2.624-3.532,8.577.4,5.954,3.935l-18.87,20.989,19.071,20.988c3.128,3.531-2.32,8.072-5.55,4.439l-18.365-21.089-17.255,20.988c-3.531,3.936-8.88-.908-5.348-4.742L581.7,535.329Z" fill="#754c29"/>
          <path id="Path_9" data-name="Path 9" d="M633.571,511.213a24.194,24.194,0,0,1,10.8-1.917c5.752.1,12.311,1.917,15.943,7.871v-3.835a3.391,3.391,0,0,1,3.633-3.633,3.524,3.524,0,0,1,3.733,3.633v44.8a3.47,3.47,0,0,1-3.733,3.633,3.342,3.342,0,0,1-3.633-3.633v-4.844c-2.927,5.853-10.394,9.183-16.347,9.183a25.506,25.506,0,0,1-14.53-4.339c-7.669-5.247-11.6-13.824-11.3-23.713.2-10.191,5.853-19.576,15.539-23.31Zm26.741,28.557V531.8c0-9.989-6.963-15.136-16.044-15.539-7.165-.1-14.43,3.733-17.255,10.8a21.858,21.858,0,0,0-1.514,7.467c-.2,6.559,1.917,12.613,7.366,17.154a19.541,19.541,0,0,0,10.394,3.834C652.542,555.511,659.807,549.86,660.312,539.77Z" fill="#754c29"/>
          <path id="Path_10" data-name="Path 10" d="M768.286,531.6c-.2-8.679-7.164-14.935-15.641-14.935-10.595,0-18.971,7.871-18.971,19.475v22.2a3.739,3.739,0,0,1-7.466,0V533.312c0-5.752-2.32-11.3-6.963-14.228a16.235,16.235,0,0,0-8.678-2.321,18.642,18.642,0,0,0-18.869,18.87v22.7c0,4.643-7.366,4.541-7.366,0v-45.1a3.6,3.6,0,0,1,3.633-3.532,3.389,3.389,0,0,1,3.531,3.532v6.962c4.036-7.265,11.2-10.494,18.971-10.494,8.778,0,17.457,4.339,20.484,13.32,3.632-8.981,12.411-13.32,21.392-13.32,11.6,0,23.31,7.771,23.31,21.595v27.042a3.393,3.393,0,0,1-3.733,3.532c-2.321,0-3.633-1.312-3.633-3.532V531.6Z" fill="#754c29"/>
        </g>
        <ellipse id="Ellipse_1" data-name="Ellipse 1" cx="133.667" cy="14.934" rx="133.667" ry="14.934" transform="translate(374.111 440.213)" fill="#d1d3d4"/>
        <g id="Group_4" data-name="Group 4">
          <g id="Group_2" data-name="Group 2">
            <path id="Path_11" data-name="Path 11" d="M553.083,442.477c-4.768-2.477-4.087-17.951-2.044-21.668,1.3-2.35,9.482-7.172,18.171-14.8a123.289,123.289,0,0,1-12.818,2.564,234.693,234.693,0,0,1-26.263,2.439,26.5,26.5,0,0,0-.786,11.656c.753,6.189-5.038,15.32-7.762,22.75s-1.7,12.227-1.7,12.227h41.547S557.852,444.953,553.083,442.477Z" fill="#c2731e"/>
          </g>
          <g id="Group_3" data-name="Group 3">
            <path id="Path_12" data-name="Path 12" d="M488.161,438.762c-5.869-2.477-5.9-14.236-5.5-17.953.292-2.77,2.05-8.963,9.32-19.139A89.2,89.2,0,0,1,483.3,398c-5.938-2.856-11.983-6.781-18.427-8.617a68.271,68.271,0,0,0-12.385-2.233c.669,6.464.731,12.063-.555,14.471-3.967,7.429-.808,14.856,2.7,21.048s5.458,16.713,6.036,24.143,1.071,10.834,1.071,10.834h44.612S494.031,441.238,488.161,438.762Z" fill="#c2731e"/>
          </g>
        </g>
        <path id="Path_13" data-name="Path 13" d="M718.078,354.8,697.2,368.541c-1-2.548-1.9-5.2-3.473-7.174-3.335-5.559-8.689-8.495-14.411-11.334q9.711-13.725,19.424-27.451c1.32-1.868-1.507-4.554-3.3-3.137L666.2,342.481c-.362-.286-.73-.562-1.084-.865a109.767,109.767,0,0,1-11.465-11.236q13.2-15.633,26.391-31.266c1.477-1.749-1.112-4.665-3.024-3.407q-16.3,10.731-32.6,21.461c-6.48-11.989-8.9-25.113-11.311-42.811h-.681c-23.278,9.523-36.664,25.3-42.33,44.5-1.269-.654-2.384-1.247-3.306-1.763-13.62-8.173-34.79-20.81-58.925-23.157-56.011-5.449-96.09,14.737-119.013,46.655-16.176,22.522-30.789,41-43.08,54.659-12.26,12.26-23.675,20.059-41.383,20.74-12.26.682-37.98,3.65-40.186-15.326v-.681c-16.73,22.411,19.022,34.612,39.5,33.374,49.734-3,73.663-32.164,89.329-36.25.7-.133,1.421-.238,2.158-.33-.683,4.209-1.256,8.607-1.647,13.117-.538,6.213-2.483,28.092-5.207,35.521s-1.7,12.227-1.7,12.227h44.1s0-12.971-4.767-15.445-2.554-11.033-.511-14.748c1.865-3.391,12.953-6.8,23.42-20.579,23.912,8.075,41.257,11.845,67.643,10.587,5.475-.237,11.813-.678,18.374-1.374a219.2,219.2,0,0,0,18.083,25.772c5.074,6.328,6.664,15.787,6.664,15.787h46.145s-4.085-12.227-8.854-14.7-17.476-11.223-20.212-14.549c-3.772-4.584-5.932-11.979-6.459-19.507,12.74-4.858,22.559-16.159,36.71-13.463,15.666,2.724,19.07,10.9,35.417,4.768,8.173-2.725,12.26-4.087,21.115-1.363,6.13,2.043,11.577,6.811,19.07,3.406,0,0,5.9-7.879,5.413-15.956a27.036,27.036,0,0,0,6.846-.39c-2.67-4.806-7.43-6.27-11.659-9.3q8.344-9.887,16.689-19.774C720.741,355.778,719.209,354.051,718.078,354.8Z" fill="#f0871e"/>
        <path id="Path_14" data-name="Path 14" d="M709.582,374.406l6.633-7.858c3.127-3.7,9.049-7.9,6.532-13.178-2.7-5.649-10.1.818-12.784,2.583l-10.5,6.911c-1.878-2.472-3.74-4.954-5.749-7.293a31.17,31.17,0,0,0-9.22-6.824q6.944-9.813,13.887-19.626c2.457-3.472,6.939-8.908,1.638-12.361-5.476-3.567-10.724,3.1-14.715,6.241l-18.365,14.473-.58.458c-1.155-.938-2.295-1.92-3.425-2.973-1.613-1.5-3.15-3.071-4.63-4.685q5.821-6.9,11.645-13.8l11.312-13.4c2.326-2.755,3.594-5.2,1.563-8.562a5.711,5.711,0,0,0-7.571-1.832l-14.648,9.642-14.788,9.735c-.739-1.547-1.441-3.116-2.061-4.733-4.133-10.807-5.709-22.506-7.275-33.9-.208-1.515-1.975-2.569-3.375-2.569-6.885,0-14.951,4.752-20.436,8.557a63.323,63.323,0,0,0-15.581,16.045,81.748,81.748,0,0,0-9.384,18.154c-7.495-4.108-14.727-8.646-22.492-12.309-24.66-11.63-51.6-13.783-78.391-10.083a123.307,123.307,0,0,0-57.63,23.481c-19.03,14.458-31.227,35.533-45.813,54.071C369.5,386.41,354.563,407.4,331.1,411.825a101.61,101.61,0,0,1-26.371.956c-7.275-.621-17.024-3.917-17.024-12.8,0-3.71-4.586-4.473-6.522-1.767-4.837,6.763-6.6,14.855-1.911,22.183,4.52,7.065,13.139,10.859,20.806,13.325,20.76,6.676,44.174,2.049,63.934-5.815,16.068-6.395,29.286-16.932,44.327-25.08.1,1.891.242,3.791.452,5.7.955,8.691-.142,17.564-1.542,26.161-1.279,7.856-5.5,15.816-3.984,23.878a3.491,3.491,0,0,0,3.375,2.569h44.1a3.531,3.531,0,0,0,3.5-3.5,48.986,48.986,0,0,0-1.014-9.258,19.1,19.1,0,0,0-2.465-6.319c-1.182-1.9-3.855-2.734-4.116-5.06-.564-5.038,2.167-8.332,5.746-11.077,5.077,9.885,4.471,21.923,5.976,32.645a3.473,3.473,0,0,0,3.375,2.569h44.612c2.418,0,4.677-3.071,3.022-5.267-5.227-6.934-11.432-16.289-19.447-20.139-4.536-2.378-4.162-10.547-3.77-14.931a17.444,17.444,0,0,1,1.183-4.736,172.666,172.666,0,0,0,22.355,4.2,145.827,145.827,0,0,0,16.09.921c.033.854.072,1.71.124,2.592.286,4.811-3.114,10.188-5.045,14.395-2.879,6.278-5.682,13.353-4.361,20.391a3.491,3.491,0,0,0,3.375,2.569h41.547a3.532,3.532,0,0,0,3.375-4.431c-1.742-6.072-4.338-13.749-9.951-17.26-3.637-2.383-1.908-13.208-.9-16.61a2.9,2.9,0,0,1,.438-.822c7.438,11.877,19.37,22.347,21.88,36.554a3.487,3.487,0,0,0,3.375,2.569h46.145a3.525,3.525,0,0,0,3.375-4.431c-1.836-5.406-4.271-11.138-8.347-15.233-2.107-2.118-5.375-3.426-7.869-5.038-3.469-2.244-6.869-4.631-10.107-7.2-5.779-4.577-8.017-11.189-8.879-18.308,8.976-4.406,17.188-11.361,27.132-12.369,10.958-1.111,20.237,7.236,31.07,7.346,6.028.061,11.681-2.7,17.369-4.288,7.068-1.979,13.048.644,19.474,3.312,3.992,1.657,8.766,2.7,13,1.347,3.863.131,6.323-3.029,8.016-6.15,1.29-2.378,2.988-9.883,5.741-10.873a3.55,3.55,0,0,0,2.092-5.142C715.6,380.329,712.635,377.393,709.582,374.406ZM690.255,327.95l.931-.733L682.209,339.9l-4.009,5.665c-2.088-1.067-4.072-2.193-5.976-3.408Q681.239,335.054,690.255,327.95ZM486.395,441.784c5.005,2.4,9.3,7.476,13.01,12.36H464.787c-.991-8.3-1.652-18.827-4.56-27.415A40.187,40.187,0,0,0,458.2,422a41.182,41.182,0,0,0,3.749-2.7,61.033,61.033,0,0,0,8.191-8.318L472,411.6q4.368,1.437,8.771,2.7a27.717,27.717,0,0,0-1.671,7.124c-.594,6.653.406,16.073,6.611,19.943A3.764,3.764,0,0,0,486.395,441.784Zm70.323,12.361H523.07c.171-5.922,4.056-12.772,6.414-18.1a38.058,38.058,0,0,0,3.243-10.151,29.467,29.467,0,0,0,.192-4.792c4.9-.147,9.8-.452,14.684-.845a13.525,13.525,0,0,0-.969,3.061c-1.327,6.68-1.829,17.91,4.682,22.178C553.937,447.138,555.568,450.723,556.718,454.145Zm-4.115-34.33.413-.04c.034.058.07.115.1.173C552.943,419.906,552.776,419.859,552.6,419.815ZM704.251,386.1c.59,4.469-1.288,9.3-4.01,13.377a2.917,2.917,0,0,0-.289.15c-.053-.738-2.459.276-3.359.276a13.819,13.819,0,0,1-4.435-1.182c-2.622-.956-5.091-2.312-7.72-3.271-5.952-2.171-12.206-1.852-18.2-.174-5.912,1.655-11.421,4.46-17.719,3.337-5.031-.9-9.731-3.572-14.579-5.124-12.258-3.925-22.164-.511-32.819,5.779a83.048,83.048,0,0,1-7.551,3.932c.146-5.9,1.445-12.181,5.485-16.022,3.277-3.116-1.681-8.059-4.949-4.95-11.273,10.72-9.179,34.161-1.617,46.281,3.936,6.308,11.822,10.676,17.9,14.6,3.3,2.137,6.019,3.367,8.139,6.836a36.184,36.184,0,0,1,2.177,4.2H582.461c-3.058-11.926-12-20.753-18.842-30.773-3.546-5.2-7.534-10.845-9.376-16.928-.623-2.06-.958-4.187-1.628-6.252-.924-2.849-2.633-6.511-1.953-9.552.982-4.4-5.766-6.266-6.75-1.861-1.338,5.989,1.775,11.7,3.167,17.386a40.485,40.485,0,0,0,2.591,7.3c-8.6.665-17.21.8-25.535.71a152.473,152.473,0,0,1-39.176-5.937c-3.526-.979-7.014-2.071-10.49-3.2,8.355-12.824,12.769-28.549,13.486-43.5.217-4.514-6.784-4.493-7,0-1.071,22.3-11.02,44.317-29.668,57.113-2.612,1.792-5.6,3.342-7.809,5.647-2.956,3.078-3.878,8.643-3.833,12.71a10.942,10.942,0,0,0,1.754,5.669c1.2,1.908,3.347,2.439,4.229,4.6a23.1,23.1,0,0,1,1.47,6.871H409.937a34.874,34.874,0,0,1,1.779-7.8,69.174,69.174,0,0,0,2.48-11.006c1.259-7.732,2.3-15.8,1.948-23.649-.472-10.551-1.78-20.266.827-30.708a49.456,49.456,0,0,1,10.7-20.038c2.914-3.412-2.014-8.388-4.95-4.95-9.823,11.5-14.005,24.9-14.474,39.227a46.346,46.346,0,0,0-5.909,2.95c-12.555,7.317-24.075,15.877-37.436,21.826-17.092,7.609-37.7,12.327-56.312,8.682-7.37-1.443-15.159-4.072-20.861-9.129-3.245-2.877-4.369-6.1-4.046-9.408,6.94,9.838,24.453,10.287,35.548,9.663,10.75-.6,20.643-1.954,30.255-7.149,10.342-5.59,18.5-14.428,26.029-23.254,8.737-10.243,17-20.889,25.078-31.654,7.562-10.078,14.436-20.6,23.47-29.456,16.039-15.722,36.917-25.171,58.8-29.365,27.024-5.18,55.308-2.669,80.244,9.092,7.722,3.642,14.868,8.25,22.337,12.322a119.308,119.308,0,0,0-3.5,15.738c-1.2,7.766-3.295,19.266.8,26.58,3.762,6.724,13.444,9.3,20.292,11,11.408,2.834,23.421,3.638,35.132,3.936,4.517.115,4.506-6.885,0-7a177.138,177.138,0,0,1-30.459-3.058c-6.171-1.24-15.913-3.041-19.3-9.1-.436-.778-.675-5.106-.7-7.318a87.714,87.714,0,0,1,1.256-14.888,95.008,95.008,0,0,1,12.486-34.677A59.309,59.309,0,0,1,614.4,286.806c3.849-3.152,10.184-7.353,15.738-8.584,1.478,10.49,3.223,20.985,6.865,30.968a68.057,68.057,0,0,0,2.907,6.758l-10.232,6.736c-3.752,2.47-.25,8.534,3.533,6.044l38.864-25.583q-1.655,1.959-3.308,3.917l-8.8,10.423-17.595,20.846c-2.892,3.426,2.034,8.4,4.949,4.95q3.21-3.8,6.419-7.6c.037.04.071.08.108.12A76.117,76.117,0,0,0,668.148,348.1c5.161,3.3,10.974,5.43,16.167,8.687,3.747,2.35,6.675,6.114,9.453,9.824q-2.219,1.463-4.439,2.923c-3.752,2.47-.25,8.534,3.533,6.044l12.7-8.358,2.158-1.421-.13.154-11.03,13.068c-2.892,3.426,2.034,8.4,4.949,4.95q1.862-2.205,3.723-4.41a57.522,57.522,0,0,1,4.56,5.146A13.094,13.094,0,0,1,704.251,386.1Zm-28.6-19.518c-.71,1.843-3.982,2.3-7.308,1.015s-5.446-3.815-4.736-5.658,3.981-2.3,7.309-1.015S676.357,364.741,675.646,366.583Z" fill="#754c29"/>
      </g>
    </g>
  </g>
</svg>
