<svg xmlns="http://www.w3.org/2000/svg" xmlns:xlink="http://www.w3.org/1999/xlink" width="512" height="512" viewBox="0 0 512 512">
  <defs>
    <clipPath id="clip-Web_1920_1">
      <rect width="512" height="512"/>
    </clipPath>
  </defs>
  <g id="Web_1920_1" data-name="Web 1920 – 1" clip-path="url(#clip-Web_1920_1)">
    <rect width="512" height="512" fill="rgba(255,255,255,0)"/>
    <g id="group" transform="translate(-0.021 0)">
      <g id="Group_2" data-name="Group 2" transform="translate(0.021 0)">
        <g id="Group_1" data-name="Group 1">
          <path id="Path_1" data-name="Path 1" d="M309.355,21.376h64a53.407,53.407,0,0,1,53.333,53.333V112.96L402.24,88.512A10.665,10.665,0,0,0,387.157,103.6l42.667,42.667a10.98,10.98,0,0,0,3.349,2.24c.043.021.064.064.107.085h.043a10.66,10.66,0,0,0,4.053.811,10.943,10.943,0,0,0,4.032-.789,10.786,10.786,0,0,0,3.5-2.325l42.667-42.667a10.665,10.665,0,1,0-15.083-15.083l-24.469,24.427V74.709A74.749,74.749,0,0,0,373.355.042h-64a10.667,10.667,0,0,0,0,21.334Z" transform="translate(-0.021 0)"/>
          <path id="Path_2" data-name="Path 2" d="M222.933,337.536a10.592,10.592,0,0,0,2.3-8.725l-4.117-30.443a45.661,45.661,0,0,1,8.747-32.747,10.764,10.764,0,0,0,2.027-5.333l1.024-11.371a10.709,10.709,0,0,0-4.544-9.749l-3.669-14.72a99.946,99.946,0,0,0,26.133-51.733,24.6,24.6,0,0,0,15.445-19.84l3.477-27.819a24.519,24.519,0,0,0-13.162-24.9l1.088-22.229,4.267-4.288c7.168-7.616,16.832-24,1.152-47.936C251.947,8.661,233.173,0,207.3,0c-9.877,0-32.469,0-53.888,13.973C91.563,15.616,83.52,46.421,83.52,73.259c0,5.824,1.237,17.771,2.219,26.389a24.508,24.508,0,0,0-14.08,25.344l3.477,27.819a24.579,24.579,0,0,0,17.152,20.437A100.4,100.4,0,0,0,117.056,223.1l-3.819,15.253L62.1,251.136A81.965,81.965,0,0,0,.021,330.709a10.671,10.671,0,0,0,10.667,10.667H214.741a10.674,10.674,0,0,0,8.192-3.84Z" transform="translate(-0.021 0)"/>
          <path id="Path_3" data-name="Path 3" d="M138.688,490.709a53.407,53.407,0,0,1-53.333-53.333V399.125L109.8,423.573a10.665,10.665,0,1,0,15.1-15.062L82.24,365.845a10.98,10.98,0,0,0-3.349-2.24c-.043-.021-.064-.064-.107-.085h-.021a10.655,10.655,0,0,0-5.419-.555,9.067,9.067,0,0,0-1.323.256,10.425,10.425,0,0,0-4.864,2.6L24.49,408.491a10.665,10.665,0,0,0,15.083,15.083l24.448-24.448v38.251a74.749,74.749,0,0,0,74.667,74.667,10.667,10.667,0,0,0,0-21.335Z" transform="translate(-0.021 -0.044)"/>
          <path id="Path_4" data-name="Path 4" d="M449.984,421.888l-51.136-12.779-3.5-13.973A99.946,99.946,0,0,0,421.482,343.4a24.6,24.6,0,0,0,15.445-19.84l3.477-27.819a24.519,24.519,0,0,0-13.162-24.9l1.088-22.229,4.267-4.288c7.168-7.616,16.832-24,1.152-47.936-11.157-17.045-29.931-25.685-55.808-25.685-9.877,0-32.469,0-53.888,13.973-61.845,1.643-69.888,32.448-69.888,59.285,0,5.824,1.237,17.771,2.219,26.389A24.507,24.507,0,0,0,242.3,295.7l3.477,27.819a24.548,24.548,0,0,0,17.152,20.437A100.4,100.4,0,0,0,287.7,393.813l-3.819,15.253-51.136,12.779a81.884,81.884,0,0,0-62.059,79.531,10.671,10.671,0,0,0,10.667,10.667h320a10.689,10.689,0,0,0,10.667-10.688,81.778,81.778,0,0,0-62.037-79.467Z" transform="translate(-0.021 -0.044)"/>
        </g>
      </g>
    </g>
  </g>
</svg>
