<svg xmlns="http://www.w3.org/2000/svg" width="512" height="353.097" viewBox="0 0 512 353.097">
  <g id="union-pay" transform="translate(0 -79.451)">
    <path id="Path_1" data-name="Path 1" d="M512,402.281a30.266,30.266,0,0,1-30.265,30.267H30.265A30.265,30.265,0,0,1,0,402.281V109.717A30.266,30.266,0,0,1,30.265,79.451h451.47A30.265,30.265,0,0,1,512,109.717V402.281Z" fill="#f0efeb"/>
    <g id="unionpay" transform="translate(61.002 23.444)">
      <path id="Path_73" data-name="Path 73" d="M192.609,95.808c-4.283-2.547-8.972-3.152-13.834-3.152q-54.014.013-108.021.026c-3.04.008-6.07.311-9.11.475-1.1,1.485-2.962,1.322-4.439,1.943-11.891,5.052-19.8,13.653-22.936,26.2C32.413,128.743,15.642,200.8,2.1,259.07-9.607,373.389,27.136,340.684,54.916,371.253c19.438-.043,38.886-.026,58.324.25,17.245.25,33.782-13.2,37.443-29.758,6.684-30.242,13.963-60.344,21-90.5q15.221-65.206,30.431-130.413C204.561,110.35,200.891,100.739,192.609,95.808Z" transform="translate(-3.435 0)" fill="#e4363a"/>
      <path id="Path_85" data-name="Path 85" d="M151.4,121.3c3.137-12.551,11.046-21.145,22.941-26.2,1.479-.628,3.339-.46,4.439-1.949,3.036-.164,6.07-.468,9.105-.471q54.013-.05,108.028-.028c4.856,0,9.552.606,13.829,3.152,8.281,4.93,11.954,14.545,9.509,25.026q-15.209,65.205-30.429,130.409c-7.036,30.16-14.318,60.264-21,90.5-3.662,16.559-20.2,30.013-37.44,29.763-35.392-.511-70.8-.144-106.195-.176-3.129,0-6.258-.281-9.387-.431-.61-.886-1.654-.973-2.534-1.2-7.111-1.859-13.192-11.744-13.193-18.026,0-6,1.29-11.667,2.7-17.391C101.767,334.281,148.226,133.978,151.4,121.3Z" transform="translate(-120 0)" fill="#e4363a"/>
      <path id="Path_74" data-name="Path 74" d="M151.4,121.3c3.137-12.551,11.046-21.145,22.941-26.2,1.479-.628,3.339-.46,4.439-1.949,3.036-.164,6.07-.468,9.105-.471q54.013-.05,108.028-.028c4.856,0,9.552.606,13.829,3.152,8.281,4.93,11.954,14.545,9.509,25.026q-15.209,65.205-30.429,130.409c-7.036,30.16-14.318,60.264-21,90.5-3.662,16.559-20.2,30.013-37.44,29.763-35.392-.511-70.8-.144-106.195-.176-3.129,0-6.258-.281-9.387-.431-.61-.886-1.654-.973-2.534-1.2-7.111-1.859-13.192-11.744-13.193-18.026,0-6,1.29-11.667,2.7-17.391C101.767,334.281,148.226,133.978,151.4,121.3Z" transform="translate(-19.815 0)" fill="#004a87"/>
      <path id="Path_75" data-name="Path 75" d="M299.709,121.3c3.137-12.551,11.046-21.145,22.941-26.2,1.479-.628,3.339-.46,4.439-1.949,3.036-.164,6.069-.468,9.105-.471q54.013-.05,108.028-.028c4.856,0,9.552.606,13.829,3.152,8.281,4.93,11.954,14.545,9.509,25.026Q452.35,186.037,437.131,251.24c-7.036,30.16-14.318,60.264-21,90.5-3.662,16.559-20.2,30.013-37.44,29.763-35.392-.511-70.8-.144-106.195-.176-3.129,0-6.258-.281-9.387-.431-.61-.886-1.654-.973-2.534-1.2-7.111-1.859-13.192-11.744-13.193-18.026,0-6,1.29-11.667,2.7-17.391C250.08,334.281,296.539,133.978,299.709,121.3Z" transform="translate(-44.306 0)" fill="#008286"/>
      <g id="Group_6" data-name="Group 6" transform="translate(12.806 175.515)">
        <path id="Path_76" data-name="Path 76" d="M321.663,238.418c-2.884,0-5.771.048-8.653-.022-1.2-.028-1.7.322-1.944,1.573-1.379,7.131-2.892,14.235-4.286,21.363-.257,1.316-.721,1.811-2.15,1.757-3.4-.129-6.82-.137-10.224,0-1.685.068-2.1-.324-1.737-2.018,2.168-10.241,4.239-20.5,6.352-30.757,2.312-11.214,4.666-22.42,6.913-33.647.278-1.39.761-1.765,2.146-1.756,9.636.066,19.274.047,28.911.03a28.169,28.169,0,0,1,6.808.83c6.342,1.56,10.108,5.691,10.691,12.224,1,11.2-4.248,23.56-16.741,28.6a26.706,26.706,0,0,1-10.184,1.823C325.6,238.413,323.63,238.418,321.663,238.418Zm.649-11.884c1.771,0,3.542.012,5.312,0,7.15-.055,11.148-3.536,12.268-10.665.864-5.509-.894-8.224-6.312-8.956-4.878-.66-9.825-.224-14.74-.285-.76-.009-.945.412-1.079,1.086-1.166,5.841-2.338,11.682-3.6,17.5-.247,1.136.042,1.353,1.074,1.333C317.588,226.5,319.95,226.534,322.311,226.535Z" transform="translate(-64.571 -192.4)" fill="#fff"/>
        <path id="Path_77" data-name="Path 77" d="M436.635,253.814a3.34,3.34,0,0,0,1.14-1.853c3.494-8.11,7.006-16.212,10.429-24.352a2.048,2.048,0,0,1,2.3-1.519c2.948.093,5.9.1,8.851,0,1.608-.056,1.706.351,1.038,1.7q-11.127,22.414-22.165,44.873c-3.177,6.469-6.267,12.985-10.793,18.663-3.921,4.919-8.451,8.982-14.962,10.057-2.111.348-4.226.847-6.382.278.23-2.006.45-4.014.7-6.018a1.263,1.263,0,0,1,.819-1.2c5.692-2.246,9.131-6.843,12.169-11.824,2.013-3.3,3.587-6.833,5.3-10.291a4.093,4.093,0,0,0,.238-2.29c-1.139-13.981-2.233-27.965-3.414-41.942-.128-1.516.272-1.928,1.744-1.9,3.409.058,6.823.051,10.227-.111,1.691-.08,2.225.355,2.243,2.128C436.2,236.664,436.44,245.117,436.635,253.814Z" transform="translate(-83.32 -197.547)" fill="#fff"/>
        <path id="Path_78" data-name="Path 78" d="M384.789,268.37c-.672,0-1.345-.019-1.712-.694-.921-1.69-2.109-1.368-3.6-.749a25.314,25.314,0,0,1-8.946,2.057c-6.319.187-10.629-3.26-11.389-9.518a32.335,32.335,0,0,1,7.4-25.095c5.152-6.309,14.221-7.082,21.05-2.131,1.257.911,2.167,1.226,3.336.056.473-.473,1.662-1.709,2.27-2.341a1.3,1.3,0,0,1,.9-.4c2.075-.071,9.516-.325,9.9-.335,1.65-.045,1.523.608.94,3.233-2.563,11.559-5.133,23.115-7.629,34.688-.26,1.209-.675,1.637-1.911,1.561C393.638,268.593,386.557,268.361,384.789,268.37Zm2.852-22.452a12.054,12.054,0,0,0-1.005-4.945,4.712,4.712,0,0,0-6.718-2.355,8.429,8.429,0,0,0-2.551,1.8,18.441,18.441,0,0,0-5.251,14.851,8.063,8.063,0,0,0,1.062,3.34,4.641,4.641,0,0,0,6.18,2.182,9.1,9.1,0,0,0,3.313-2.388A19.2,19.2,0,0,0,387.641,245.917Z" transform="translate(-75.524 -198.032)" fill="#fff"/>
        <path id="Path_79" data-name="Path 79" d="M208.125,224.915c8.7-.132,14.764,4.206,16.537,11.823,3.183,13.671-6.3,28.882-19.924,31.819a21.244,21.244,0,0,1-13.493-1.08,13.678,13.678,0,0,1-8.33-11.136c-1.2-8.828,2.232-22.075,13.167-28.335A24.381,24.381,0,0,1,208.125,224.915ZM193.739,250.6c-.014,5.431,1.839,8.387,5.436,9.026,4.4.783,8.274-.363,10.885-4.176a22.133,22.133,0,0,0,3.8-15.1,6.669,6.669,0,0,0-6.529-6.17,10.3,10.3,0,0,0-10,4.98A24.529,24.529,0,0,0,193.739,250.6Z" transform="translate(-46.43 -197.355)" fill="#fff"/>
        <path id="Path_80" data-name="Path 80" d="M270.536,225.034c-6.145-.53-11.166,1.576-15.506,6.211a34.629,34.629,0,0,1,.72-3.822c.4-1.35-.109-1.545-1.3-1.509-2.424.072-4.856.094-7.279-.008-1.253-.053-1.656.38-1.893,1.585-.913,4.652-6.255,31.216-7.889,39.1-.248,1.2.033,1.469,1.181,1.439l7.672.013c1.364.066,1.777-.481,1.989-1.7.537-3.095,4.235-21.2,4.952-24.109a10.163,10.163,0,0,1,10.671-8.079c3.4.129,5.176,2.045,4.962,5.456a25.164,25.164,0,0,1-.494,3.3c-1.566,7.9-3.125,15.8-4.759,23.684-.248,1.2.033,1.469,1.181,1.439l7.672.013c1.364.066,1.777-.481,1.99-1.7.537-3.095,1.225-6.163,1.8-9.251,1.271-6.821,3.018-13.557,3.889-20.446C280.927,230.1,277.084,225.6,270.536,225.034Z" transform="translate(-55.45 -197.362)" fill="#fff"/>
        <path id="Path_81" data-name="Path 81" d="M118.571,234.346c-5.014.71-7.77,3.933-8.824,8.553-1.572,6.888-2.845,13.844-4.2,20.78-.844,4.326-.8,4.334-5.244,4.334-1.574,0-3.153-.091-4.719.027-1.383.1-1.636-.371-1.375-1.646C95.97,257.8,97.676,249.2,99.4,240.6c.862-4.3,1.771-8.59,2.571-12.9.235-1.268.559-1.937,2.083-1.835,2.48.166,4.98.085,7.47.025,1.007-.024,1.261.327,1.052,1.255a26.254,26.254,0,0,0-.645,4.2,21.2,21.2,0,0,1,2.2-2.17A17.947,17.947,0,0,1,127.174,225a14.044,14.044,0,0,1,1.863.273c5.632,1.224,8.751,5.726,7.763,11.754-1.111,6.772-2.566,13.49-3.881,20.229-.589,3.016-1.255,6.019-1.787,9.045-.21,1.2-.564,1.806-1.959,1.733-2.483-.129-4.978-.088-7.466-.015-1.246.036-1.636-.122-1.334-1.577q2.63-12.677,5.008-25.407C126.341,235.911,123.819,233.506,118.571,234.346Z" transform="translate(-31.805 -197.36)" fill="#fff"/>
        <path id="Path_82" data-name="Path 82" d="M152.761,268.185a1.231,1.231,0,0,1-1.2-1.488c1.676-7.83,3.318-15.526,4.97-23.219,1.113-5.185,2.288-10.357,3.329-15.556.261-1.306.643-1.893,2.114-1.819l8.264.018c1.236-.033,1.535.194,1.241,1.529-2.864,13.045-5.645,26.109-8.445,39.167-.152.71-.18,1.4-1.243,1.388C158.81,268.164,155.83,268.179,152.761,268.185Z" transform="translate(-41.285 -197.55)" fill="#fff"/>
        <path id="Path_83" data-name="Path 83" d="M176.335,207.783c-1.415.037-2.831.027-4.247.019V207.8l-1.1,0h-.347v0c-1.276.006-2.429.014-3.579-.018-.757-.02-1.23.16-1.393.985q-.8,4.035-1.679,8.052c-.19.86.023,1.184.938,1.16,1.415-.037,2.831-.027,4.247-.019v.006l1.1,0h.347v0c1.276-.006,2.429-.014,3.579.018.757.02,1.23-.16,1.393-.985q.8-4.035,1.679-8.052C177.464,208.082,177.253,207.758,176.335,207.783Z" transform="translate(-43.333 -194.526)" fill="#fff"/>
        <path id="Path_84" data-name="Path 84" d="M43.168,264c-5.215-.119-10.224-.55-14.81-3.027a16.072,16.072,0,0,1-8.789-13.531c-.484-5.468,1.1-10.655,2.163-15.9,2.527-12.509,5.195-24.988,7.723-37.495.332-1.641.947-2.2,2.657-2.135,3.6.149,7.212.117,10.816.011,1.494-.044,1.741.442,1.459,1.783q-4.049,19.311-8.026,38.637c-.556,2.692-1.175,5.377-1.575,8.093-.9,6.105,2.378,10.208,8.483,10.8,10.05.978,16.823-4.068,18.837-13.911,2.991-14.618,6.058-29.22,9.054-43.837.218-1.061.53-1.58,1.741-1.558,4,.073,8,.039,12,.019.864,0,1.317.078,1.081,1.193-3.335,15.816-6.382,31.7-10,47.447-3.035,13.205-12.031,20.372-25.13,22.727-.837.15-1.679.3-2.525.368C46.562,263.819,44.794,263.9,43.168,264Z" transform="translate(-19.48 -191.904)" fill="#fff"/>
      </g>
    </g>
  </g>
</svg>
