<svg xmlns="http://www.w3.org/2000/svg" xmlns:xlink="http://www.w3.org/1999/xlink" width="14" height="18" viewBox="0 0 14 18">
  <defs>
    <clipPath id="clip-path">
      <rect id="Rectangle_2" data-name="Rectangle 2" width="14" height="18"/>
    </clipPath>
  </defs>
  <g id="custom_1" data-name="custom – 1" clip-path="url(#clip-path)">
    <rect id="Rectangle_1" data-name="Rectangle 1" width="14" height="18" fill="rgba(255,255,255,0)"/>
    <path id="xls-file" d="M54,0H47.422a1.783,1.783,0,0,0-1.743,1.816V8.533h-.17a.717.717,0,0,0-.7.732V13.7a.717.717,0,0,0,.7.732h.17v.814a1.783,1.783,0,0,0,1.743,1.816H56.4a1.783,1.783,0,0,0,1.742-1.816V4.3ZM46.6,10.025h.767l.259.562c.088.187.154.338.224.512h.009c.07-.2.127-.334.2-.512l.25-.562h.763l-.833,1.5L49.11,13.1h-.771l-.267-.557c-.109-.215-.18-.374-.263-.553H47.8c-.062.178-.136.338-.228.553l-.245.557h-.763l.855-1.558Zm9.8,5.928H47.422a.691.691,0,0,1-.675-.7v-.814h8.366a.717.717,0,0,0,.7-.732V9.265a.717.717,0,0,0-.7-.732H46.747V1.816a.691.691,0,0,1,.675-.7L53.6,1.107v2.38a1.235,1.235,0,0,0,1.209,1.26l2.237-.007.025,10.51a.69.69,0,0,1-.671.7Zm-5.08-3.435V13.1H49.47V10.025h.671v2.494Zm1.132-.708c-.491-.178-.811-.461-.811-.909,0-.526.421-.927,1.118-.927a1.752,1.752,0,0,1,.754.155l-.149.562a1.361,1.361,0,0,0-.618-.146c-.289,0-.43.137-.43.3,0,.2.166.283.548.434.522.2.767.484.767.918,0,.516-.381.954-1.192.954a1.867,1.867,0,0,1-.837-.187l.136-.575a1.648,1.648,0,0,0,.741.191c.307,0,.469-.132.469-.333s-.148-.3-.5-.436Z" transform="translate(-44.806 0.5)" fill="#007141"/>
  </g>
</svg>
